<svg width="20" height="20" viewBox="0 0 20 20" fill="none" xmlns="http://www.w3.org/2000/svg">
  <path
    d="M3.78137 11.0001H7.01574C8.11887 11.0001 9.01574 11.8969 9.01574 13.0001V16.2344C9.01574 17.0126 9.86262 17.4907 10.5314 17.0907L13.2876 15.4376C13.7407 15.1657 14.0157 14.6782 14.0157 14.1501V11.1813C18.0439 8.80632 18.247 5.25944 17.9001 2.88757C17.8407 2.48757 17.5282 2.17507 17.1282 2.11569C14.7564 1.76882 11.2095 1.97194 8.83137 6.00007H5.86262C5.33449 6.00007 4.84699 6.27507 4.57512 6.72819L2.92512 9.48444C2.52512 10.1532 3.00324 11.0001 3.78137 11.0001ZM14.0157 4.50007C14.8439 4.50007 15.5157 5.17194 15.5157 6.00007C15.5157 6.82819 14.8439 7.50007 14.0157 7.50007C13.1876 7.50007 12.5157 6.82819 12.5157 6.00007C12.5157 5.17194 13.1876 4.50007 14.0157 4.50007ZM6.77824 16.8001C7.76262 15.8157 7.76262 14.2219 6.77824 13.2376C5.79387 12.2532 4.20012 12.2532 3.21574 13.2376C2.23762 14.2157 2.04387 16.1126 2.01887 17.1876C2.00637 17.6438 2.36887 18.0063 2.82824 17.9969C3.90637 17.9719 5.80012 17.7782 6.77824 16.8001ZM5.50949 15.8001C5.19387 16.1157 4.61887 16.2063 4.21887 16.2282C3.96887 16.2438 3.77199 16.0438 3.78449 15.7938C3.80637 15.3938 3.90012 14.8188 4.21262 14.5032C4.56887 14.1469 5.15012 14.1469 5.50637 14.5032C5.86262 14.8594 5.86262 15.4407 5.50637 15.7969L5.50949 15.8001Z"
    fill="currentColor"/>
</svg>
