<svg viewBox="0 0 12 13" fill="none" xmlns="http://www.w3.org/2000/svg">
  <path
    d="M5.14519 2.42998L0.910194 9.49998C0.822878 9.65119 0.776677 9.82263 0.776188 9.99724C0.775699 10.1719 0.820939 10.3435 0.907407 10.4952C0.993875 10.6469 1.11856 10.7734 1.26905 10.8619C1.41954 10.9505 1.59059 10.9981 1.76519 11H10.2352C10.4098 10.9981 10.5808 10.9505 10.7313 10.8619C10.8818 10.7734 11.0065 10.6469 11.093 10.4952C11.1794 10.3435 11.2247 10.1719 11.2242 9.99724C11.2237 9.82263 11.1775 9.65119 11.0902 9.49998L6.85519 2.42998C6.76606 2.28303 6.64055 2.16154 6.49079 2.07722C6.34103 1.9929 6.17206 1.94861 6.00019 1.94861C5.82833 1.94861 5.65936 1.9929 5.5096 2.07722C5.35983 2.16154 5.23433 2.28303 5.14519 2.42998Z"
    stroke="currentColor" stroke-linecap="round" stroke-linejoin="round" />
  <path d="M6.00003 5V7" stroke="currentColor" stroke-linecap="round" stroke-linejoin="round" />
  <path d="M6.00003 9H6.00545" stroke="currentColor" stroke-linecap="round" stroke-linejoin="round" />
</svg>