<svg viewBox="0 0 12 13" fill="none" xmlns="http://www.w3.org/2000/svg">
  <g>
    <path
      d="M5.99999 1.25C6.3328 1.25 6.63983 1.42578 6.80858 1.71406L11.8711 10.3391C12.0422 10.6297 12.0422 10.9883 11.8758 11.2789C11.7094 11.5695 11.3976 11.75 11.0625 11.75H0.937489C0.602333 11.75 0.290614 11.5695 0.124208 11.2789C-0.0421981 10.9883 -0.0398543 10.6273 0.128896 10.3391L5.1914 1.71406C5.36015 1.42578 5.66718 1.25 5.99999 1.25ZM5.99999 4.25C5.68827 4.25 5.43749 4.50078 5.43749 4.8125V7.4375C5.43749 7.74922 5.68827 8 5.99999 8C6.31171 8 6.56249 7.74922 6.56249 7.4375V4.8125C6.56249 4.50078 6.31171 4.25 5.99999 4.25ZM6.74999 9.5C6.74999 9.30109 6.67097 9.11032 6.53032 8.96967C6.38967 8.82902 6.1989 8.75 5.99999 8.75C5.80108 8.75 5.61031 8.82902 5.46966 8.96967C5.32901 9.11032 5.24999 9.30109 5.24999 9.5C5.24999 9.69891 5.32901 9.88968 5.46966 10.0303C5.61031 10.171 5.80108 10.25 5.99999 10.25C6.1989 10.25 6.38967 10.171 6.53032 10.0303C6.67097 9.88968 6.74999 9.69891 6.74999 9.5Z"
      fill="currentColor" />
  </g>
</svg>