<svg viewBox="0 0 40 40" fill="none" xmlns="http://www.w3.org/2000/svg">
  <rect width="40" height="40" rx="20" fill="#6119EF" />
  <g clip-path="url(#clip0_2826_166)">
    <path
      d="M23.2344 10.2461C23.4141 10.0859 23.6446 10 23.8829 10C24.5548 10 25.0235 10.668 24.7969 11.3008L22.1368 18.75H26.4454C27.0274 18.75 27.5001 19.2227 27.5001 19.8047C27.5001 20.1094 27.3712 20.3945 27.1446 20.5977L16.7618 29.7578C16.586 29.9141 16.3555 30 16.1173 30C15.4454 30 14.9766 29.332 15.1993 28.6992L17.8633 21.25H13.5079C12.9532 21.25 12.5001 20.7969 12.5001 20.2422C12.5001 19.9531 12.6251 19.6797 12.8399 19.4883L23.2344 10.2461ZM23.254 11.9023L14.1446 20H18.7501C18.9532 20 19.1446 20.0977 19.2618 20.2656C19.379 20.4336 19.4063 20.6445 19.3399 20.8359L16.7423 28.1094L25.9298 20H21.2501C21.0469 20 20.8555 19.9023 20.7383 19.7344C20.6212 19.5664 20.5938 19.3555 20.6602 19.1641L23.254 11.8984V11.9023Z"
      fill="white" />
  </g>
  <defs>
    <clipPath id="clip0_2826_166">
      <rect width="17.5" height="20" fill="white" transform="translate(11 10)" />
    </clipPath>
  </defs>
</svg>