<svg viewBox="0 0 40 40" fill="none" xmlns="http://www.w3.org/2000/svg">
  <rect width="40" height="40" rx="20" fill="#6119EF" />
  <g clip-path="url(#clip0_2826_184)">
    <path
      d="M20.8749 10.625C20.8749 10.2812 20.5937 10 20.2499 10C19.9062 10 19.6249 10.2812 19.6249 10.625V12.4805C19.3789 12.4844 19.1328 12.4922 18.8906 12.5156C17.9531 12.5937 17.0195 12.8203 16.2578 13.3203C15.4726 13.832 14.9062 14.6094 14.6992 15.7031C14.5507 16.4961 14.6249 17.1953 14.9218 17.8008C15.2109 18.3984 15.6835 18.8477 16.2304 19.1953C17.2734 19.8594 18.7148 20.2383 20.0273 20.582L20.0937 20.5977C21.4882 20.9648 22.7421 21.2969 23.6015 21.8437C24.0156 22.1094 24.2968 22.3984 24.457 22.7266C24.6132 23.0508 24.6835 23.4687 24.5742 24.0469C24.4218 24.8555 23.8554 25.4687 22.8984 25.8437C21.9257 26.2266 20.5898 26.3359 19.0703 26.1172C18.1171 25.9766 16.6874 25.6445 15.5039 25.1328C15.1874 24.9961 14.8203 25.1406 14.6835 25.4609C14.5468 25.7812 14.6914 26.1445 15.0117 26.2812C16.3242 26.8477 17.8671 27.1992 18.8906 27.3516H18.8945C19.1445 27.3867 19.3906 27.4141 19.6328 27.4336V29.3672C19.6328 29.7109 19.914 29.9922 20.2578 29.9922C20.6015 29.9922 20.8828 29.7109 20.8828 29.3672V27.4687C21.789 27.4414 22.6328 27.2852 23.3593 27.0039C24.6093 26.5156 25.5546 25.6094 25.8085 24.2734C25.957 23.4805 25.8828 22.7812 25.5859 22.1758C25.2968 21.5781 24.8203 21.1289 24.2773 20.7852C23.2343 20.1211 21.7929 19.7422 20.4804 19.3984L20.414 19.3828C19.0195 19.0156 17.7656 18.6836 16.9062 18.1367C16.4921 17.8711 16.2109 17.582 16.0507 17.2539C15.8945 16.9297 15.8242 16.5117 15.9335 15.9336C16.0742 15.1797 16.4453 14.6914 16.9492 14.3633C17.4726 14.0195 18.1796 13.8281 19.0039 13.7578C20.6562 13.6211 22.5703 13.9922 23.8593 14.3047C24.1953 14.3867 24.5312 14.1797 24.6132 13.8437C24.6953 13.5078 24.4882 13.1719 24.1523 13.0898C23.2968 12.8828 22.1171 12.6328 20.8789 12.5273L20.8749 10.625Z"
      fill="white" />
  </g>
  <defs>
    <clipPath id="clip0_2826_184">
      <rect width="12.5" height="20" fill="white" transform="translate(14 10)" />
    </clipPath>
  </defs>
</svg>