<svg viewBox="0 0 40 40" fill="none" xmlns="http://www.w3.org/2000/svg">
  <rect width="40" height="40" rx="20" fill="#6119EF" />
  <g clip-path="url(#clip0_2826_178)">
    <g clip-path="url(#clip1_2826_178)">
      <path
        d="M20.3086 10.082C20.1172 9.97266 19.8828 9.97266 19.6914 10.082L10.6172 15.2227C10.2344 15.4414 10 15.8438 10 16.2812C10 16.9531 10.5469 17.5 11.2188 17.5H20H28.7812C29.4531 17.5 30 16.9531 30 16.2812C30 15.8438 29.7656 15.4375 29.3828 15.2227L20.3086 10.082ZM21.9766 16.25C22.1133 15.9648 22.1875 15.6484 22.1875 15.3125C22.1875 14.1055 21.207 13.125 20 13.125C18.793 13.125 17.8125 14.1055 17.8125 15.3125C17.8125 15.6484 17.8867 15.9648 18.0234 16.25H11.3398L20 11.3438L28.6602 16.25H21.9766ZM20 14.375C20.2486 14.375 20.4871 14.4738 20.6629 14.6496C20.8387 14.8254 20.9375 15.0639 20.9375 15.3125C20.9375 15.5611 20.8387 15.7996 20.6629 15.9754C20.4871 16.1512 20.2486 16.25 20 16.25C19.7514 16.25 19.5129 16.1512 19.3371 15.9754C19.1613 15.7996 19.0625 15.5611 19.0625 15.3125C19.0625 15.0639 19.1613 14.8254 19.3371 14.6496C19.5129 14.4738 19.7514 14.375 20 14.375ZM12.5 23.75C12.1562 23.75 11.875 24.0312 11.875 24.375C11.875 24.7188 12.1562 25 12.5 25H27.5C27.8438 25 28.125 24.7188 28.125 24.375C28.125 24.0312 27.8438 23.75 27.5 23.75V18.75H26.25V23.75H23.125V18.75H21.875V23.75H18.125V18.75H16.875V23.75H13.75V18.75H12.5V23.75ZM11.5625 26.25C11.2188 26.25 10.9375 26.5312 10.9375 26.875C10.9375 27.2188 11.2188 27.5 11.5625 27.5H28.4375C28.7812 27.5 29.0625 27.2188 29.0625 26.875C29.0625 26.5312 28.7812 26.25 28.4375 26.25H11.5625ZM10.625 28.75C10.2812 28.75 10 29.0312 10 29.375C10 29.7188 10.2812 30 10.625 30H29.375C29.7188 30 30 29.7188 30 29.375C30 29.0312 29.7188 28.75 29.375 28.75H10.625Z"
        fill="white" />
    </g>
  </g>
  <defs>
    <clipPath id="clip0_2826_178">
      <rect width="20" height="20" fill="white" transform="translate(10 10)" />
    </clipPath>
    <clipPath id="clip1_2826_178">
      <rect width="20" height="20" fill="white" transform="translate(10 10)" />
    </clipPath>
  </defs>
</svg>