<svg viewBox="0 0 12 13" fill="none" xmlns="http://www.w3.org/2000/svg">
  <g>
    <path
      d="M6 0.499939C7.5913 0.499939 9.11742 1.13208 10.2426 2.2573C11.3679 3.38252 12 4.90864 12 6.49994C12 8.09124 11.3679 9.61736 10.2426 10.7426C9.11742 11.8678 7.5913 12.4999 6 12.4999C4.4087 12.4999 2.88258 11.8678 1.75736 10.7426C0.632141 9.61736 0 8.09124 0 6.49994C0 4.90864 0.632141 3.38252 1.75736 2.2573C2.88258 1.13208 4.4087 0.499939 6 0.499939ZM5.4375 3.31244V6.49994C5.4375 6.68744 5.53125 6.86322 5.68828 6.96869L7.93828 8.46869C8.19609 8.64213 8.54531 8.57181 8.71875 8.31166C8.89219 8.0515 8.82187 7.70463 8.56172 7.53119L6.5625 6.19994V3.31244C6.5625 3.00072 6.31172 2.74994 6 2.74994C5.68828 2.74994 5.4375 3.00072 5.4375 3.31244Z"
      fill="currentColor" />
  </g>
</svg>