<svg viewBox="0 0 16 17" fill="none" xmlns="http://www.w3.org/2000/svg">
  <path
    d="M3.2591 13.5478C3.08132 13.5478 2.9628 13.4885 2.84428 13.37C2.60724 13.133 2.60724 12.7774 2.84428 12.5404L12.3258 3.05888C12.5628 2.82184 12.9184 2.82184 13.1554 3.05888C13.3924 3.29592 13.3924 3.65147 13.1554 3.88851L3.67391 13.37C3.55539 13.4885 3.43687 13.5478 3.2591 13.5478Z"
    fill="currentColor" />
  <path
    d="M12.7406 13.5478C12.5628 13.5478 12.4443 13.4885 12.3258 13.37L2.84428 3.88851C2.60724 3.65147 2.60724 3.29592 2.84428 3.05888C3.08132 2.82184 3.43687 2.82184 3.67391 3.05888L13.1554 12.5404C13.3924 12.7774 13.3924 13.133 13.1554 13.37C13.0369 13.4885 12.9184 13.5478 12.7406 13.5478Z"
    fill="currentColor" />
</svg>