<svg viewBox="0 0 20 20" fill="none" xmlns="http://www.w3.org/2000/svg">
  <path
    d="M10 0.400024C11.38 0.400024 12.58 1.17627 13.1838 2.31627C14.4175 1.93752 15.8125 2.23377 16.7875 3.21252C17.7625 4.19127 18.0625 5.58627 17.6838 6.82002C18.8238 7.42002 19.6 8.62002 19.6 10C19.6 11.38 18.8238 12.58 17.6838 13.1838C18.0625 14.4175 17.7625 15.8125 16.7875 16.7875C15.8125 17.7625 14.4138 18.0625 13.18 17.6838C12.58 18.8238 11.38 19.6 10 19.6C8.62002 19.6 7.42002 18.8238 6.81628 17.6838C5.58252 18.0625 4.18752 17.7625 3.21252 16.7875C2.23752 15.8125 1.93752 14.4138 2.31627 13.18C1.17627 12.58 0.400024 11.38 0.400024 10C0.400024 8.62002 1.17627 7.42002 2.31627 6.81628C1.93752 5.58252 2.23377 4.18752 3.21252 3.21252C4.19127 2.23752 5.58627 1.93752 6.82002 2.31627C7.42002 1.17627 8.62002 0.400024 10 0.400024ZM13.4088 6.57253C13.0075 6.28003 12.445 6.37002 12.1525 6.77127L8.94252 11.185L7.94877 10.1575C7.60377 9.80128 7.03377 9.79002 6.67752 10.135C6.32127 10.48 6.31002 11.05 6.65503 11.4063L8.39503 13.2063C8.57878 13.3975 8.83753 13.4988 9.10378 13.48C9.37002 13.4613 9.61377 13.3263 9.77127 13.1125L13.6075 7.82877C13.9 7.42753 13.81 6.86503 13.4088 6.57253Z"
    fill="currentColor" />
</svg>