<svg viewBox="0 0 20 20" fill="none" xmlns="http://www.w3.org/2000/svg">
  <path
    d="M9.9999 0.400024C11.3537 0.400024 12.5499 1.07877 13.2662 2.11002C14.5037 1.88502 15.8312 2.25252 16.7874 3.20877C17.7437 4.16502 18.1112 5.49252 17.8862 6.73002C18.9212 7.45002 19.5999 8.64627 19.5999 10C19.5999 11.3538 18.9212 12.55 17.8899 13.2663C18.1149 14.5038 17.7474 15.8313 16.7912 16.7875C15.8349 17.7438 14.5074 18.1113 13.2699 17.8863C12.5499 18.9213 11.3537 19.6 9.9999 19.6C8.64615 19.6 7.4499 18.9213 6.73365 17.89C5.49615 18.115 4.16865 17.7475 3.2124 16.7913C2.25615 15.835 1.88865 14.5075 2.11365 13.27C1.07865 12.55 0.399902 11.3538 0.399902 10C0.399902 8.64627 1.07865 7.45002 2.1099 6.73377C1.8849 5.49627 2.2524 4.16877 3.20865 3.21252C4.1649 2.25627 5.4924 1.88877 6.7299 2.11377C7.4499 1.07877 8.64615 0.400024 9.9999 0.400024ZM9.9999 1.60002C8.93865 1.60002 8.0124 2.19627 7.5474 3.07752C7.4124 3.33252 7.11615 3.45252 6.8424 3.37002C5.8899 3.07752 4.81365 3.31002 4.0599 4.06002C3.30615 4.81002 3.0774 5.89002 3.3699 6.84252C3.4524 7.11627 3.3324 7.41252 3.0774 7.54752C2.19615 8.01252 1.5999 8.93877 1.5999 10C1.5999 11.0613 2.19615 11.9875 3.0774 12.4525C3.3324 12.5875 3.4524 12.8838 3.3699 13.1575C3.0774 14.11 3.3099 15.1863 4.0599 15.94C4.8099 16.6938 5.8899 16.9225 6.8424 16.63C7.11615 16.5475 7.4124 16.6675 7.5474 16.9225C8.0124 17.8038 8.93865 18.4 9.9999 18.4C11.0612 18.4 11.9874 17.8038 12.4524 16.9225C12.5874 16.6675 12.8837 16.5475 13.1574 16.63C14.1099 16.9225 15.1862 16.69 15.9399 15.94C16.6937 15.19 16.9224 14.1138 16.6299 13.1613C16.5437 12.8875 16.6674 12.5913 16.9224 12.4563C17.8037 11.9913 18.3999 11.065 18.3999 10.0038C18.3999 8.94252 17.8037 8.01627 16.9224 7.55127C16.6674 7.41627 16.5474 7.12002 16.6299 6.84627C16.9224 5.89377 16.6899 4.81752 15.9399 4.06752C15.1899 3.31752 14.1099 3.08502 13.1574 3.37752C12.8837 3.46002 12.5874 3.34002 12.4524 3.08502C11.9874 2.20377 11.0612 1.60752 9.9999 1.60752V1.60002ZM12.5162 6.78252C12.7112 6.51627 13.0862 6.45627 13.3524 6.65127C13.6187 6.84627 13.6787 7.22127 13.4837 7.48752L9.52365 12.9325C9.41865 13.075 9.2574 13.165 9.08115 13.1763C8.9049 13.1875 8.7324 13.1238 8.60865 12.9963L6.56865 10.885C6.3399 10.645 6.34365 10.2663 6.58365 10.0375C6.82365 9.80877 7.2024 9.81627 7.43115 10.0525L8.97615 11.65L12.5162 6.78252Z"
    fill="currentColor" />
</svg>