<svg viewBox="0 0 20 21" fill="none" xmlns="http://www.w3.org/2000/svg">
  <g>
    <path
      d="M0 16.75C0 17.0938 0.28125 17.375 0.625 17.375H3.1875C3.47656 18.8008 4.73828 19.875 6.25 19.875C7.76172 19.875 9.02344 18.8008 9.3125 17.375H19.375C19.7188 17.375 20 17.0938 20 16.75C20 16.4062 19.7188 16.125 19.375 16.125H9.3125C9.02344 14.6992 7.76172 13.625 6.25 13.625C4.73828 13.625 3.47656 14.6992 3.1875 16.125H0.625C0.28125 16.125 0 16.4062 0 16.75ZM4.375 16.75C4.375 16.2527 4.57254 15.7758 4.92417 15.4242C5.27581 15.0725 5.75272 14.875 6.25 14.875C6.74728 14.875 7.22419 15.0725 7.57583 15.4242C7.92746 15.7758 8.125 16.2527 8.125 16.75C8.125 17.2473 7.92746 17.7242 7.57583 18.0758C7.22419 18.4275 6.74728 18.625 6.25 18.625C5.75272 18.625 5.27581 18.4275 4.92417 18.0758C4.57254 17.7242 4.375 17.2473 4.375 16.75ZM11.875 10.5C11.875 10.2538 11.9235 10.01 12.0177 9.78247C12.112 9.55498 12.2501 9.34828 12.4242 9.17417C12.5983 9.00006 12.805 8.86195 13.0325 8.76773C13.26 8.6735 13.5038 8.625 13.75 8.625C13.9962 8.625 14.24 8.6735 14.4675 8.76773C14.695 8.86195 14.9017 9.00006 15.0758 9.17417C15.2499 9.34828 15.388 9.55498 15.4823 9.78247C15.5765 10.01 15.625 10.2538 15.625 10.5C15.625 10.7462 15.5765 10.99 15.4823 11.2175C15.388 11.445 15.2499 11.6517 15.0758 11.8258C14.9017 11.9999 14.695 12.138 14.4675 12.2323C14.24 12.3265 13.9962 12.375 13.75 12.375C13.5038 12.375 13.26 12.3265 13.0325 12.2323C12.805 12.138 12.5983 11.9999 12.4242 11.8258C12.2501 11.6517 12.112 11.445 12.0177 11.2175C11.9235 10.99 11.875 10.7462 11.875 10.5ZM13.75 7.375C12.2383 7.375 10.9766 8.44922 10.6875 9.875H0.625C0.28125 9.875 0 10.1562 0 10.5C0 10.8438 0.28125 11.125 0.625 11.125H10.6875C10.9766 12.5508 12.2383 13.625 13.75 13.625C15.2617 13.625 16.5234 12.5508 16.8125 11.125H19.375C19.7188 11.125 20 10.8438 20 10.5C20 10.1562 19.7188 9.875 19.375 9.875H16.8125C16.5234 8.44922 15.2617 7.375 13.75 7.375ZM7.5 6.125C7.00272 6.125 6.52581 5.92746 6.17417 5.57583C5.82254 5.22419 5.625 4.74728 5.625 4.25C5.625 3.75272 5.82254 3.27581 6.17417 2.92417C6.52581 2.57254 7.00272 2.375 7.5 2.375C7.99728 2.375 8.47419 2.57254 8.82583 2.92417C9.17746 3.27581 9.375 3.75272 9.375 4.25C9.375 4.74728 9.17746 5.22419 8.82583 5.57583C8.47419 5.92746 7.99728 6.125 7.5 6.125ZM10.5625 3.625C10.2734 2.19922 9.01172 1.125 7.5 1.125C5.98828 1.125 4.72656 2.19922 4.4375 3.625H0.625C0.28125 3.625 0 3.90625 0 4.25C0 4.59375 0.28125 4.875 0.625 4.875H4.4375C4.72656 6.30078 5.98828 7.375 7.5 7.375C9.01172 7.375 10.2734 6.30078 10.5625 4.875H19.375C19.7188 4.875 20 4.59375 20 4.25C20 3.90625 19.7188 3.625 19.375 3.625H10.5625Z"
      fill="currentColor" />
  </g>
</svg>