<svg viewBox="0 0 16 16" fill="none" xmlns="http://www.w3.org/2000/svg">
  <g>
    <path
      d="M3.62838 2C3.7698 2 3.88552 2.1125 3.88552 2.25V3.75C3.88552 3.8875 3.7698 4 3.62838 4H2.08552C1.94409 4 1.82838 3.8875 1.82838 3.75V2.25C1.82838 2.1125 1.94409 2 2.08552 2H3.62838ZM2.08552 1C1.37516 1 0.799805 1.55937 0.799805 2.25V3.75C0.799805 4.44062 1.37516 5 2.08552 5H3.62838C4.33873 5 4.91409 4.44062 4.91409 3.75V2.25C4.91409 1.55937 4.33873 1 3.62838 1H2.08552ZM3.62838 7C3.7698 7 3.88552 7.1125 3.88552 7.25V8.75C3.88552 8.8875 3.7698 9 3.62838 9H2.08552C1.94409 9 1.82838 8.8875 1.82838 8.75V7.25C1.82838 7.1125 1.94409 7 2.08552 7H3.62838ZM2.08552 6C1.37516 6 0.799805 6.55937 0.799805 7.25V8.75C0.799805 9.44063 1.37516 10 2.08552 10H3.62838C4.33873 10 4.91409 9.44063 4.91409 8.75V7.25C4.91409 6.55937 4.33873 6 3.62838 6H2.08552ZM2.08552 12H3.62838C3.7698 12 3.88552 12.1125 3.88552 12.25V13.75C3.88552 13.8875 3.7698 14 3.62838 14H2.08552C1.94409 14 1.82838 13.8875 1.82838 13.75V12.25C1.82838 12.1125 1.94409 12 2.08552 12ZM0.799805 12.25V13.75C0.799805 14.4406 1.37516 15 2.08552 15H3.62838C4.33873 15 4.91409 14.4406 4.91409 13.75V12.25C4.91409 11.5594 4.33873 11 3.62838 11H2.08552C1.37516 11 0.799805 11.5594 0.799805 12.25ZM8.77123 2C8.91266 2 9.02838 2.1125 9.02838 2.25V3.75C9.02838 3.8875 8.91266 4 8.77123 4H7.22838C7.08695 4 6.97123 3.8875 6.97123 3.75V2.25C6.97123 2.1125 7.08695 2 7.22838 2H8.77123ZM7.22838 1C6.51802 1 5.94266 1.55937 5.94266 2.25V3.75C5.94266 4.44062 6.51802 5 7.22838 5H8.77123C9.48159 5 10.0569 4.44062 10.0569 3.75V2.25C10.0569 1.55937 9.48159 1 8.77123 1H7.22838ZM7.22838 7H8.77123C8.91266 7 9.02838 7.1125 9.02838 7.25V8.75C9.02838 8.8875 8.91266 9 8.77123 9H7.22838C7.08695 9 6.97123 8.8875 6.97123 8.75V7.25C6.97123 7.1125 7.08695 7 7.22838 7ZM5.94266 7.25V8.75C5.94266 9.44063 6.51802 10 7.22838 10H8.77123C9.48159 10 10.0569 9.44063 10.0569 8.75V7.25C10.0569 6.55937 9.48159 6 8.77123 6H7.22838C6.51802 6 5.94266 6.55937 5.94266 7.25ZM8.77123 12C8.91266 12 9.02838 12.1125 9.02838 12.25V13.75C9.02838 13.8875 8.91266 14 8.77123 14H7.22838C7.08695 14 6.97123 13.8875 6.97123 13.75V12.25C6.97123 12.1125 7.08695 12 7.22838 12H8.77123ZM7.22838 11C6.51802 11 5.94266 11.5594 5.94266 12.25V13.75C5.94266 14.4406 6.51802 15 7.22838 15H8.77123C9.48159 15 10.0569 14.4406 10.0569 13.75V12.25C10.0569 11.5594 9.48159 11 8.77123 11H7.22838ZM12.3712 2H13.9141C14.0555 2 14.1712 2.1125 14.1712 2.25V3.75C14.1712 3.8875 14.0555 4 13.9141 4H12.3712C12.2298 4 12.1141 3.8875 12.1141 3.75V2.25C12.1141 2.1125 12.2298 2 12.3712 2ZM11.0855 2.25V3.75C11.0855 4.44062 11.6609 5 12.3712 5H13.9141C14.6244 5 15.1998 4.44062 15.1998 3.75V2.25C15.1998 1.55937 14.6244 1 13.9141 1H12.3712C11.6609 1 11.0855 1.55937 11.0855 2.25ZM13.9141 7C14.0555 7 14.1712 7.1125 14.1712 7.25V8.75C14.1712 8.8875 14.0555 9 13.9141 9H12.3712C12.2298 9 12.1141 8.8875 12.1141 8.75V7.25C12.1141 7.1125 12.2298 7 12.3712 7H13.9141ZM12.3712 6C11.6609 6 11.0855 6.55937 11.0855 7.25V8.75C11.0855 9.44063 11.6609 10 12.3712 10H13.9141C14.6244 10 15.1998 9.44063 15.1998 8.75V7.25C15.1998 6.55937 14.6244 6 13.9141 6H12.3712ZM12.3712 12H13.9141C14.0555 12 14.1712 12.1125 14.1712 12.25V13.75C14.1712 13.8875 14.0555 14 13.9141 14H12.3712C12.2298 14 12.1141 13.8875 12.1141 13.75V12.25C12.1141 12.1125 12.2298 12 12.3712 12ZM11.0855 12.25V13.75C11.0855 14.4406 11.6609 15 12.3712 15H13.9141C14.6244 15 15.1998 14.4406 15.1998 13.75V12.25C15.1998 11.5594 14.6244 11 13.9141 11H12.3712C11.6609 11 11.0855 11.5594 11.0855 12.25Z"
      fill="currentColor" />
  </g>
</svg>