<svg viewBox="0 0 16 16" fill="none" xmlns="http://www.w3.org/2000/svg">
  <g>
    <path
      d="M4.7998 0.5C4.7998 0.225 4.5748 0 4.2998 0C4.0248 0 3.7998 0.225 3.7998 0.5V2H2.7998C1.69668 2 0.799805 2.89687 0.799805 4V5V6V14C0.799805 15.1031 1.69668 16 2.7998 16H12.7998C13.9029 16 14.7998 15.1031 14.7998 14V6V5V4C14.7998 2.89687 13.9029 2 12.7998 2H11.7998V0.5C11.7998 0.225 11.5748 0 11.2998 0C11.0248 0 10.7998 0.225 10.7998 0.5V2H4.7998V0.5ZM1.7998 6H13.7998V14C13.7998 14.5531 13.3529 15 12.7998 15H2.7998C2.24668 15 1.7998 14.5531 1.7998 14V6ZM2.7998 3H12.7998C13.3529 3 13.7998 3.44688 13.7998 4V5H1.7998V4C1.7998 3.44688 2.24668 3 2.7998 3ZM8.47168 7.23438C8.19668 6.67812 7.40293 6.67812 7.12793 7.23438L6.44043 8.62813L4.90293 8.85312C4.2873 8.94375 4.04355 9.7 4.4873 10.1313L5.5998 11.2156L5.3373 12.7469C5.23105 13.3594 5.8748 13.8281 6.4248 13.5375L7.7998 12.8125L9.1748 13.5375C9.7248 13.8281 10.3686 13.3594 10.2623 12.7469L9.9998 11.2156L11.1123 10.1313C11.5561 9.69688 11.3123 8.94062 10.6967 8.85312L9.15918 8.62813L8.47168 7.23438ZM7.21855 9.30625L7.7998 8.13125L8.38105 9.30625L8.49668 9.54062L8.75605 9.57812L10.0529 9.76562L9.11543 10.6812L8.92793 10.8656L8.97168 11.125L9.19355 12.4187L8.03418 11.8094L7.80293 11.6875L7.57168 11.8094L6.4123 12.4187L6.63418 11.125L6.67793 10.8656L6.49043 10.6812L5.55293 9.76562L6.8498 9.57812L7.10918 9.54062L7.2248 9.30625H7.21855Z"
      fill="currentColor" />
  </g>
</svg>