<svg viewBox="0 0 16 16" fill="none" xmlns="http://www.w3.org/2000/svg">
  <g clip-path="url(#clip0_1373_4410)">
    <path
      d="M7.99998 14.6666C11.6819 14.6666 14.6666 11.6818 14.6666 7.99992C14.6666 4.31802 11.6819 1.33325 7.99998 1.33325C4.31808 1.33325 1.33331 4.31802 1.33331 7.99992C1.33331 11.6818 4.31808 14.6666 7.99998 14.6666Z"
      stroke="currentColor" stroke-width="1.33333" stroke-linecap="round" stroke-linejoin="round" />
    <path
      d="M6.06 5.99989C6.21673 5.55434 6.5261 5.17863 6.9333 4.93931C7.3405 4.7 7.81926 4.61252 8.28478 4.69237C8.7503 4.77222 9.17254 5.01424 9.47672 5.37558C9.78089 5.73691 9.94737 6.19424 9.94666 6.66656C9.94666 7.99989 7.94666 8.66656 7.94666 8.66656"
      stroke="currentColor" stroke-width="1.33333" stroke-linecap="round" stroke-linejoin="round" />
    <path d="M8 11.3333H8.00667" stroke="currentColor" stroke-width="1.33333" stroke-linecap="round"
      stroke-linejoin="round" />
  </g>
  <defs>
    <clipPath id="clip0_1373_4410">
      <rect width="16" height="16" fill="white" />
    </clipPath>
  </defs>
</svg>