<svg viewBox="0 0 16 16" fill="none" xmlns="http://www.w3.org/2000/svg">
  <path
    d="M13.7712 6.23904L12.6549 5.66072C12.4484 5.55663 12.1916 5.63759 12.0912 5.85157C11.9851 6.07132 12.0688 6.33157 12.2753 6.43566L13.1628 6.89253V9.66265L11.0698 9.66843V3.73494C11.0698 2.57831 10.3219 2 9.39535 2H4.93023C4.00372 2 3.25581 2.57831 3.25581 3.73494V13.1325H2.4186C2.18977 13.1325 2 13.3292 2 13.5663C2 13.8034 2.18977 14 2.4186 14H11.907C12.1358 14 12.3256 13.8034 12.3256 13.5663C12.3256 13.3292 12.1358 13.1325 11.907 13.1325H11.0698V10.5359L13.5814 10.5301C13.8158 10.5301 14 10.3335 14 10.0964V6.62651C14 6.46458 13.9107 6.31422 13.7712 6.23904ZM4.65116 4.82795C4.65116 4.0241 5.12558 3.73494 5.70605 3.73494H8.62512C9.2 3.73494 9.67442 4.0241 9.67442 4.82795V5.53928C9.67442 6.33735 9.2 6.62651 8.61953 6.62651H5.70605C5.12558 6.62651 4.65116 6.33735 4.65116 5.53349V4.82795ZM4.93023 7.92771H6.60465C6.83349 7.92771 7.02326 8.12434 7.02326 8.36145C7.02326 8.59855 6.83349 8.79518 6.60465 8.79518H4.93023C4.7014 8.79518 4.51163 8.59855 4.51163 8.36145C4.51163 8.12434 4.7014 7.92771 4.93023 7.92771Z"
    fill="currentColor" />
</svg>