<svg viewBox="0 0 40 40" fill="none" xmlns="http://www.w3.org/2000/svg">
  <rect width="40" height="40" rx="20" fill="#6119EF" />
  <g clip-path="url(#clip0_2826_172)">
    <path
      d="M10.5556 13.087C10.25 13.087 10 13.3315 10 13.6305C10 13.9294 10.25 14.1739 10.5556 14.1739H12.7778V16.3478H10.5556C10.25 16.3478 10 16.5924 10 16.8913C10 17.1902 10.25 17.4348 10.5556 17.4348H13.3333H17.7778H22.2222H26.6667H29.4444C29.75 17.4348 30 17.1902 30 16.8913C30 16.5924 29.75 16.3478 29.4444 16.3478H27.2222V14.1739H29.4444C29.75 14.1739 30 13.9294 30 13.6305C30 13.3315 29.75 13.087 29.4444 13.087H26.6667H22.2222H17.7778H13.3333H10.5556ZM26.1111 14.1739V16.3478H22.7778V14.1739H26.1111ZM21.6667 14.1739V16.3478H18.3333V14.1739H21.6667ZM17.2222 14.1739V16.3478H13.8889V14.1739H17.2222ZM10.5556 20.1522C10.25 20.1522 10 20.3968 10 20.6957C10 20.9946 10.25 21.2391 10.5556 21.2391H11.1111C12.3368 21.2391 13.3333 22.214 13.3333 23.4131V26.6739C13.3333 27.5741 14.0799 28.3044 15 28.3044H16.1111C17.0313 28.3044 17.7778 27.5741 17.7778 26.6739V23.4131C17.7778 22.214 18.7743 21.2391 20 21.2391C21.2257 21.2391 22.2222 22.214 22.2222 23.4131V26.6739C22.2222 27.5741 22.9688 28.3044 23.8889 28.3044H25C25.9201 28.3044 26.6667 27.5741 26.6667 26.6739V23.4131C26.6667 22.214 27.6632 21.2391 28.8889 21.2391H29.4444C29.75 21.2391 30 20.9946 30 20.6957C30 20.3968 29.75 20.1522 29.4444 20.1522H28.8889C27.0486 20.1522 25.5556 21.6128 25.5556 23.4131V26.6739C25.5556 26.9728 25.3056 27.2174 25 27.2174H23.8889C23.5833 27.2174 23.3333 26.9728 23.3333 26.6739V23.4131C23.3333 21.6128 21.8403 20.1522 20 20.1522C18.1597 20.1522 16.6667 21.6128 16.6667 23.4131V26.6739C16.6667 26.9728 16.4167 27.2174 16.1111 27.2174H15C14.6944 27.2174 14.4444 26.9728 14.4444 26.6739V23.4131C14.4444 21.6128 12.9514 20.1522 11.1111 20.1522H10.5556Z"
      fill="white" />
  </g>
  <defs>
    <clipPath id="clip0_2826_172">
      <rect width="20" height="20" fill="white" transform="translate(10 10)" />
    </clipPath>
  </defs>
</svg>