<svg viewBox="0 0 14 14" fill="none" xmlns="http://www.w3.org/2000/svg">
  <path
    d="M2 1C1.44687 1 1 1.44687 1 2V12C1 12.5531 1.44687 13 2 13H12C12.5531 13 13 12.5531 13 12V2C13 1.44687 12.5531 1 12 1H2ZM0 2C0 0.896875 0.896875 0 2 0H12C13.1031 0 14 0.896875 14 2V12C14 13.1031 13.1031 14 12 14H2C0.896875 14 0 13.1031 0 12V2ZM6.5 10V7.5H4C3.725 7.5 3.5 7.275 3.5 7C3.5 6.725 3.725 6.5 4 6.5H6.5V4C6.5 3.725 6.725 3.5 7 3.5C7.275 3.5 7.5 3.725 7.5 4V6.5H10C10.275 6.5 10.5 6.725 10.5 7C10.5 7.275 10.275 7.5 10 7.5H7.5V10C7.5 10.275 7.275 10.5 7 10.5C6.725 10.5 6.5 10.275 6.5 10Z"
    fill="currentColor" />
</svg>