<svg width="20" height="20" viewBox="0 0 20 20" fill="none" xmlns="http://www.w3.org/2000/svg">
  <path
    d="M12.0469 4.15C12.2844 3.74687 12.7156 3.5 13.1812 3.5H13.25C13.9406 3.5 14.5 4.05937 14.5 4.75C14.5 5.44062 13.9406 6 13.25 6H10.9594L12.0469 4.15ZM7.95312 4.15L9.04062 6H6.75C6.05937 6 5.5 5.44062 5.5 4.75C5.5 4.05937 6.05937 3.5 6.75 3.5H6.81875C7.28437 3.5 7.71875 3.74687 7.95312 4.15ZM10.7531 3.39062L10 4.67187L9.24687 3.39062C8.74062 2.52812 7.81562 2 6.81875 2H6.75C5.23125 2 4 3.23125 4 4.75C4 5.2 4.10938 5.625 4.3 6H3C2.44687 6 2 6.44687 2 7V8C2 8.55312 2.44687 9 3 9H17C17.5531 9 18 8.55312 18 8V7C18 6.44687 17.5531 6 17 6H15.7C15.8906 5.625 16 5.2 16 4.75C16 3.23125 14.7687 2 13.25 2H13.1812C12.1844 2 11.2594 2.52812 10.7531 3.3875V3.39062ZM17 10.5H10.75V17H15C16.1031 17 17 16.1031 17 15V10.5ZM9.25 10.5H3V15C3 16.1031 3.89687 17 5 17H9.25V10.5Z"
    fill="currentColor"/>
</svg>
