<svg xmlns="http://www.w3.org/2000/svg" viewBox="0 0 16 16">
  <path d="M11.41,1c-.55,0-1.06.28-1.35.75l-1.41,2.25h2.85c.83,0,1.5-.67,1.5-1.5s-.67-1.5-1.5-1.5h-.09ZM7.35,4l-1.41-2.25c-.29-.47-.8-.75-1.35-.75h-.09c-.83,0-1.5.67-1.5,1.5s.67,1.5,1.5,1.5h2.85ZM8,3.16l1.21-1.94c.48-.76,1.3-1.22,2.2-1.22h.09c1.38,0,2.5,1.12,2.5,2.5,0,.56-.19,1.08-.5,1.5h1c.83,0,1.5.67,1.5,1.5v2c0,.65-.42,1.21-1,1.42v5.08c0,1.1-.9,2-2,2H3c-1.1,0-2-.9-2-2v-5.08c-.58-.21-1-.76-1-1.42v-2c0-.83.67-1.5,1.5-1.5h1c-.31-.42-.5-.94-.5-1.5,0-1.38,1.12-2.5,2.5-2.5h.09c.89,0,1.73.46,2.2,1.22l1.21,1.94ZM4.5,5H1.5c-.27,0-.5.23-.5.5v2c0,.27.23.5.5.5h6v-3h-3ZM8.5,5v3h6c.27,0,.5-.23.5-.5v-2c0-.27-.23-.5-.5-.5h-6ZM7.5,9H2v5c0,.55.45,1,1,1h4.5v-6ZM8.5,15h4.5c.55,0,1-.45,1-1v-5h-5.5v6Z" fill="currentColor"/>
</svg>