<svg viewBox="0 0 16 16" fill="none" xmlns="http://www.w3.org/2000/svg">
  <g>
    <path
      d="M8 10C9.10457 10 10 9.10457 10 8C10 6.89543 9.10457 6 8 6C6.89543 6 6 6.89543 6 8C6 9.10457 6.89543 10 8 10Z"
      stroke="currentColor" stroke-width="1.33333" stroke-linecap="round" stroke-linejoin="round" />
    <path
      d="M12.9332 10.0001C12.8444 10.2012 12.818 10.4242 12.8572 10.6405C12.8964 10.8567 12.9995 11.0563 13.1532 11.2134L13.1932 11.2534C13.3171 11.3772 13.4155 11.5243 13.4826 11.6862C13.5497 11.848 13.5842 12.0215 13.5842 12.1967C13.5842 12.372 13.5497 12.5455 13.4826 12.7073C13.4155 12.8692 13.3171 13.0163 13.1932 13.1401C13.0693 13.264 12.9223 13.3624 12.7604 13.4295C12.5986 13.4966 12.4251 13.5311 12.2498 13.5311C12.0746 13.5311 11.9011 13.4966 11.7393 13.4295C11.5774 13.3624 11.4303 13.264 11.3065 13.1401L11.2665 13.1001C11.1094 12.9464 10.9098 12.8433 10.6936 12.8041C10.4773 12.7649 10.2542 12.7913 10.0532 12.8801C9.85599 12.9646 9.68783 13.1049 9.56938 13.2838C9.45093 13.4626 9.38736 13.6722 9.3865 13.8867V14.0001C9.3865 14.3537 9.24603 14.6928 8.99598 14.9429C8.74593 15.1929 8.40679 15.3334 8.05317 15.3334C7.69955 15.3334 7.36041 15.1929 7.11036 14.9429C6.86031 14.6928 6.71984 14.3537 6.71984 14.0001V13.9401C6.71468 13.7194 6.64325 13.5054 6.51484 13.3259C6.38644 13.1464 6.20699 13.0096 5.99984 12.9334C5.79876 12.8447 5.57571 12.8182 5.35945 12.8574C5.14318 12.8966 4.94362 12.9997 4.7865 13.1534L4.7465 13.1934C4.62267 13.3174 4.47562 13.4157 4.31376 13.4828C4.15189 13.5499 3.97839 13.5845 3.80317 13.5845C3.62795 13.5845 3.45445 13.5499 3.29258 13.4828C3.13072 13.4157 2.98367 13.3174 2.85984 13.1934C2.73587 13.0696 2.63752 12.9225 2.57042 12.7607C2.50333 12.5988 2.46879 12.4253 2.46879 12.2501C2.46879 12.0749 2.50333 11.9014 2.57042 11.7395C2.63752 11.5776 2.73587 11.4306 2.85984 11.3067L2.89984 11.2667C3.05353 11.1096 3.15663 10.9101 3.19584 10.6938C3.23505 10.4775 3.20858 10.2545 3.11984 10.0534C3.03533 9.85624 2.89501 9.68807 2.71615 9.56962C2.53729 9.45117 2.3277 9.3876 2.11317 9.38675H1.99984C1.64622 9.38675 1.30708 9.24627 1.05703 8.99622C0.80698 8.74618 0.666504 8.40704 0.666504 8.05341C0.666504 7.69979 0.80698 7.36065 1.05703 7.11061C1.30708 6.86056 1.64622 6.72008 1.99984 6.72008H2.05984C2.2805 6.71492 2.49451 6.64349 2.67404 6.51509C2.85357 6.38668 2.99031 6.20724 3.0665 6.00008C3.15525 5.799 3.18172 5.57595 3.14251 5.35969C3.10329 5.14343 3.0002 4.94387 2.8465 4.78675L2.8065 4.74675C2.68254 4.62292 2.58419 4.47587 2.51709 4.314C2.44999 4.15214 2.41546 3.97864 2.41546 3.80341C2.41546 3.62819 2.44999 3.45469 2.51709 3.29283C2.58419 3.13096 2.68254 2.98391 2.8065 2.86008C2.93033 2.73611 3.07739 2.63777 3.23925 2.57067C3.40111 2.50357 3.57462 2.46903 3.74984 2.46903C3.92506 2.46903 4.09856 2.50357 4.26042 2.57067C4.42229 2.63777 4.56934 2.73611 4.69317 2.86008L4.73317 2.90008C4.89029 3.05377 5.08985 3.15687 5.30611 3.19608C5.52237 3.2353 5.74543 3.20882 5.9465 3.12008H5.99984C6.19702 3.03557 6.36518 2.89525 6.48363 2.71639C6.60208 2.53753 6.66565 2.32794 6.6665 2.11341V2.00008C6.6665 1.64646 6.80698 1.30732 7.05703 1.05727C7.30708 0.807224 7.64622 0.666748 7.99984 0.666748C8.35346 0.666748 8.6926 0.807224 8.94265 1.05727C9.19269 1.30732 9.33317 1.64646 9.33317 2.00008V2.06008C9.33403 2.27461 9.39759 2.4842 9.51604 2.66306C9.63449 2.84192 9.80266 2.98224 9.99984 3.06675C10.2009 3.15549 10.424 3.18196 10.6402 3.14275C10.8565 3.10354 11.0561 3.00044 11.2132 2.84675L11.2532 2.80675C11.377 2.68278 11.5241 2.58443 11.6859 2.51734C11.8478 2.45024 12.0213 2.4157 12.1965 2.4157C12.3717 2.4157 12.5452 2.45024 12.7071 2.51734C12.869 2.58443 13.016 2.68278 13.1398 2.80675C13.2638 2.93058 13.3622 3.07763 13.4293 3.23949C13.4963 3.40136 13.5309 3.57486 13.5309 3.75008C13.5309 3.9253 13.4963 4.0988 13.4293 4.26067C13.3622 4.42253 13.2638 4.56958 13.1398 4.69341L13.0998 4.73341C12.9461 4.89053 12.843 5.09009 12.8038 5.30636C12.7646 5.52262 12.7911 5.74567 12.8798 5.94675V6.00008C12.9643 6.19726 13.1047 6.36543 13.2835 6.48388C13.4624 6.60233 13.672 6.66589 13.8865 6.66675H13.9998C14.3535 6.66675 14.6926 6.80722 14.9426 7.05727C15.1927 7.30732 15.3332 7.64646 15.3332 8.00008C15.3332 8.3537 15.1927 8.69284 14.9426 8.94289C14.6926 9.19294 14.3535 9.33341 13.9998 9.33341H13.9398C13.7253 9.33427 13.5157 9.39784 13.3369 9.51629C13.158 9.63474 13.0177 9.8029 12.9332 10.0001Z"
      stroke="currentColor" stroke-width="1.33333" stroke-linecap="round" stroke-linejoin="round" />
  </g>
</svg>