<svg viewBox="0 0 16 16" fill="none" xmlns="http://www.w3.org/2000/svg">
  <path
    d="M15.1015 5.30222C15.1953 5.55716 15.1162 5.84139 14.914 6.02307L13.6452 7.17759C13.6774 7.4208 13.695 7.66987 13.695 7.92188C13.695 8.17388 13.6774 8.42295 13.6452 8.66616L14.914 9.82068C15.1162 10.0024 15.1953 10.2866 15.1015 10.5415C14.9726 10.8902 14.8173 11.2243 14.6385 11.5466L14.5008 11.784C14.3074 12.1063 14.0906 12.411 13.8532 12.6982C13.6803 12.9092 13.3932 12.9795 13.1353 12.8975L11.5032 12.3788C11.1105 12.6806 10.6768 12.9326 10.2138 13.1231L9.84756 14.7963C9.78895 15.0629 9.58384 15.2739 9.31425 15.3179C8.90988 15.3852 8.49378 15.4204 8.06889 15.4204C7.644 15.4204 7.22791 15.3852 6.82353 15.3179C6.55395 15.2739 6.34883 15.0629 6.29022 14.7963L5.92394 13.1231C5.46096 12.9326 5.02728 12.6806 4.63463 12.3788L3.0054 12.9004C2.74754 12.9824 2.46038 12.9092 2.28749 12.7011C2.05014 12.414 1.8333 12.1092 1.6399 11.7869L1.50218 11.5495C1.32343 11.2272 1.16813 10.8932 1.0392 10.5445C0.945431 10.2895 1.02455 10.0053 1.22674 9.82361L2.49554 8.66909C2.46331 8.42295 2.44572 8.17388 2.44572 7.92188C2.44572 7.66987 2.46331 7.4208 2.49554 7.17759L1.22674 6.02307C1.02455 5.84139 0.945431 5.55716 1.0392 5.30222C1.16813 4.95352 1.32343 4.61947 1.50218 4.29714L1.6399 4.05979C1.8333 3.73746 2.05014 3.43272 2.28749 3.14555C2.46038 2.93457 2.74754 2.86425 3.0054 2.94629L4.63756 3.46495C5.03021 3.16313 5.46389 2.91113 5.92687 2.72066L6.29316 1.04749C6.35176 0.780832 6.55688 0.569853 6.82646 0.5259C7.23084 0.455573 7.64693 0.42041 8.07182 0.42041C8.49671 0.42041 8.91281 0.455573 9.31718 0.522969C9.58677 0.566923 9.79189 0.777902 9.85049 1.04456L10.2168 2.71773C10.6798 2.9082 11.1134 3.1602 11.5061 3.46202L13.1382 2.94336C13.3961 2.86132 13.6833 2.93457 13.8562 3.14262C14.0935 3.42979 14.3103 3.73453 14.5037 4.05686L14.6415 4.29421C14.8202 4.61654 14.9755 4.95059 15.1044 5.29929L15.1015 5.30222ZM8.07182 10.2661C8.69354 10.2661 9.2898 10.0191 9.72943 9.57948C10.1691 9.13986 10.416 8.5436 10.416 7.92188C10.416 7.30015 10.1691 6.70389 9.72943 6.26427C9.2898 5.82465 8.69354 5.57767 8.07182 5.57767C7.4501 5.57767 6.85384 5.82465 6.41422 6.26427C5.97459 6.70389 5.72761 7.30015 5.72761 7.92188C5.72761 8.5436 5.97459 9.13986 6.41422 9.57948C6.85384 10.0191 7.4501 10.2661 8.07182 10.2661Z"
    fill="currentColor" />
</svg>