<svg width="100" height="100" viewBox="0 0 40 41" fill="none" xmlns="http://www.w3.org/2000/svg">
            <rect x="0.5" y="1.45947" width="39" height="39" rx="19.5" fill="#1D1D1D" />
            <rect x="0.5" y="1.45947" width="39" height="39" rx="19.5" stroke="#505050" />
            <path
              d="M30.2217 25.6057L26.5046 29.3228L22.7876 25.6057"
              stroke="#C0C0C0"
              strokeWidth="1.5"
              strokeLinecap="round"
              strokeLinejoin="round"
            />
            <path
              d="M20.9293 12.5961L22.7878 12.5961C23.7737 12.5961 24.7191 12.9877 25.4162 13.6848C26.1133 14.3818 26.5049 15.3273 26.5049 16.3131L26.5049 29.3228"
              stroke="#C0C0C0"
              strokeWidth="1.5"
              strokeLinecap="round"
              strokeLinejoin="round"
            />
            <path
              d="M9.77783 16.3131L13.4949 12.5961L17.2119 16.3131"
              stroke="#C0C0C0"
              strokeWidth="1.5"
              strokeLinecap="round"
              strokeLinejoin="round"
            />
            <path
              d="M19.0703 29.3228L17.2118 29.3228C16.226 29.3228 15.2805 28.9311 14.5834 28.2341C13.8864 27.537 13.4948 26.5915 13.4948 25.6057L13.4948 12.5961"
              stroke="#C0C0C0"
              strokeWidth="1.5"
              strokeLinecap="round"
              strokeLinejoin="round"
            />
          </svg>