<svg width="20" height="20" viewBox="0 0 20 20" fill="none" xmlns="http://www.w3.org/2000/svg">
  <path
    d="M17.6249 4.78135C18.0561 4.4376 18.1249 3.80635 17.7811 3.3751C17.4374 2.94385 16.8061 2.8751 16.3749 3.21885L11.9811 6.73447L8.59985 4.2001C8.23423 3.9251 7.7311 3.93447 7.37485 4.21885L2.37485 8.21885C1.94361 8.5626 1.87486 9.19385 2.2186 9.6251C2.56235 10.0563 3.1936 10.1251 3.62485 9.78135L8.0186 6.26572L11.3999 8.8001C11.7655 9.0751 12.2686 9.06572 12.6249 8.78135L17.6249 4.78135ZM6.99985 10.0001V16.0001C6.99985 16.5532 7.44673 17.0001 7.99985 17.0001C8.55298 17.0001 8.99985 16.5532 8.99985 16.0001V10.0001C8.99985 9.44697 8.55298 9.0001 7.99985 9.0001C7.44673 9.0001 6.99985 9.44697 6.99985 10.0001ZM2.99985 13.0001V16.0001C2.99985 16.5532 3.44673 17.0001 3.99985 17.0001C4.55298 17.0001 4.99985 16.5532 4.99985 16.0001V13.0001C4.99985 12.447 4.55298 12.0001 3.99985 12.0001C3.44673 12.0001 2.99985 12.447 2.99985 13.0001ZM11.9999 11.0001C11.4467 11.0001 10.9999 11.447 10.9999 12.0001V16.0001C10.9999 16.5532 11.4467 17.0001 11.9999 17.0001C12.553 17.0001 12.9999 16.5532 12.9999 16.0001V12.0001C12.9999 11.447 12.553 11.0001 11.9999 11.0001ZM14.9999 10.0001V16.0001C14.9999 16.5532 15.4467 17.0001 15.9999 17.0001C16.553 17.0001 16.9999 16.5532 16.9999 16.0001V10.0001C16.9999 9.44697 16.553 9.0001 15.9999 9.0001C15.4467 9.0001 14.9999 9.44697 14.9999 10.0001Z"
    fill="currentColor"/>
</svg>
