<svg viewBox="0 0 16 16" fill="none" xmlns="http://www.w3.org/2000/svg">
  <g>
    <path
      d="M0.499609 6.99998C0.143359 7.61873 0.143359 8.38123 0.499609 8.99998L3.38398 13.9937C3.74023 14.6125 4.40273 14.9937 5.11523 14.9937H10.884C11.5996 14.9937 12.259 14.6125 12.6152 13.9937L15.4996 8.99998C15.8559 8.38123 15.8559 7.61873 15.4996 6.99998L12.6152 2.00623C12.259 1.38748 11.5965 1.00623 10.884 1.00623H5.11523C4.39961 1.00623 3.74023 1.38748 3.38398 2.00623L0.499609 6.99998ZM1.36523 8.49998C1.18711 8.1906 1.18711 7.80935 1.36523 7.49998L4.24961 2.50623C4.42773 2.19685 4.75898 2.00623 5.11523 2.00623H10.884C11.2402 2.00623 11.5715 2.19685 11.7496 2.50623L14.634 7.49998C14.8121 7.80935 14.8121 8.1906 14.634 8.49998L11.7496 13.4937C11.5715 13.8031 11.2402 13.9937 10.884 13.9937H5.11523C4.75898 13.9937 4.42773 13.8031 4.24961 13.4937L1.36523 8.49998Z"
      fill="currentColor" />
  </g>
</svg>