<svg viewBox="0 0 12 13" fill="none" xmlns="http://www.w3.org/2000/svg">
  <path
    d="M2.0625 1.25C0.923438 1.25 0 2.17344 0 3.3125V9.6875C0 10.8266 0.923438 11.75 2.0625 11.75H9.9375C11.0766 11.75 12 10.8266 12 9.6875V5.5625C12 4.42344 11.0766 3.5 9.9375 3.5H2.8125C2.50078 3.5 2.25 3.75078 2.25 4.0625C2.25 4.37422 2.50078 4.625 2.8125 4.625H9.9375C10.4555 4.625 10.875 5.04453 10.875 5.5625V9.6875C10.875 10.2055 10.4555 10.625 9.9375 10.625H2.0625C1.54453 10.625 1.125 10.2055 1.125 9.6875V3.3125C1.125 2.79453 1.54453 2.375 2.0625 2.375H10.6875C10.9992 2.375 11.25 2.12422 11.25 1.8125C11.25 1.50078 10.9992 1.25 10.6875 1.25H2.0625ZM9 8.375C9.19891 8.375 9.38968 8.29598 9.53033 8.15533C9.67098 8.01468 9.75 7.82391 9.75 7.625C9.75 7.42609 9.67098 7.23532 9.53033 7.09467C9.38968 6.95402 9.19891 6.875 9 6.875C8.80109 6.875 8.61032 6.95402 8.46967 7.09467C8.32902 7.23532 8.25 7.42609 8.25 7.625C8.25 7.82391 8.32902 8.01468 8.46967 8.15533C8.61032 8.29598 8.80109 8.375 9 8.375Z"
    fill="currentColor" />
</svg>