<svg viewBox="0 0 90 26" fill="none" xmlns="http://www.w3.org/2000/svg">
  <path d="M23.5685 25.6001H19.832V7.41727H23.5685V25.6001Z" fill="#190066" />
  <path
    d="M37.07 7.05969C39.1326 7.05969 40.8177 7.78295 42.1233 9.22946C43.4271 10.676 44.0808 12.5151 44.0808 14.745V25.5976H40.3443V15.3142C40.3443 13.9147 39.8935 12.7574 38.9917 11.8444C38.09 10.9315 36.976 10.475 35.6479 10.475C34.1525 10.475 32.9314 10.9315 31.9827 11.8444C31.0341 12.7574 30.5588 13.9147 30.5588 15.3142V25.5976H26.8223V7.41662H30.5588V12.1131C31.0566 10.5482 31.8813 9.31399 33.0329 8.41227C34.1826 7.51055 35.5295 7.05969 37.0718 7.05969H37.07Z"
    fill="#190066" />
  <path
    d="M55.7298 7.05969C58.6472 7.05969 61.0199 8.10419 62.8459 10.1913C64.6719 12.2803 65.4195 14.8051 65.087 17.7714H50.0358C50.2969 19.2423 50.9732 20.4352 52.0647 21.3482C53.1561 22.2612 54.4711 22.7177 56.0135 22.7177C57.1988 22.7177 58.2602 22.4265 59.1977 21.846C60.1351 21.2656 60.864 20.4766 61.3862 19.479L64.5178 20.8673C63.7119 22.4096 62.5603 23.642 61.0669 24.5681C59.5734 25.4943 57.8526 25.9564 55.9064 25.9564C53.1787 25.9564 50.8887 25.0547 49.0383 23.2531C47.1879 21.4515 46.2617 19.2085 46.2617 16.5278C46.2617 13.847 47.1691 11.6002 48.9838 9.78364C50.7985 7.96893 53.0453 7.06157 55.7279 7.06157L55.7298 7.05969ZM55.7298 10.2984C54.3528 10.2984 53.1618 10.7192 52.153 11.5627C51.1442 12.4043 50.4735 13.5014 50.1429 14.8539H61.3167C61.0086 13.5014 60.3492 12.4043 59.3423 11.5627C58.3335 10.7211 57.1293 10.2984 55.7298 10.2984Z"
    fill="#190066" />
  <path
    d="M75.418 7.05963C77.6009 7.05963 79.3799 7.62884 80.755 8.76727C82.1302 9.90569 82.8196 11.5438 82.8196 13.6779V25.5994H79.0831V20.7602C77.9672 24.2243 75.7261 25.9563 72.3578 25.9563C70.791 25.9563 69.4873 25.4886 68.4428 24.5511C67.3983 23.6137 66.8779 22.387 66.8779 20.8691C66.8779 19.0901 67.5054 17.7544 68.764 16.8658C70.0208 15.9773 71.6232 15.425 73.5676 15.2108L77.0899 14.8539C78.4181 14.7355 79.0831 14.1419 79.0831 13.0749C79.0831 12.1976 78.745 11.4969 78.0687 10.9765C77.3924 10.4542 76.5094 10.1931 75.418 10.1931C74.3265 10.1931 73.359 10.4787 72.5888 11.0479C71.8186 11.6171 71.3264 12.4474 71.1123 13.5389L67.4114 12.6484C67.744 10.9408 68.6325 9.58257 70.0809 8.57377C71.5274 7.56685 73.3064 7.06151 75.418 7.06151V7.05963ZM73.5676 22.9299C75.1099 22.9299 76.4136 22.4133 77.4807 21.382C78.5477 20.3506 79.0812 19.1465 79.0812 17.7694V16.7738C78.7976 17.2491 78.1081 17.544 77.0167 17.6624L73.5657 18.0888C72.664 18.209 71.9464 18.4739 71.4128 18.8891C70.8793 19.3043 70.6126 19.8678 70.6126 20.5798C70.6126 21.2918 70.8793 21.861 71.4128 22.2874C71.9464 22.7139 72.664 22.928 73.5657 22.928L73.5676 22.9299Z"
    fill="#190066" />
  <path d="M17.2586 25.6001H0V7.41727H3.94879V22.0777H17.2586V25.6001Z" fill="#190066" />
  <path
    d="M86.3417 7.05922C88.287 7.05922 89.864 5.48221 89.864 3.53687C89.864 1.59154 88.287 0.0145264 86.3417 0.0145264C84.3963 0.0145264 82.8193 1.59154 82.8193 3.53687C82.8193 5.48221 84.3963 7.05922 86.3417 7.05922Z"
    fill="#190066" />
</svg>