<svg viewBox="0 0 134 25" fill="none" xmlns="http://www.w3.org/2000/svg">
  <path d="M21.8243 23.8736H18.3643V7.03625H21.8243V23.8736Z" fill="#190066" />
  <path
    d="M34.3273 6.70572C36.2373 6.70572 37.7977 7.37546 39.0067 8.71493C40.214 10.0544 40.8194 11.7575 40.8194 13.8223V23.8719H37.3594V14.3494C37.3594 13.0534 36.9419 11.9819 36.1069 11.1364C35.2719 10.291 34.2403 9.86827 33.0104 9.86827C31.6257 9.86827 30.495 10.291 29.6165 11.1364C28.738 11.9819 28.2979 13.0534 28.2979 14.3494V23.8719H24.8379V7.03624H28.2979V11.3852C28.7589 9.93611 29.5226 8.79321 30.5889 7.95821C31.6536 7.12322 32.9008 6.70572 34.329 6.70572H34.3273Z"
    fill="#190066" />
  <path
    d="M51.6063 6.70572C54.3079 6.70572 56.505 7.67292 58.1959 9.60559C59.8867 11.54 60.5791 13.878 60.2712 16.6248H46.3337C46.5755 17.9869 47.2017 19.0915 48.2124 19.9369C49.2231 20.7824 50.4408 21.2051 51.869 21.2051C52.9667 21.2051 53.9495 20.9355 54.8176 20.3979C55.6856 19.8604 56.3606 19.1298 56.8442 18.2061L59.7441 19.4916C58.9978 20.9198 57.9314 22.061 56.5485 22.9186C55.1655 23.7762 53.5721 24.2041 51.7699 24.2041C49.244 24.2041 47.1234 23.3691 45.41 21.7009C43.6965 20.0326 42.8389 17.9556 42.8389 15.4732C42.8389 12.9908 43.6791 10.9103 45.3595 9.22811C47.0399 7.54767 49.1205 6.70746 51.6046 6.70746L51.6063 6.70572ZM51.6063 9.70475C50.3312 9.70475 49.2283 10.0944 48.2942 10.8755C47.36 11.6548 46.739 12.6707 46.4328 13.9232H56.7798C56.4945 12.6707 55.884 11.6548 54.9515 10.8755C54.0174 10.0962 52.9023 9.70475 51.6063 9.70475Z"
    fill="#190066" />
  <path
    d="M69.8368 6.70572C71.8582 6.70572 73.5056 7.23281 74.779 8.28699C76.0523 9.34118 76.6908 10.8581 76.6908 12.8343V23.8736H73.2307V19.3925C72.1974 22.6002 70.1221 24.2041 67.0031 24.2041C65.5523 24.2041 64.345 23.771 63.3778 22.9029C62.4106 22.0349 61.9287 20.8989 61.9287 19.4934C61.9287 17.846 62.5097 16.6091 63.6752 15.7863C64.839 14.9635 66.3229 14.4521 68.1233 14.2537L71.385 13.9232C72.6149 13.8136 73.2307 13.2639 73.2307 12.2758C73.2307 11.4635 72.9176 10.8146 72.2914 10.3327C71.6651 9.84913 70.8475 9.60733 69.8368 9.60733C68.8261 9.60733 67.9303 9.87175 67.217 10.3988C66.5038 10.9259 66.048 11.6948 65.8497 12.7055L62.4228 11.881C62.7307 10.2997 63.5535 9.04197 64.8947 8.10782C66.2342 7.17541 67.8815 6.70746 69.8368 6.70746V6.70572ZM68.1233 21.4017C69.5515 21.4017 70.7588 20.9233 71.7469 19.9683C72.735 19.0132 73.229 17.8982 73.229 16.623V15.7011C72.9663 16.1412 72.3279 16.4143 71.3172 16.5239L68.1216 16.9188C67.2866 17.0301 66.6221 17.2754 66.1281 17.6598C65.634 18.0443 65.387 18.5662 65.387 19.2255C65.387 19.8848 65.634 20.4118 66.1281 20.8067C66.6221 21.2016 67.2866 21.3999 68.1216 21.3999L68.1233 21.4017Z"
    fill="#190066" />
  <path d="M15.9815 23.8736H0V7.03625H3.65659V20.6119H15.9815V23.8736Z" fill="#190066" />
  <path
    d="M79.9531 6.70573C81.7545 6.70573 83.2148 5.24541 83.2148 3.44402C83.2148 1.64263 81.7545 0.182312 79.9531 0.182312C78.1517 0.182312 76.6914 1.64263 76.6914 3.44402C76.6914 5.24541 78.1517 6.70573 79.9531 6.70573Z"
    fill="#190066" />
  <path
    d="M127.82 12.0245C129.45 12.0245 130.811 12.5927 131.902 13.7292C133.009 14.8508 133.562 16.249 133.562 17.9238C133.562 19.5986 133.016 21.0043 131.925 22.1408C130.833 23.2623 129.465 23.8231 127.82 23.8231C125.921 23.8231 124.433 23.0679 123.356 21.5576V23.5988H121.674V7H123.356V14.29C124.433 12.7797 125.921 12.0245 127.82 12.0245ZM127.596 22.2529C128.807 22.2529 129.816 21.8417 130.624 21.0192C131.431 20.1968 131.835 19.165 131.835 17.9238C131.835 16.6826 131.431 15.6508 130.624 14.8283C129.816 14.0059 128.807 13.5946 127.596 13.5946C126.399 13.5946 125.39 14.0134 124.567 14.8508C123.76 15.6732 123.356 16.6976 123.356 17.9238C123.356 19.15 123.76 20.1818 124.567 21.0192C125.39 21.8417 126.399 22.2529 127.596 22.2529Z"
    fill="#190066" />
  <path
    d="M108.879 18.9556V12.2488H110.561V18.9556C110.561 19.9276 110.875 20.7201 111.503 21.3332C112.131 21.9463 112.924 22.2529 113.881 22.2529C114.838 22.2529 115.631 21.9463 116.259 21.3332C116.887 20.7201 117.201 19.9276 117.201 18.9556V12.2488H118.883V18.9556C118.883 20.3912 118.412 21.565 117.47 22.4772C116.528 23.3744 115.331 23.8231 113.881 23.8231C112.43 23.8231 111.234 23.3744 110.292 22.4772C109.35 21.565 108.879 20.3912 108.879 18.9556Z"
    fill="#190066" />
  <path d="M94.7496 23.5988H93V7.89722H94.7496V14.9629H104.372V7.89722H106.122V23.5988H104.372V16.5331H94.7496V23.5988Z"
    fill="#190066" />
</svg>