<svg viewBox="0 0 56 36" fill="none" xmlns="http://www.w3.org/2000/svg">
  <g opacity="0.15">
    <path
      d="M51.6041 6.36304C51.6041 7.67583 50.5571 8.72604 49.2484 8.72604C47.9396 8.72604 46.8926 7.67583 46.8926 6.36304C46.8926 5.05025 47.9396 4 49.2484 4C50.5571 4 51.6041 5.05025 51.6041 6.36304Z"
      fill="#6119EF" stroke="white" stroke-width="7.36428" />
    <path
      d="M5.75853 12.5526C8.89954 12.5526 11.5171 9.92699 11.5171 6.7763C11.5171 3.62561 8.89954 1 5.75853 1C2.61751 1 0 3.62561 0 6.7763C0 9.92699 2.61751 12.5526 5.75853 12.5526Z"
      fill="#190066" />
    <path
      d="M30.6275 6.77662C30.6275 8.0894 29.5805 9.13962 28.2718 9.13962C26.963 9.13962 25.916 8.0894 25.916 6.77662C25.916 5.46383 26.963 4.41357 28.2718 4.41357C29.5805 4.41357 30.6275 5.46383 30.6275 6.77662Z"
      fill="#6119EF" stroke="white" stroke-width="7.36428" />
    <path
      d="M5.75853 35.1326C8.89954 35.1326 11.5171 32.507 11.5171 29.3563C11.5171 26.2056 8.89954 23.5801 5.75853 23.5801C2.61751 23.5801 0 26.2056 0 29.3563C0 32.507 2.61751 35.1326 5.75853 35.1326Z"
      fill="#190066" />
    <path
      d="M30.6275 29.3562C30.6275 30.669 29.5805 31.7192 28.2718 31.7192C26.963 31.7192 25.916 30.669 25.916 29.3562C25.916 28.0434 26.963 26.9932 28.2718 26.9932C29.5805 26.9932 30.6275 28.0434 30.6275 29.3562Z"
      fill="#6119EF" stroke="white" stroke-width="7.36428" />
  </g>
</svg>