<svg viewBox="0 0 221 44" fill="none" xmlns="http://www.w3.org/2000/svg">
  <g opacity="0.15">
    <path
      d="M8.71153 11.2903C8.71153 12.6031 7.66455 13.6533 6.35579 13.6533C5.04703 13.6533 4 12.6031 4 11.2903C4 9.9775 5.04703 8.92725 6.35579 8.92725C7.66455 8.92725 8.71153 9.9775 8.71153 11.2903Z"
      fill="#6119EF" stroke="white" stroke-width="7.36428" />
    <path
      d="M28.8659 17.0665C32.007 17.0665 34.6245 14.4409 34.6245 11.2902C34.6245 8.13952 32.007 5.51392 28.8659 5.51392C25.7249 5.51392 23.1074 8.13952 23.1074 11.2902C23.1074 14.4409 25.7249 17.0665 28.8659 17.0665Z"
      fill="#190066" />
    <path
      d="M53.7349 11.2903C53.7349 12.6031 52.6879 13.6533 51.3792 13.6533C50.0704 13.6533 49.0234 12.6031 49.0234 11.2903C49.0234 9.9775 50.0704 8.92725 51.3792 8.92725C52.6879 8.92725 53.7349 9.9775 53.7349 11.2903Z"
      fill="#6119EF" stroke="white" stroke-width="7.36428" />
    <path
      d="M73.8875 17.0665C77.0285 17.0665 79.646 14.4409 79.646 11.2902C79.646 8.13952 77.0285 5.51392 73.8875 5.51392C70.7465 5.51392 68.1289 8.13952 68.1289 11.2902C68.1289 14.4409 70.7465 17.0665 73.8875 17.0665Z"
      fill="#190066" />
    <path
      d="M96.3972 17.0665C99.5382 17.0665 102.156 14.4409 102.156 11.2902C102.156 8.13952 99.5382 5.51392 96.3972 5.51392C93.2562 5.51392 90.6387 8.13952 90.6387 11.2902C90.6387 14.4409 93.2562 17.0665 96.3972 17.0665Z"
      fill="#190066" />
    <path
      d="M118.911 17.0665C122.052 17.0665 124.669 14.4409 124.669 11.2902C124.669 8.13952 122.052 5.51392 118.911 5.51392C115.77 5.51392 113.152 8.13952 113.152 11.2902C113.152 14.4409 115.77 17.0665 118.911 17.0665Z"
      fill="#190066" />
    <path
      d="M141.682 17.0665C144.823 17.0665 147.441 14.4409 147.441 11.2902C147.441 8.13952 144.823 5.51392 141.682 5.51392C138.541 5.51392 135.924 8.13952 135.924 11.2902C135.924 14.4409 138.541 17.0665 141.682 17.0665Z"
      fill="#190066" />
    <path
      d="M172.043 11.2904C172.043 15.7539 168.379 19.4297 163.929 19.4297C159.479 19.4297 155.814 15.7539 155.814 11.2904C155.814 6.82694 159.479 3.15112 163.929 3.15112C168.379 3.15112 172.043 6.82694 172.043 11.2904Z"
      fill="#190066" stroke="white" stroke-width="7.36428" />
    <path
      d="M186.704 17.0665C189.845 17.0665 192.462 14.4409 192.462 11.2902C192.462 8.13952 189.845 5.51392 186.704 5.51392C183.563 5.51392 180.945 8.13952 180.945 11.2902C180.945 14.4409 183.563 17.0665 186.704 17.0665Z"
      fill="#190066" />
    <path
      d="M209.212 17.0665C212.353 17.0665 214.97 14.4409 214.97 11.2902C214.97 8.13952 212.353 5.51392 209.212 5.51392C206.071 5.51392 203.453 8.13952 203.453 11.2902C203.453 14.4409 206.071 17.0665 209.212 17.0665Z"
      fill="#190066" />
    <path
      d="M28.8659 39.6468C32.007 39.6468 34.6245 37.0212 34.6245 33.8705C34.6245 30.7198 32.007 28.0942 28.8659 28.0942C25.7249 28.0942 23.1074 30.7198 23.1074 33.8705C23.1074 37.0212 25.7249 39.6468 28.8659 39.6468Z"
      fill="#190066" />
    <path
      d="M53.7349 33.8698C53.7349 35.1826 52.6879 36.2329 51.3792 36.2329C50.0704 36.2329 49.0234 35.1826 49.0234 33.8698C49.0234 32.5571 50.0704 31.5068 51.3792 31.5068C52.6879 31.5068 53.7349 32.5571 53.7349 33.8698Z"
      fill="#6119EF" stroke="white" stroke-width="7.36428" />
    <path
      d="M73.8875 39.6468C77.0285 39.6468 79.646 37.0212 79.646 33.8705C79.646 30.7198 77.0285 28.0942 73.8875 28.0942C70.7465 28.0942 68.1289 30.7198 68.1289 33.8705C68.1289 37.0212 70.7465 39.6468 73.8875 39.6468Z"
      fill="#190066" />
    <path
      d="M96.3979 45.1603C102.68 45.1603 107.653 40.1717 107.653 33.8703C107.653 27.5689 102.68 22.5803 96.3979 22.5803C90.1159 22.5803 85.1426 27.5689 85.1426 33.8703C85.1426 40.1717 90.1159 45.1603 96.3979 45.1603Z"
      fill="#190066" />
    <path
      d="M118.91 45.1603C125.192 45.1603 130.165 40.1717 130.165 33.8703C130.165 27.5689 125.192 22.5803 118.91 22.5803C112.628 22.5803 107.654 27.5689 107.654 33.8703C107.654 40.1717 112.628 45.1603 118.91 45.1603Z"
      fill="#FCD6FF" />
    <path
      d="M141.682 39.6468C144.823 39.6468 147.441 37.0212 147.441 33.8705C147.441 30.7198 144.823 28.0942 141.682 28.0942C138.541 28.0942 135.924 30.7198 135.924 33.8705C135.924 37.0212 138.541 39.6468 141.682 39.6468Z"
      fill="#190066" />
    <path
      d="M164.193 45.1603C170.475 45.1603 175.448 40.1717 175.448 33.8703C175.448 27.5689 170.475 22.5803 164.193 22.5803C157.911 22.5803 152.938 27.5689 152.938 33.8703C152.938 40.1717 157.911 45.1603 164.193 45.1603Z"
      fill="#190066" />
    <path
      d="M186.704 39.6468C189.845 39.6468 192.462 37.0212 192.462 33.8705C192.462 30.7198 189.845 28.0942 186.704 28.0942C183.563 28.0942 180.945 30.7198 180.945 33.8705C180.945 37.0212 183.563 39.6468 186.704 39.6468Z"
      fill="#190066" />
    <path
      d="M209.212 39.6468C212.353 39.6468 214.97 37.0212 214.97 33.8705C214.97 30.7198 212.353 28.0942 209.212 28.0942C206.071 28.0942 203.453 30.7198 203.453 33.8705C203.453 37.0212 206.071 39.6468 209.212 39.6468Z"
      fill="#190066" />
    <path
      d="M231.726 45.1603C238.008 45.1603 242.981 40.1717 242.981 33.8703C242.981 27.5689 238.008 22.5803 231.726 22.5803C225.444 22.5803 220.471 27.5689 220.471 33.8703C220.471 40.1717 225.444 45.1603 231.726 45.1603Z"
      fill="#190066" />
  </g>
</svg>