<svg width="17" height="17" viewBox="0 0 17 17" fill="none" xmlns="http://www.w3.org/2000/svg">
  <g clip-path="url(#clip0_221_68)">
    <path
      d="M16.4547 8.33203C16.4547 3.91375 12.873 0.332031 8.45471 0.332031C4.03643 0.332031 0.454712 3.91375 0.454712 8.33203C0.454712 12.7503 4.03643 16.332 8.45471 16.332C12.873 16.332 16.4547 12.7503 16.4547 8.33203Z"
      fill="#6CF9D8" />
    <path fill-rule="evenodd" clip-rule="evenodd"
      d="M3.92987 4.54185L4.70952 3.76221L7.82517 6.87786C7.63608 6.95843 7.45894 7.07584 7.30469 7.23009C7.18523 7.34955 7.08787 7.48273 7.0126 7.62457L3.92987 4.54185ZM6.95389 9.05187L3.88379 12.1219L4.66343 12.9016L7.70229 9.86275C7.55929 9.78726 7.42503 9.68934 7.30469 9.56901C7.15135 9.41567 7.03442 9.23971 6.95389 9.05187ZM9.24913 9.86111L12.246 12.858L13.0257 12.0784L9.99585 9.04854C9.91528 9.23763 9.79787 9.41476 9.64362 9.56901C9.52416 9.68847 9.39097 9.78584 9.24913 9.86111ZM9.93736 7.62768L12.9796 4.58544L12.2 3.8058L9.12648 6.87928C9.31432 6.95981 9.49028 7.07675 9.64362 7.23009C9.76395 7.35042 9.86187 7.48468 9.93736 7.62768Z"
      fill="#2D2E33" />
  </g>
  <defs>
    <clipPath id="clip0_221_68">
      <rect width="16" height="16" fill="white" transform="translate(0.454712 0.332031)" />
    </clipPath>
  </defs>
</svg>