<svg width="21" height="17" viewBox="0 0 21 17" fill="none" xmlns="http://www.w3.org/2000/svg">
  <path
    d="M17.6167 1.42787C16.2829 0.801883 14.8568 0.34692 13.3658 0.0878906C13.1827 0.419979 12.9688 0.866636 12.8213 1.22197C11.2364 0.98287 9.66598 0.98287 8.11022 1.22197C7.96277 0.866636 7.74395 0.419979 7.55925 0.0878906C6.06667 0.34692 4.63892 0.803543 3.30517 1.43119C0.614973 5.50923 -0.114296 9.48602 0.250339 13.4063C2.03462 14.743 3.76379 15.5549 5.4638 16.0862C5.88353 15.5068 6.25789 14.8908 6.5804 14.2415C5.96619 14.0074 5.37791 13.7185 4.82204 13.383C4.96951 13.2735 5.11375 13.1589 5.25312 13.041C8.64344 14.6317 12.327 14.6317 15.6768 13.041C15.8178 13.1589 15.962 13.2735 16.1079 13.383C15.5504 13.7201 14.9605 14.009 14.3463 14.2432C14.6688 14.8908 15.0415 15.5084 15.4629 16.0879C17.1645 15.5566 18.8953 14.7446 20.6796 13.4063C21.1074 8.86168 19.9487 4.92143 17.6167 1.42787ZM7.04226 10.9954C6.02453 10.9954 5.18992 10.0422 5.18992 8.88162C5.18992 7.72095 6.0067 6.76621 7.04226 6.76621C8.07783 6.76621 8.91241 7.71928 8.89459 8.88162C8.89625 10.0422 8.07783 10.9954 7.04226 10.9954ZM13.8877 10.9954C12.8699 10.9954 12.0353 10.0422 12.0353 8.88162C12.0353 7.72095 12.8521 6.76621 13.8877 6.76621C14.9232 6.76621 15.7578 7.71928 15.74 8.88162C15.74 10.0422 14.9232 10.9954 13.8877 10.9954Z"
    fill="#121212" />
</svg>
  