<svg width="752" height="689" viewBox="0 0 752 689" fill="none" xmlns="http://www.w3.org/2000/svg">
<path d="M128.889 0H613.333V688.889H542.222V373.333H541.525C533.665 286.121 460.369 217.777 371.111 217.777C281.853 217.777 208.557 286.121 200.697 373.333H200V688.889H128.889V0Z" fill="black"/>
<path d="M0 97.777L28.889 195.555H53.333V591.111C41.06 591.111 31.111 601.06 31.111 613.333V640H26.667C14.394 640 4.44398 649.949 4.44398 662.222V688.889H253.333V662.222C253.333 649.949 243.384 640 231.111 640H226.667V613.333C226.667 601.06 216.717 591.111 204.444 591.111H177.778V97.777H0Z" fill="black"/>
<path d="M546.667 591.111C534.394 591.111 524.444 601.06 524.444 613.333V640H520C507.727 640 497.778 649.949 497.778 662.222V688.889H746.667V662.222C746.667 649.949 736.717 640 724.444 640H720V613.333C720 601.06 710.051 591.111 697.778 591.111V195.555H722.222L751.111 97.777H573.333V591.111H546.667Z" fill="black"/>
</svg>
