<svg width="24" height="17" viewBox="0 0 24 17" fill="none" xmlns="http://www.w3.org/2000/svg">
  <path
    d="M22.9362 3.54026C22.9362 3.54026 22.714 1.97181 22.0298 1.28311C21.1634 0.376699 20.1947 0.372256 19.7504 0.318937C16.5691 0.0878905 11.7926 0.0878906 11.7926 0.0878906H11.7837C11.7837 0.0878906 7.0073 0.0878905 3.82596 0.318937C3.38164 0.372256 2.41302 0.376699 1.54659 1.28311C0.862338 1.97181 0.644621 3.54026 0.644621 3.54026C0.644621 3.54026 0.413574 5.3842 0.413574 7.22369V8.94765C0.413574 10.7871 0.640178 12.6311 0.640178 12.6311C0.640178 12.6311 0.862338 14.1995 1.54215 14.8882C2.40858 15.7946 3.54604 15.7635 4.05256 15.8613C5.87428 16.0346 11.7882 16.0879 11.7882 16.0879C11.7882 16.0879 16.5691 16.079 19.7504 15.8524C20.1947 15.7991 21.1634 15.7946 22.0298 14.8882C22.714 14.1995 22.9362 12.6311 22.9362 12.6311C22.9362 12.6311 23.1628 10.7916 23.1628 8.94765V7.22369C23.1628 5.3842 22.9362 3.54026 22.9362 3.54026ZM9.43773 11.0404V4.64662L15.5827 7.85462L9.43773 11.0404Z"
    fill="#121212" />
</svg>
  