<svg width="22" height="16" viewBox="0 0 22 16" fill="none" xmlns="http://www.w3.org/2000/svg">
<path d="M17.9647 1.33998C16.6309 0.713992 15.2048 0.259029 13.7139 0C13.5307 0.332088 13.3168 0.778745 13.1693 1.13408C11.5844 0.894979 10.014 0.894979 8.45825 1.13408C8.31079 0.778745 8.09197 0.332088 7.90727 0C6.41469 0.259029 4.98694 0.715652 3.65319 1.3433C0.962995 5.42134 0.233727 9.39813 0.598361 13.3184C2.38264 14.6551 4.11182 15.467 5.81182 15.9983C6.23156 15.4189 6.60591 14.8029 6.92842 14.1536C6.31421 13.9195 5.72593 13.6306 5.17006 13.2951C5.31754 13.1856 5.46177 13.071 5.60115 12.9531C8.99146 14.5438 12.675 14.5438 16.0249 12.9531C16.1658 13.071 16.3101 13.1856 16.4559 13.2951C15.8984 13.6322 15.3085 13.9211 14.6943 14.1553C15.0168 14.8029 15.3895 15.4205 15.8109 16C17.5125 15.4687 19.2433 14.6567 21.0276 13.3184C21.4555 8.77379 20.2967 4.83354 17.9647 1.33998ZM7.39028 10.9075C6.37255 10.9075 5.53794 9.95433 5.53794 8.79373C5.53794 7.63306 6.35472 6.67832 7.39028 6.67832C8.42586 6.67832 9.26043 7.63139 9.24261 8.79373C9.24427 9.95433 8.42586 10.9075 7.39028 10.9075ZM14.2357 10.9075C13.218 10.9075 12.3833 9.95433 12.3833 8.79373C12.3833 7.63306 13.2001 6.67832 14.2357 6.67832C15.2712 6.67832 16.1059 7.63139 16.088 8.79373C16.088 9.95433 15.2712 10.9075 14.2357 10.9075Z" fill="#C0C0C0"/>
</svg>
