<svg width="20" height="16" viewBox="0 0 20 16" fill="none" xmlns="http://www.w3.org/2000/svg">
<path d="M6.26484 16C13.6938 16 17.7583 9.84369 17.7583 4.50658C17.7583 4.33351 17.7544 4.15659 17.7467 3.98352C18.5374 3.41173 19.2197 2.70348 19.7617 1.89206C19.0253 2.21968 18.2435 2.43365 17.4429 2.52665C18.2858 2.02137 18.917 1.22761 19.2194 0.292501C18.4264 0.762466 17.5591 1.09399 16.6548 1.27285C16.0456 0.625448 15.24 0.196792 14.3626 0.0531537C13.4853 -0.0904844 12.585 0.0588966 11.8011 0.478201C11.0172 0.897505 10.3932 1.56338 10.0257 2.37287C9.65814 3.18236 9.56751 4.09039 9.76779 4.95656C8.16207 4.87598 6.59121 4.45886 5.15705 3.73224C3.72288 3.00561 2.45742 1.98571 1.44271 0.738639C0.92698 1.62782 0.769166 2.68001 1.00134 3.68136C1.23352 4.68271 1.83826 5.5581 2.69266 6.12959C2.05123 6.10923 1.42384 5.93653 0.862347 5.62577V5.67576C0.861772 6.60889 1.18436 7.51342 1.77529 8.2356C2.36621 8.95777 3.18899 9.45302 4.10377 9.63716C3.50958 9.79973 2.88595 9.82342 2.28114 9.70638C2.53927 10.5089 3.04151 11.2108 3.71775 11.7141C4.39399 12.2174 5.21049 12.497 6.05331 12.514C4.62245 13.6379 2.85493 14.2476 1.03542 14.2447C0.712742 14.2442 0.390384 14.2244 0.0700684 14.1855C1.9185 15.3713 4.06872 16.0011 6.26484 16Z" fill="#C0C0C0"/>
</svg>
