<svg width="24" height="16" viewBox="0 0 24 16" fill="none" xmlns="http://www.w3.org/2000/svg">
<path d="M23.2842 3.45237C23.2842 3.45237 23.0621 1.88392 22.3778 1.19522C21.5114 0.288809 20.5428 0.284365 20.0984 0.231047C16.9171 -1.27121e-07 12.1407 0 12.1407 0H12.1318C12.1318 0 7.35532 -1.27121e-07 4.17398 0.231047C3.72966 0.284365 2.76104 0.288809 1.89462 1.19522C1.21036 1.88392 0.992644 3.45237 0.992644 3.45237C0.992644 3.45237 0.761597 5.29631 0.761597 7.1358V8.85976C0.761597 10.6992 0.9882 12.5432 0.9882 12.5432C0.9882 12.5432 1.21036 14.1116 1.89017 14.8003C2.7566 15.7067 3.89406 15.6756 4.40059 15.7734C6.2223 15.9467 12.1362 16 12.1362 16C12.1362 16 16.9171 15.9911 20.0984 15.7645C20.5428 15.7112 21.5114 15.7067 22.3778 14.8003C23.0621 14.1116 23.2842 12.5432 23.2842 12.5432C23.2842 12.5432 23.5108 10.7037 23.5108 8.85976V7.1358C23.5108 5.29631 23.2842 3.45237 23.2842 3.45237ZM9.78576 10.9525V4.55873L15.9307 7.76673L9.78576 10.9525Z" fill="#C0C0C0"/>
</svg>
