<svg width="132" height="369" viewBox="0 0 132 369" fill="none" xmlns="http://www.w3.org/2000/svg">
<path d="M-35.8008 349.975L-35.8008 335.107L-17.1932 335.107L-17.1932 349.93L-2.32507 349.93L-2.32507 335.062L-17.1932 335.062L-17.1932 316.454L-2.32507 316.454L-2.32507 282.979L16.2827 282.979L16.2827 268.111L-2.32507 268.111L-2.32507 249.503L16.2827 249.503L16.2827 234.68L31.1506 234.68L31.1506 249.548L16.2827 249.548L16.2827 268.111L31.1506 268.111L31.1506 335.062L49.7586 335.062L49.7586 349.93L31.1506 349.93L31.1506 368.538L-17.1932 368.538L-17.1932 349.975L-35.8008 349.975Z" fill="#61DFFF"/>
<path d="M31.1506 216.072L31.1506 201.204L49.7586 201.204L49.7586 167.728L64.6267 167.728L64.6267 201.204L49.7586 201.204L49.7586 216.072L31.1506 216.072Z" fill="#61DFFF"/>
<path d="M64.852 134.072L64.852 148.941L83.4597 148.941L83.4597 134.072L64.852 134.072Z" fill="#61DFFF"/>
<path d="M116.935 33.7798L116.935 48.648L131.803 48.648L131.803 33.7798L116.935 33.7798Z" fill="#61DFFF"/>
<path d="M116.935 0.304681L116.935 15.1724L131.803 15.1724L131.803 0.30468L116.935 0.304681Z" fill="#61DFFF"/>
</svg>
