<svg viewBox="0 0 16 16" fill="none" xmlns="http://www.w3.org/2000/svg">
  <g>
    <path d="M16 0H0V16H16V0Z" fill="#6CF9D8" />
    <path fill-rule="evenodd" clip-rule="evenodd"
      d="M3.47576 4.20983L4.25541 3.43018L7.37104 6.54585C7.18199 6.6264 7.00484 6.7438 6.85059 6.89805C6.73114 7.0175 6.63374 7.1507 6.55849 7.29255L3.47576 4.20983ZM6.49979 8.71985L3.42969 11.79L4.20931 12.5696L7.24819 9.5307C7.10519 9.45525 6.97094 9.3573 6.85059 9.237C6.69724 9.08365 6.58029 8.9077 6.49979 8.71985ZM8.79504 9.5291L11.7919 12.526L12.5716 11.7464L9.54174 8.7165C9.46119 8.9056 9.34374 9.08275 9.18949 9.237C9.07004 9.35645 8.93684 9.4538 8.79504 9.5291ZM9.48324 7.29565L12.5255 4.2534L11.7458 3.47378L8.67239 6.54725C8.86019 6.6278 9.03619 6.7447 9.18949 6.89805C9.30984 7.0184 9.40774 7.15265 9.48324 7.29565Z"
      fill="#2D2E33" />
  </g>
</svg>