<svg width="89" height="20" viewBox="0 0 89 20" fill="none" xmlns="http://www.w3.org/2000/svg">
<path d="M27.1699 4.09375H29.4199V13.75H34.9512V15.9062H27.1699V4.09375Z" fill="white"></path>
<path d="M44.7867 4.09375H47.0367V15.9062H44.7867V4.09375Z" fill="white"></path>
<path d="M57.8075 4.09375H61.5575C62.3325 4.09375 63.07 4.25625 63.77 4.58125C64.47 4.89375 65.0888 5.31875 65.6263 5.85625C66.1638 6.39375 66.5888 7.01875 66.9013 7.73125C67.2138 8.44375 67.37 9.2 67.37 10C67.37 10.8 67.2138 11.5562 66.9013 12.2688C66.5888 12.9812 66.1638 13.6063 65.6263 14.1438C65.0888 14.6813 64.47 15.1125 63.77 15.4375C63.07 15.75 62.3325 15.9062 61.5575 15.9062H57.8075V4.09375ZM61.5575 13.75C62.02 13.75 62.4638 13.65 62.8888 13.45C63.3263 13.25 63.7075 12.9812 64.0325 12.6438C64.37 12.3062 64.6325 11.9125 64.82 11.4625C65.02 11 65.12 10.5125 65.12 10C65.12 9.4875 65.02 9.00625 64.82 8.55625C64.6325 8.09375 64.37 7.69375 64.0325 7.35625C63.7075 7.01875 63.3263 6.75 62.8888 6.55C62.4638 6.35 62.02 6.25 61.5575 6.25H60.0575V13.75H61.5575Z" fill="white"></path>
<path d="M82.5559 16C81.7809 16 81.0434 15.85 80.3434 15.55C79.6559 15.2375 79.0496 14.8125 78.5246 14.275C78.0121 13.725 77.5997 13.0875 77.2872 12.3625C76.9872 11.6375 76.8372 10.85 76.8372 10C76.8372 9.1625 76.9872 8.38125 77.2872 7.65625C77.5997 6.91875 78.0121 6.28125 78.5246 5.74375C79.0496 5.19375 79.6559 4.76875 80.3434 4.46875C81.0434 4.15625 81.7809 4 82.5559 4C83.3309 4 84.0622 4.15625 84.7497 4.46875C85.4497 4.76875 86.0559 5.19375 86.5684 5.74375C87.0934 6.28125 87.5059 6.91875 87.8059 7.65625C88.1184 8.38125 88.2746 9.1625 88.2746 10C88.2746 10.85 88.1184 11.6375 87.8059 12.3625C87.5059 13.0875 87.0934 13.725 86.5684 14.275C86.0559 14.8125 85.4497 15.2375 84.7497 15.55C84.0622 15.85 83.3309 16 82.5559 16ZM82.5559 13.8438C83.0184 13.8438 83.4622 13.75 83.8871 13.5625C84.3121 13.375 84.6809 13.1125 84.9934 12.775C85.3059 12.425 85.5559 12.0188 85.7434 11.5563C85.9309 11.0812 86.0247 10.5625 86.0247 10C86.0247 9.4375 85.9309 8.925 85.7434 8.4625C85.5559 7.9875 85.3059 7.58125 84.9934 7.24375C84.6809 6.89375 84.3121 6.625 83.8871 6.4375C83.4622 6.25 83.0184 6.15625 82.5559 6.15625C82.0809 6.15625 81.6309 6.25 81.2059 6.4375C80.7934 6.625 80.4309 6.89375 80.1184 7.24375C79.8059 7.58125 79.5559 7.9875 79.3684 8.4625C79.1809 8.925 79.0872 9.4375 79.0872 10C79.0872 10.5625 79.1809 11.0812 79.3684 11.5563C79.5559 12.0188 79.8059 12.425 80.1184 12.775C80.4309 13.1125 80.7934 13.375 81.2059 13.5625C81.6309 13.75 82.0809 13.8438 82.5559 13.8438Z" fill="white"></path>
<path fill-rule="evenodd" clip-rule="evenodd" d="M7.00529 0L11.954 7.74771L7.00502 10.6324L2.05668 7.74763L7.00529 0ZM3.57156 7.38126L7.00529 2.00535L10.439 7.38128L7.00506 9.3829L3.57156 7.38126Z" fill="white"></path>
<path d="M6.99796 12.3353L1.25737 8.98872L1.1006 9.23415C-0.667488 12.0023 -0.272613 15.6276 2.04997 17.9502C4.78308 20.6833 9.21433 20.6833 11.9474 17.9502C14.27 15.6276 14.6649 12.0023 12.8968 9.23415L12.74 8.98865L6.9982 12.3355L6.99796 12.3353Z" fill="white"></path>
</svg>
