<svg width="215" height="45" viewBox="0 0 215 45" fill="none" xmlns="http://www.w3.org/2000/svg">
<path d="M28.7521 31.3524H24.1938V9.17065H28.7521V31.3524Z" fill="white"/>
<path d="M45.2229 8.73523C47.7392 8.73523 49.7949 9.61755 51.3877 11.3822C52.9781 13.1468 53.7757 15.3904 53.7757 18.1107V31.3501H49.2174V18.8051C49.2174 17.0978 48.6674 15.6861 47.5673 14.5723C46.4673 13.4585 45.1083 12.9016 43.488 12.9016C41.6638 12.9016 40.1742 13.4585 39.0168 14.5723C37.8595 15.6861 37.2797 17.0978 37.2797 18.8051V31.3501H32.7214V9.17066H37.2797V14.9C37.887 12.991 38.8931 11.4853 40.2979 10.3853C41.7005 9.28525 43.3437 8.73523 45.2252 8.73523H45.2229Z" fill="white"/>
<path d="M67.9867 8.73523C71.5457 8.73523 74.4402 10.0094 76.6678 12.5556C78.8953 15.104 79.8074 18.1841 79.4018 21.8027H61.0404C61.3589 23.5972 62.184 25.0524 63.5155 26.1662C64.847 27.28 66.4512 27.8369 68.3327 27.8369C69.7788 27.8369 71.0736 27.4817 72.2172 26.7735C73.3608 26.0654 74.25 25.1028 74.8871 23.8859L78.7074 25.5795C77.7243 27.461 76.3194 28.9644 74.4975 30.0942C72.6756 31.2241 70.5763 31.7878 68.2021 31.7878C64.8745 31.7878 62.0808 30.6878 59.8235 28.49C57.5661 26.2922 56.4363 23.5559 56.4363 20.2856C56.4363 17.0153 57.5432 14.2744 59.757 12.0583C61.9708 9.84443 64.7118 8.73752 67.9844 8.73752L67.9867 8.73523ZM67.9867 12.6862C66.3068 12.6862 64.8538 13.1995 63.6232 14.2285C62.3925 15.2552 61.5744 16.5936 61.171 18.2437H74.8023C74.4264 16.5936 73.622 15.2552 72.3937 14.2285C71.163 13.2018 69.694 12.6862 67.9867 12.6862Z" fill="white"/>
<path d="M92.0042 8.73523C94.6672 8.73523 96.8375 9.42963 98.515 10.8184C100.193 12.2072 101.034 14.2056 101.034 16.809V31.3524H96.4754V25.4489C95.1141 29.6749 92.38 31.7878 88.2709 31.7878C86.3596 31.7878 84.7692 31.2172 83.495 30.0736C82.2207 28.93 81.5859 27.4335 81.5859 25.5818C81.5859 23.4115 82.3514 21.7821 83.8868 20.6981C85.42 19.6141 87.3749 18.9403 89.7468 18.6791L94.0438 18.2437C95.6641 18.0993 96.4754 17.3751 96.4754 16.0734C96.4754 15.0031 96.0629 14.1483 95.2378 13.5135C94.4128 12.8764 93.3357 12.5579 92.0042 12.5579C90.6727 12.5579 89.4924 12.9062 88.5528 13.6006C87.6132 14.295 87.0128 15.3079 86.7515 16.6394L82.2368 15.5532C82.6424 13.47 83.7264 11.813 85.4934 10.5824C87.258 9.354 89.4283 8.73752 92.0042 8.73752V8.73523ZM89.7468 28.0959C91.6283 28.0959 93.2188 27.4656 94.5205 26.2075C95.8222 24.9493 96.4731 23.4803 96.4731 21.8004V20.5858C96.127 21.1656 95.286 21.5254 93.9545 21.6698L89.7445 22.19C88.6445 22.3367 87.7691 22.6598 87.1182 23.1663C86.4673 23.6728 86.1419 24.3603 86.1419 25.2289C86.1419 26.0975 86.4673 26.7918 87.1182 27.3121C87.7691 27.8323 88.6445 28.0936 89.7445 28.0936L89.7468 28.0959Z" fill="white"/>
<path d="M21.0542 31.3524H0V9.17065H4.81724V27.0554H21.0542V31.3524Z" fill="white"/>
<path d="M105.331 8.73514C107.704 8.73514 109.628 6.8113 109.628 4.43813C109.628 2.06495 107.704 0.141113 105.331 0.141113C102.958 0.141113 101.034 2.06495 101.034 4.43813C101.034 6.8113 102.958 8.73514 105.331 8.73514Z" fill="white"/>
<path d="M132.418 19.8254C134.107 19.9731 135.457 20.5324 136.47 21.5032C137.505 22.4528 138.022 23.6769 138.022 25.1753C138.022 26.8214 137.42 28.2037 136.217 29.3222C135.035 30.4407 133.516 31 131.659 31H121.845V8.84069H130.709C132.566 8.84069 134.086 9.39995 135.268 10.5185C136.47 11.637 137.072 13.0193 137.072 14.6654C137.072 16.0161 136.65 17.1452 135.806 18.0526C134.983 18.9601 133.854 19.551 132.418 19.8254ZM130.551 11.025H124.283V18.844H130.551C131.775 18.844 132.777 18.4747 133.558 17.7361C134.339 16.9763 134.729 16.0372 134.729 14.9187C134.729 13.8213 134.339 12.9032 133.558 12.1646C132.777 11.4048 131.775 11.025 130.551 11.025ZM124.283 28.8157H131.374C132.577 28.8157 133.569 28.4359 134.35 27.6761C135.13 26.9164 135.521 25.9878 135.521 24.8904C135.521 23.7718 135.13 22.8433 134.35 22.1046C133.569 21.366 132.577 20.9967 131.374 20.9967H124.283V28.8157ZM143.279 14.982V19.2872C143.827 17.4512 144.672 16.1744 145.811 15.4568C146.972 14.7393 148.302 14.5177 149.8 14.7921V17.103C148.006 16.702 146.465 16.9763 145.178 17.926C143.912 18.8546 143.279 20.163 143.279 21.8514V31H140.905V14.982H143.279ZM151.485 10.2336C151.485 9.79038 151.633 9.42106 151.928 9.1256C152.224 8.83014 152.593 8.68241 153.036 8.68241C153.458 8.68241 153.817 8.83014 154.113 9.1256C154.429 9.42106 154.587 9.79038 154.587 10.2336C154.587 10.6556 154.429 11.0144 154.113 11.3099C153.817 11.6053 153.458 11.7531 153.036 11.7531C152.593 11.7531 152.224 11.6053 151.928 11.3099C151.633 11.0144 151.485 10.6556 151.485 10.2336ZM154.208 31H151.833V14.982H154.208V31ZM171.401 19.6354V7.57445H173.775V31H171.401V26.3465C170.852 27.866 169.976 29.0795 168.773 29.987C167.57 30.8734 166.178 31.3166 164.595 31.3166C162.421 31.3166 160.606 30.5252 159.15 28.9424C157.715 27.3595 156.997 25.3758 156.997 22.991C156.997 20.6273 157.715 18.6541 159.15 17.0713C160.606 15.4674 162.421 14.6654 164.595 14.6654C166.178 14.6654 167.57 15.1192 168.773 16.0266C169.976 16.913 170.852 18.1159 171.401 19.6354ZM165.26 29.1006C167.032 29.1006 168.499 28.5203 169.66 27.3595C170.82 26.1988 171.401 24.7426 171.401 22.991C171.401 21.2394 170.82 19.7832 169.66 18.6224C168.499 17.4617 167.032 16.8814 165.26 16.8814C163.634 16.8814 162.252 17.4723 161.113 18.6541C159.994 19.8148 159.435 21.2605 159.435 22.991C159.435 24.7215 159.994 26.1777 161.113 27.3595C162.252 28.5203 163.634 29.1006 165.26 29.1006ZM190.955 19.5721V14.982H193.329V29.3222C193.329 31.6859 192.516 33.6591 190.891 35.2419C189.287 36.8458 187.293 37.6478 184.908 37.6478C183.199 37.6478 181.679 37.2152 180.35 36.3499C179.02 35.5057 178.018 34.3767 177.343 32.9627L179.495 31.9497C180.002 33.026 180.73 33.8807 181.679 34.5138C182.629 35.147 183.705 35.4635 184.908 35.4635C186.618 35.4635 188.053 34.8726 189.214 33.6908C190.374 32.53 190.955 31.0739 190.955 29.3222V26.2199C190.406 27.7183 189.53 28.9107 188.327 29.7971C187.124 30.6834 185.731 31.1266 184.149 31.1266C181.975 31.1266 180.16 30.3458 178.704 28.7841C177.269 27.2013 176.551 25.2386 176.551 22.896C176.551 20.5535 177.269 18.6013 178.704 17.0396C180.16 15.4568 181.975 14.6654 184.149 14.6654C185.731 14.6654 187.124 15.1086 188.327 15.995C189.53 16.8814 190.406 18.0737 190.955 19.5721ZM184.845 28.9424C186.618 28.9424 188.074 28.3725 189.214 27.2329C190.374 26.0722 190.955 24.6266 190.955 22.896C190.955 21.1866 190.374 19.7621 189.214 18.6224C188.074 17.4617 186.618 16.8814 184.845 16.8814C183.199 16.8814 181.806 17.4617 180.666 18.6224C179.548 19.7621 178.989 21.1866 178.989 22.896C178.989 24.6055 179.548 26.0405 180.666 27.2013C181.806 28.362 183.199 28.9424 184.845 28.9424ZM204.367 14.6654C206.836 14.6654 208.862 15.5412 210.445 17.2929C212.049 19.0234 212.756 21.1655 212.566 23.7191H198.479C198.648 25.323 199.292 26.642 200.41 27.6761C201.55 28.6891 202.932 29.1956 204.557 29.1956C205.802 29.1956 206.91 28.8896 207.881 28.2776C208.852 27.6656 209.59 26.8319 210.097 25.7767L212.123 26.6315C211.448 28.0454 210.445 29.185 209.116 30.0503C207.786 30.8945 206.256 31.3166 204.526 31.3166C202.141 31.3166 200.136 30.5252 198.511 28.9424C196.907 27.3384 196.105 25.3547 196.105 22.991C196.105 20.6273 196.896 18.6541 198.479 17.0713C200.062 15.4674 202.025 14.6654 204.367 14.6654ZM204.367 16.7864C202.911 16.7864 201.645 17.2507 200.568 18.1793C199.492 19.1078 198.817 20.3002 198.542 21.7564H210.16C209.928 20.3213 209.274 19.1395 208.198 18.2109C207.142 17.2612 205.866 16.7864 204.367 16.7864Z" fill="white"/>
</svg>
