<svg width="115" height="45" viewBox="0 0 115 45" fill="none" xmlns="http://www.w3.org/2000/svg">
<path d="M28.7521 31.3524H24.1938V9.17065H28.7521V31.3524Z" fill="white"/>
<path d="M45.2229 8.73523C47.7392 8.73523 49.7949 9.61755 51.3877 11.3822C52.9781 13.1468 53.7757 15.3904 53.7757 18.1107V31.3501H49.2174V18.8051C49.2174 17.0978 48.6674 15.6861 47.5673 14.5723C46.4673 13.4585 45.1083 12.9016 43.488 12.9016C41.6638 12.9016 40.1742 13.4585 39.0168 14.5723C37.8595 15.6861 37.2797 17.0978 37.2797 18.8051V31.3501H32.7214V9.17066H37.2797V14.9C37.887 12.991 38.8931 11.4853 40.2979 10.3853C41.7005 9.28525 43.3437 8.73523 45.2252 8.73523H45.2229Z" fill="white"/>
<path d="M67.9867 8.73523C71.5457 8.73523 74.4402 10.0094 76.6678 12.5556C78.8953 15.104 79.8074 18.1841 79.4018 21.8027H61.0404C61.3589 23.5972 62.184 25.0524 63.5155 26.1662C64.847 27.28 66.4512 27.8369 68.3327 27.8369C69.7788 27.8369 71.0736 27.4817 72.2172 26.7735C73.3608 26.0654 74.25 25.1028 74.8871 23.8859L78.7074 25.5795C77.7243 27.461 76.3194 28.9644 74.4975 30.0942C72.6756 31.2241 70.5763 31.7878 68.2021 31.7878C64.8745 31.7878 62.0808 30.6878 59.8235 28.49C57.5661 26.2922 56.4363 23.5559 56.4363 20.2856C56.4363 17.0153 57.5432 14.2744 59.757 12.0583C61.9708 9.84443 64.7118 8.73752 67.9844 8.73752L67.9867 8.73523ZM67.9867 12.6862C66.3068 12.6862 64.8538 13.1995 63.6232 14.2285C62.3925 15.2552 61.5744 16.5936 61.171 18.2437H74.8023C74.4264 16.5936 73.622 15.2552 72.3937 14.2285C71.163 13.2018 69.694 12.6862 67.9867 12.6862Z" fill="white"/>
<path d="M92.0042 8.73523C94.6672 8.73523 96.8375 9.42963 98.515 10.8184C100.193 12.2072 101.034 14.2056 101.034 16.809V31.3524H96.4754V25.4489C95.1141 29.6749 92.38 31.7878 88.2709 31.7878C86.3596 31.7878 84.7692 31.2172 83.495 30.0736C82.2207 28.93 81.5859 27.4335 81.5859 25.5818C81.5859 23.4115 82.3514 21.7821 83.8868 20.6981C85.42 19.6141 87.3749 18.9403 89.7468 18.6791L94.0438 18.2437C95.6641 18.0993 96.4754 17.3751 96.4754 16.0734C96.4754 15.0031 96.0629 14.1483 95.2378 13.5135C94.4128 12.8764 93.3357 12.5579 92.0042 12.5579C90.6727 12.5579 89.4924 12.9062 88.5528 13.6006C87.6132 14.295 87.0128 15.3079 86.7515 16.6394L82.2368 15.5532C82.6424 13.47 83.7264 11.813 85.4934 10.5824C87.258 9.354 89.4283 8.73752 92.0042 8.73752V8.73523ZM89.7468 28.0959C91.6283 28.0959 93.2188 27.4656 94.5205 26.2075C95.8222 24.9493 96.4731 23.4803 96.4731 21.8004V20.5858C96.127 21.1656 95.286 21.5254 93.9545 21.6698L89.7445 22.19C88.6445 22.3367 87.7691 22.6598 87.1182 23.1663C86.4673 23.6728 86.1419 24.3603 86.1419 25.2289C86.1419 26.0975 86.4673 26.7918 87.1182 27.3121C87.7691 27.8323 88.6445 28.0936 89.7445 28.0936L89.7468 28.0959Z" fill="white"/>
<path d="M21.0542 31.3524H0V9.17065H4.81724V27.0554H21.0542V31.3524Z" fill="white"/>
<path d="M105.331 8.73514C107.704 8.73514 109.628 6.8113 109.628 4.43813C109.628 2.06495 107.704 0.141113 105.331 0.141113C102.958 0.141113 101.034 2.06495 101.034 4.43813C101.034 6.8113 102.958 8.73514 105.331 8.73514Z" fill="white"/>
</svg>
