<?xml version="1.0" encoding="UTF-8"?><svg id="Layer_2" xmlns="http://www.w3.org/2000/svg" viewBox="0 0 153.52 141.18"><defs><style>.cls-1{fill:#f5841f;}.cls-2{fill:#c0ad9e;}.cls-3{fill:#d7c1b3;}.cls-4{fill:#cc6228;}.cls-5{fill:#e27625;}.cls-6{fill:#2f343b;}.cls-7{fill:#763e1a;}</style></defs><g id="Layer_2-2"><g><g id="Logos"><g><polygon class="cls-1" points="145.93 0 85.95 44.12 97.11 18.12 145.93 0"/><polygon class="cls-1" points="7.59 0 67.03 44.53 56.41 18.12 7.59 0"/><polygon class="cls-1" points="124.34 102.3 108.38 126.54 142.55 135.89 152.33 102.83 124.34 102.3"/><polygon class="cls-1" points="1.25 102.83 10.97 135.89 45.08 126.54 29.19 102.3 1.25 102.83"/><polygon class="cls-1" points="43.24 61.36 33.75 75.59 67.57 77.12 66.44 40.94 43.24 61.36"/><polygon class="cls-1" points="110.28 61.36 86.73 40.53 85.95 77.12 119.77 75.59 110.28 61.36"/><polygon class="cls-1" points="45.08 126.54 65.55 116.71 47.93 103.06 45.08 126.54"/><polygon class="cls-1" points="87.97 116.71 108.38 126.54 105.59 103.06 87.97 116.71"/><polygon class="cls-1" points="108.38 126.54 87.97 116.71 89.63 129.89 89.46 135.48 108.38 126.54"/><polygon class="cls-1" points="45.08 126.54 64.07 135.48 63.95 129.89 65.55 116.72 45.08 126.54"/><polygon class="cls-1" points="64.42 94.36 47.46 89.42 59.44 83.95 64.42 94.36"/><polygon class="cls-1" points="89.1 94.36 94.08 83.95 106.12 89.42 89.1 94.36"/><polygon class="cls-1" points="45.08 126.54 48.05 102.3 29.19 102.83 45.08 126.54"/><polygon class="cls-1" points="105.47 102.3 108.38 126.54 124.34 102.83 105.47 102.3"/><polygon class="cls-1" points="119.77 75.59 85.96 77.12 89.1 94.36 94.08 83.95 106.12 89.42 119.77 75.59"/><polygon class="cls-1" points="47.46 89.42 59.44 83.95 64.42 94.36 67.57 77.12 33.75 75.59 47.46 89.42"/><polygon class="cls-1" points="33.75 75.6 47.93 103.07 47.46 89.42 33.75 75.6"/><polygon class="cls-1" points="106.12 89.42 105.59 103.06 119.77 75.59 106.12 89.42"/><polygon class="cls-1" points="67.57 77.12 64.42 94.36 68.4 114.71 69.29 87.89 67.57 77.12"/><polygon class="cls-1" points="85.96 77.12 84.29 87.83 85.12 114.71 89.1 94.36 85.96 77.12"/><polygon class="cls-1" points="89.1 94.36 85.12 114.71 87.97 116.71 105.59 103.07 106.12 89.42 89.1 94.36"/><polygon class="cls-1" points="47.46 89.42 47.93 103.07 65.55 116.71 68.4 114.71 64.42 94.36 47.46 89.42"/><polygon class="cls-1" points="89.46 135.48 89.63 129.89 88.09 128.6 65.43 128.6 63.95 129.89 64.07 135.48 45.08 126.54 51.73 131.95 65.19 141.18 88.27 141.18 101.79 131.95 108.38 126.54 89.46 135.48"/><polygon class="cls-1" points="87.97 116.71 85.12 114.71 68.4 114.71 65.55 116.71 63.95 129.89 65.43 128.6 88.09 128.6 89.63 129.89 87.97 116.71"/><polygon class="cls-1" points="148.48 47 153.52 22.65 145.93 0 87.97 42.65 110.28 61.36 141.78 70.47 148.72 62.42 145.69 60.24 150.5 55.89 146.82 53.06 151.62 49.41 148.48 47"/><polygon class="cls-1" points="0 22.65 5.1 47.01 1.84 49.42 6.7 53.07 3.03 55.89 7.83 60.24 4.8 62.42 11.75 70.48 43.24 61.36 65.55 42.65 7.59 0 0 22.65"/><polygon class="cls-1" points="141.78 70.48 110.28 61.36 119.77 75.59 105.59 103.07 124.34 102.83 152.33 102.83 141.78 70.48"/><polygon class="cls-1" points="43.24 61.36 11.75 70.48 1.25 102.83 29.19 102.83 47.93 103.07 33.75 75.59 43.24 61.36"/><polygon class="cls-1" points="85.95 77.12 87.97 42.65 97.11 18.12 56.41 18.12 65.55 42.65 67.57 77.12 68.34 87.95 68.4 114.71 85.12 114.71 85.18 87.95 85.95 77.12"/></g></g><g id="Logos-2"><g><polygon class="cls-5" points="145.93 0 85.95 44.12 97.11 18.12 145.93 0"/><polygon class="cls-5" points="7.59 0 67.03 44.53 56.41 18.12 7.59 0"/><polygon class="cls-5" points="124.34 102.3 108.38 126.54 142.55 135.89 152.33 102.83 124.34 102.3"/><polygon class="cls-5" points="1.25 102.83 10.97 135.89 45.08 126.54 29.19 102.3 1.25 102.83"/><polygon class="cls-5" points="43.24 61.36 33.75 75.59 67.57 77.12 66.44 40.94 43.24 61.36"/><polygon class="cls-5" points="110.28 61.36 86.73 40.53 85.95 77.12 119.77 75.59 110.28 61.36"/><polygon class="cls-5" points="45.08 126.54 65.55 116.71 47.93 103.06 45.08 126.54"/><polygon class="cls-5" points="87.97 116.71 108.38 126.54 105.59 103.06 87.97 116.71"/><polygon class="cls-3" points="108.38 126.54 87.97 116.71 89.63 129.89 89.46 135.48 108.38 126.54"/><polygon class="cls-3" points="45.08 126.54 64.07 135.48 63.95 129.89 65.55 116.72 45.08 126.54"/><polygon class="cls-6" points="64.42 94.36 47.46 89.42 59.44 83.95 64.42 94.36"/><polygon class="cls-6" points="89.1 94.36 94.08 83.95 106.12 89.42 89.1 94.36"/><polygon class="cls-4" points="45.08 126.54 48.05 102.3 29.19 102.83 45.08 126.54"/><polygon class="cls-4" points="105.47 102.3 108.38 126.54 124.34 102.83 105.47 102.3"/><polygon class="cls-4" points="119.77 75.59 85.96 77.12 89.1 94.36 94.08 83.95 106.12 89.42 119.77 75.59"/><polygon class="cls-4" points="47.46 89.42 59.44 83.95 64.42 94.36 67.57 77.12 33.75 75.59 47.46 89.42"/><polygon class="cls-5" points="33.75 75.6 47.93 103.07 47.46 89.42 33.75 75.6"/><polygon class="cls-5" points="106.12 89.42 105.59 103.06 119.77 75.59 106.12 89.42"/><polygon class="cls-5" points="67.57 77.12 64.42 94.36 68.4 114.71 69.29 87.89 67.57 77.12"/><polygon class="cls-5" points="85.96 77.12 84.29 87.83 85.12 114.71 89.1 94.36 85.96 77.12"/><polygon class="cls-1" points="89.1 94.36 85.12 114.71 87.97 116.71 105.59 103.07 106.12 89.42 89.1 94.36"/><polygon class="cls-1" points="47.46 89.42 47.93 103.07 65.55 116.71 68.4 114.71 64.42 94.36 47.46 89.42"/><polygon class="cls-2" points="89.46 135.48 89.63 129.89 88.09 128.6 65.43 128.6 63.95 129.89 64.07 135.48 45.08 126.54 51.73 131.95 65.19 141.18 88.27 141.18 101.79 131.95 108.38 126.54 89.46 135.48"/><polygon class="cls-6" points="87.97 116.71 85.12 114.71 68.4 114.71 65.55 116.71 63.95 129.89 65.43 128.6 88.09 128.6 89.63 129.89 87.97 116.71"/><polygon class="cls-7" points="148.48 47 153.52 22.65 145.93 0 87.97 42.65 110.28 61.36 141.78 70.47 148.72 62.42 145.69 60.24 150.5 55.89 146.82 53.06 151.62 49.41 148.48 47"/><polygon class="cls-7" points="0 22.65 5.1 47.01 1.84 49.42 6.7 53.07 3.03 55.89 7.83 60.24 4.8 62.42 11.75 70.48 43.24 61.36 65.55 42.65 7.59 0 0 22.65"/><polygon class="cls-1" points="141.78 70.48 110.28 61.36 119.77 75.59 105.59 103.07 124.34 102.83 152.33 102.83 141.78 70.48"/><polygon class="cls-1" points="43.24 61.36 11.75 70.48 1.25 102.83 29.19 102.83 47.93 103.07 33.75 75.59 43.24 61.36"/><polygon class="cls-1" points="85.95 77.12 87.97 42.65 97.11 18.12 56.41 18.12 65.55 42.65 67.57 77.12 68.34 87.95 68.4 114.71 85.12 114.71 85.18 87.95 85.95 77.12"/></g></g></g></g></svg>