<svg width="24" height="19" viewBox="0 0 24 19" fill="none" xmlns="http://www.w3.org/2000/svg">
  <path
    d="M9.7443 18.3712C14.7365 18.3712 18.7835 14.3243 18.7835 9.332C18.7835 4.33979 14.7365 0.292786 9.7443 0.292786C4.75208 0.292786 0.705078 4.33979 0.705078 9.332C0.705078 14.3243 4.75208 18.3712 9.7443 18.3712Z"
    fill="#00D1FF" />
  <path
    d="M23.4186 5.6277C23.4112 5.56423 23.4028 5.49975 23.3932 5.43628C23.3647 5.24382 23.3255 5.05244 23.2759 4.86419C23.2103 4.61147 23.1257 4.36191 23.0252 4.12292C22.8592 3.72742 22.6488 3.3552 22.4003 3.01575C22.174 2.70485 21.9138 2.41722 21.6262 2.16026C21.3513 1.91387 21.0509 1.69497 20.7337 1.50991L20.6681 1.4729C20.3699 1.30265 20.0537 1.16095 19.7291 1.05097C19.3717 0.927251 18.9942 0.83948 18.6061 0.792954C18.182 0.74325 17.7538 0.74325 17.3329 0.792954C17.0759 0.822562 16.8179 0.870146 16.5662 0.936768C16.3145 1.00233 16.0661 1.08693 15.8292 1.18633C15.7626 1.21382 15.697 1.24343 15.6325 1.27304C14.6596 1.72458 13.8486 2.44471 13.2775 3.36683C13.2775 3.36683 13.2775 3.36683 13.2775 3.36789L13.2172 3.47152L13.1485 3.5889L13.1464 3.59312C12.588 4.60301 12.3617 5.74086 12.495 6.88183C12.5235 7.13776 12.5722 7.39473 12.6377 7.64746C12.7033 7.89914 12.7879 8.14762 12.8873 8.38556C13.0501 8.77577 13.2595 9.14907 13.5112 9.49484C13.7375 9.80575 13.9977 10.0934 14.2853 10.3482C14.5401 10.5777 14.8182 10.7828 15.1122 10.9605L15.1788 11.0007C15.4961 11.1857 15.8334 11.3412 16.1824 11.4607C16.5472 11.5854 16.9247 11.6711 17.3065 11.7166C17.5201 11.742 17.7358 11.7547 17.9526 11.7547C18.1693 11.7547 18.3702 11.743 18.5786 11.7187C18.8355 11.6891 19.0936 11.6405 19.3474 11.5749C19.5991 11.5093 19.8465 11.4258 20.0834 11.3253C20.15 11.2978 20.2155 11.2682 20.2801 11.2386C21.2529 10.7871 22.064 10.068 22.6329 9.14694V9.14482C22.6329 9.14482 22.635 9.14482 22.635 9.14378L22.7662 8.91958C23.3245 7.90972 23.5508 6.77188 23.4175 5.63086L23.4186 5.6277ZM22.0354 3.1363L17.2335 11.3359C16.9903 11.301 16.7492 11.2492 16.5134 11.1805L21.5469 2.5843C21.7224 2.75561 21.8853 2.94067 22.0354 3.1363ZM20.7052 1.9181C20.9029 2.04394 21.0932 2.18246 21.273 2.33474L16.1623 11.062C15.9423 10.9795 15.7277 10.8822 15.5215 10.7712L20.7052 1.9181ZM18.2846 1.12817L13.6476 9.04541C13.4985 8.81488 13.3695 8.57273 13.2606 8.32317L17.464 1.14403C17.7358 1.11654 18.0107 1.11125 18.2846 1.12817ZM12.8217 6.24948C12.8217 5.38447 13.0385 4.53638 13.4636 3.76866L13.5905 3.55294C14.0526 2.80743 14.685 2.20573 15.4379 1.7838L12.8228 6.24948H12.8217ZM12.8651 6.89561L16.0248 1.49934C16.23 1.4158 16.4425 1.34389 16.6593 1.28679C16.7735 1.25718 16.8888 1.2318 17.0051 1.2096L13.0914 7.89277C13.0533 7.78069 13.0195 7.66754 12.9899 7.55334C12.9328 7.33655 12.8926 7.11556 12.8651 6.89561ZM13.8781 9.37114L18.6812 1.17047C18.9265 1.20642 19.1665 1.25824 19.4002 1.32698L14.3667 9.92311C14.1901 9.75181 14.0272 9.56676 13.8781 9.37218V9.37114ZM14.6416 10.1706L19.7513 1.44541C19.9713 1.52684 20.1859 1.62412 20.3921 1.73621L15.2084 10.5883C15.0107 10.4635 14.8214 10.3239 14.6416 10.1716V10.1706ZM17.6311 11.3772L22.267 3.45988C22.4151 3.6883 22.5441 3.93046 22.6551 4.18215L18.4506 11.3623C18.1767 11.3888 17.9029 11.3951 17.6311 11.3772ZM19.2564 11.2196C19.1412 11.2492 19.0248 11.2756 18.9085 11.2978L22.8233 4.61251C22.8613 4.72567 22.8951 4.83883 22.9258 4.95407C22.9819 5.16981 23.0231 5.38976 23.0506 5.60971L19.8898 11.006C19.6847 11.0895 19.4722 11.1614 19.2564 11.2185V11.2196ZM22.4521 8.73666L22.3252 8.95344C22.2892 9.01159 22.249 9.06764 22.2099 9.12474C22.1729 9.17868 22.1391 9.2347 22.0999 9.28759C22.0555 9.34786 22.0069 9.40496 21.9604 9.46418C21.9244 9.50966 21.8895 9.55723 21.8525 9.60059C21.8007 9.66089 21.7457 9.71691 21.6918 9.77401C21.6548 9.81316 21.6209 9.85439 21.5828 9.89141C21.5247 9.94956 21.4633 10.0035 21.402 10.0585C21.365 10.0923 21.3301 10.1272 21.292 10.16C21.2318 10.2118 21.1673 10.2594 21.1049 10.308C21.0636 10.3398 21.0245 10.3747 20.9822 10.4053C20.9209 10.4497 20.8574 10.4899 20.795 10.5312C20.7474 10.5629 20.702 10.5957 20.6534 10.6253C20.5962 10.6602 20.5359 10.6908 20.4767 10.7247L23.0919 6.25901C23.0929 7.12402 22.8751 7.97211 22.451 8.73875L22.4521 8.73666Z"
    fill="white" />
</svg>