<svg width="90" height="23" viewBox="0 0 90 23" fill="none" xmlns="http://www.w3.org/2000/svg">
  <path
    d="M13.8782 11.6197C14.5811 10.5653 14.9326 9.37433 14.9326 8.08574C14.9326 6.91426 14.6397 5.84044 14.0735 4.8447C13.4877 3.84895 12.7068 3.06798 11.711 2.48224C10.7153 1.91604 9.62191 1.62317 8.46997 1.62317H0.152588V4.35658H8.46997C9.50475 4.35658 10.3833 4.72755 11.1253 5.44995C11.8477 6.17235 12.2187 7.05096 12.2187 8.10528C12.2187 9.15959 11.8477 10.0187 11.1253 10.7606C10.4029 11.483 9.52428 11.8539 8.46997 11.8539H0.152588V21.4014H2.886V14.5873H8.46997C8.48951 14.5873 8.52852 14.5873 8.5676 14.5873C8.60667 14.5873 8.64569 14.5873 8.66523 14.5873L12.2187 21.4209H14.9521L11.1058 14.0212C12.2382 13.4745 13.1558 12.6935 13.8782 11.6197Z"
    fill="#C4FF61" />
  <path
    d="M17.8416 10.1554V12.8888H31.7626V10.1554H17.8416ZM17.8416 18.7461L16.4164 21.4209H31.782V18.7461H17.8416ZM16.4164 1.62317L17.8416 4.35658H31.7626V1.62317H16.4164Z"
    fill="#C4FF61" />
  <path d="M48.4754 1.62312V15.8955L33.8322 0.803101V21.4404H36.5656V7.36327L51.2089 22.3385V1.62312H48.4754Z"
    fill="#C4FF61" />
  <path
    d="M58.7843 14.1188L63.6459 11.2487C64.8957 10.5068 65.8912 9.51103 66.6138 8.24192C67.3364 6.97287 67.6875 5.60615 67.6875 4.14182V1.62317H53.4738V4.35658H64.9738V4.39563C64.9738 5.33281 64.7394 6.2114 64.2711 7.03143C63.8022 7.85147 63.1577 8.49573 62.3576 8.96434L57.5544 11.7954C56.2853 12.5373 55.3091 13.533 54.5671 14.8021C53.8447 16.0712 53.4738 17.4379 53.4738 18.9022V21.4014H67.6875V18.668H56.1877C56.1877 17.7308 56.422 16.8522 56.8906 16.0517C57.3396 15.2317 57.9839 14.5873 58.7843 14.1188Z"
    fill="#C4FF61" />
  <path
    d="M89.6526 12.381C89.6526 12.4005 89.6526 12.4201 89.6526 12.4396C89.2228 17.2035 85.4354 20.9327 80.8077 21.4013C80.7686 21.4013 80.7494 21.4013 80.7103 21.4013L89.6526 12.381Z"
    fill="#C4FF61" />
  <path
    d="M84.0876 2.52124C83.8339 2.4041 83.5802 2.28696 83.3265 2.18934C82.8185 1.99409 82.2919 1.83789 81.7449 1.72075C81.0812 1.58407 80.4175 1.50598 79.7142 1.50598C79.3823 1.50598 79.0505 1.5255 78.7186 1.54503C76.415 1.77932 74.365 2.77507 72.7834 4.29797C72.6854 4.39559 72.5688 4.51274 72.4708 4.61036C70.9673 6.19184 69.991 8.28093 69.7764 10.5653C69.7571 10.8582 69.7373 11.1511 69.7373 11.4634C69.7373 12.2054 69.8155 12.9277 69.9718 13.6306C70.089 14.1578 70.2453 14.6654 70.4401 15.1731C70.5573 15.4464 70.6745 15.7197 70.7917 15.9736C71.0262 16.4226 71.2799 16.8522 71.5726 17.2621L73.2126 15.6026L83.7558 4.94227L85.3963 3.2827C85.0056 3.00936 84.5565 2.75554 84.0876 2.52124ZM72.2562 13.3573C72.2363 13.2987 72.2171 13.2206 72.2171 13.1621C72.0999 12.6154 72.0415 12.0491 72.0415 11.483C72.0415 9.51097 72.7834 7.65615 74.1306 6.23088L74.4035 5.95754C75.8487 4.57131 77.7231 3.80986 79.734 3.80986C80.2612 3.80986 80.7884 3.86843 81.2958 3.96605C81.374 3.98557 81.4521 4.00511 81.5303 4.02463L72.2562 13.3573Z"
    fill="#C4FF61" />
  <path
    d="M76.278 20.8547C76.0243 20.7571 75.7899 20.6595 75.556 20.5618C75.0679 20.3275 74.599 20.0737 74.1499 19.7614L87.9345 5.84045C88.2273 6.26999 88.5008 6.71903 88.7154 7.20717C88.8326 7.46098 88.9498 7.71479 89.0472 7.9686L76.278 20.8547Z"
    fill="#C4FF61" />
</svg>