<svg width="128" height="179" fill="none" xmlns="http://www.w3.org/2000/svg"><g clip-path="url(#prefix__clip0_2203_570)"><path d="M127.574 181.683h4.597v-4.598h-4.597v4.598z" fill="#FF8D4C"/><path d="M122.976 181.683h4.598v-4.598h-4.598v4.598z" fill="#190066"/><path d="M118.379 181.683h4.598v-4.598h-4.598v4.598z" fill="#190066"/><path d="M109.185 181.683h4.598v-4.598h-4.598v4.598z" fill="#6119EF"/><path d="M95.393 181.683h4.597v-4.598h-4.597v4.598z" fill="#190066"/><path d="M90.796 181.683h4.597v-4.598h-4.597v4.598z" fill="#6119EF"/><path d="M88.497 180.39a1.007 1.007 0 010-2.012 1.007 1.007 0 010 2.012zm0 1.293a2.298 2.298 0 100-4.597 2.298 2.298 0 000 4.597z" fill="#FFF068"/><path d="M81.602 181.683h4.597v-4.598h-4.597v4.598zM77.004 181.683h4.598v-4.598h-4.598v4.598zM72.407 181.683h4.597v-4.598h-4.597v4.598zM67.81 181.683h4.597v-4.598H67.81v4.598z" fill="#190066"/><path d="M63.212 181.683h4.598v-4.598h-4.598v4.598z" fill="#FF8D4C"/><path d="M60.914 177.085a2.299 2.299 0 100 4.597 2.299 2.299 0 000-4.597z" fill="#6119EF"/><path d="M54.018 181.683h4.597v-4.598h-4.597v4.598z" fill="#190066"/><path d="M49.42 181.683h4.598v-4.598h-4.597v4.598zM44.823 181.683h4.597v-4.598h-4.597v4.598z" fill="#6119EF"/><path d="M40.226 181.683h4.597v-4.598h-4.597v4.598zM35.628 181.683h4.598v-4.598h-4.598v4.598z" fill="#190066"/><path d="M33.33 177.085a2.299 2.299 0 100 4.597 2.299 2.299 0 000-4.597z" fill="#6119EF"/><path d="M28.733 178.235a1.149 1.149 0 100 2.298 1.149 1.149 0 000-2.298z" fill="#FFBEF1"/><path d="M127.574 177.085h4.597v-4.597h-4.597v4.597z" fill="#190066"/><path d="M122.976 177.085h4.598v-4.597h-4.598v4.597z" fill="#FF8D4C"/><path d="M118.379 177.085h4.598v-4.597h-4.598v4.597z" fill="#190066"/><path d="M113.783 177.085h4.597v-4.597h-4.597v4.597zM109.185 177.085h4.598v-4.597h-4.598v4.597z" fill="#190066"/><path d="M104.588 177.085h4.597v-4.597h-4.597v4.597z" fill="#6119EF"/><path d="M99.99 177.085h4.598v-4.597h-4.597v4.597z" fill="#190066"/><path d="M97.692 172.488a2.299 2.299 0 100 4.597 2.299 2.299 0 000-4.597z" fill="#6119EF"/><path d="M92.327 175.552h1.533v-1.532h-1.533v1.532z" fill="#61DFFF"/><path d="M86.198 177.085h4.597v-4.597h-4.597v4.597z" fill="#190066"/><path d="M81.602 177.085h4.597v-4.597h-4.597v4.597zM77.004 177.085h4.598v-4.597h-4.598v4.597zM72.407 177.085h4.597v-4.597h-4.597v4.597zM67.81 177.085h4.597v-4.597H67.81v4.597z" fill="#190066"/><path d="M63.212 177.085h4.598v-4.597h-4.598v4.597z" fill="#6119EF"/><path d="M58.615 177.085h4.597v-4.597h-4.597v4.597zM54.018 177.085h4.597v-4.597h-4.597v4.597zM49.42 177.085h4.598v-4.597h-4.597v4.597z" fill="#190066"/><path d="M44.823 177.085h4.597v-4.597h-4.597v4.597z" fill="#6119EF"/><path d="M40.226 177.085h4.597v-4.597h-4.597v4.597z" fill="#190066"/><path d="M35.628 177.085h4.598v-4.597h-4.598v4.597z" fill="#FF8D4C"/><path d="M31.031 177.085h4.597v-4.597h-4.597v4.597z" fill="#190066"/><path d="M28.732 172.488a2.299 2.299 0 100 4.597 2.299 2.299 0 000-4.597z" fill="#6119EF"/><path d="M24.135 173.637a1.15 1.15 0 10.001 2.3 1.15 1.15 0 000-2.3z" fill="#FFBEF1"/><path d="M127.574 172.488h4.597v-4.597h-4.597v4.597zM122.976 172.488h4.598v-4.597h-4.598v4.597z" fill="#190066"/><path d="M118.379 172.488h4.598v-4.597h-4.598v4.597z" fill="#190066"/><path d="M113.783 172.488h4.597v-4.597h-4.597v4.597z" fill="#190066"/><path d="M109.185 172.488h4.598v-4.597h-4.598v4.597z" fill="#6119EF"/><path d="M106.887 169.806a.384.384 0 100 .768.384.384 0 000-.768z" fill="#FF8D4C"/><path d="M99.99 172.488h4.598v-4.597h-4.597v4.597z" fill="#6119EF"/><path d="M93.094 169.806a.384.384 0 100 .767.384.384 0 000-.767z" fill="#190066"/><path d="M86.198 172.488h4.597v-4.597h-4.597v4.597z" fill="#6119EF"/><path d="M81.602 172.488h4.597v-4.597h-4.597v4.597zM77.004 172.488h4.598v-4.597h-4.598v4.597zM72.407 172.488h4.597v-4.597h-4.597v4.597zM67.81 172.488h4.597v-4.597H67.81v4.597zM63.212 172.488h4.598v-4.597h-4.598v4.597zM58.615 172.488h4.597v-4.597h-4.597v4.597zM54.018 172.488h4.597v-4.597h-4.597v4.597z" fill="#190066"/><path d="M49.42 172.488h4.598v-4.597h-4.597v4.597z" fill="#FF8D4C"/><path d="M44.823 172.488h4.597v-4.597h-4.597v4.597zM40.226 172.488h4.597v-4.597h-4.597v4.597zM35.628 172.488h4.598v-4.597h-4.598v4.597z" fill="#190066"/><path d="M31.031 172.488h4.597v-4.597h-4.597v4.597z" fill="#6119EF"/><path d="M28.732 167.891a2.298 2.298 0 100 4.597 2.298 2.298 0 000-4.597z" fill="#6119EF"/><path d="M23.368 170.955h1.533v-1.533h-1.533v1.533z" fill="#61DFFF"/><path d="M19.539 167.891a2.298 2.298 0 100 4.597 2.298 2.298 0 000-4.597z" fill="#6119EF"/><path d="M127.574 167.891h4.597v-4.597h-4.597v4.597zM122.976 167.891h4.598v-4.597h-4.598v4.597z" fill="#FF8D4C"/><path d="M118.379 167.891h4.598v-4.597h-4.598v4.597z" fill="#FF8D4C"/><path d="M113.783 167.891h4.597v-4.597h-4.597v4.597zM109.185 167.891h4.598v-4.597h-4.598v4.597zM104.588 167.891h4.597v-4.597h-4.597v4.597zM99.99 167.891h4.598v-4.597h-4.597v4.597zM95.393 167.891h4.597v-4.597h-4.597v4.597z" fill="#190066"/><path d="M90.796 167.891h4.597v-4.597h-4.597v4.597z" fill="#6119EF"/><path d="M86.198 167.891h4.597v-4.597h-4.597v4.597z" fill="#FF8D4C"/><path d="M81.602 167.891h4.597v-4.597h-4.597v4.597zM77.004 167.891h4.598v-4.597h-4.598v4.597z" fill="#6119EF"/><path d="M72.407 167.891h4.597v-4.597h-4.597v4.597z" fill="#190066"/><path d="M67.81 167.891h4.597v-4.597H67.81v4.597zM63.212 167.891h4.598v-4.597h-4.598v4.597z" fill="#6119EF"/><path d="M58.615 167.891h4.597v-4.597h-4.597v4.597z" fill="#FF8D4C"/><path d="M54.018 167.891h4.597v-4.597h-4.597v4.597z" fill="#6119EF"/><path d="M49.42 167.891h4.598v-4.597h-4.597v4.597z" fill="#190066"/><path d="M47.122 163.294a2.298 2.298 0 100 4.597 2.298 2.298 0 000-4.597z" fill="#6119EF"/><path d="M40.226 167.891h4.597v-4.597h-4.597v4.597zM35.628 167.891h4.598v-4.597h-4.598v4.597z" fill="#6119EF"/><path d="M33.33 163.294a2.298 2.298 0 100 4.597 2.298 2.298 0 000-4.597z" fill="#6119EF"/><path d="M28.732 163.294a2.298 2.298 0 100 4.597 2.298 2.298 0 000-4.597z" fill="#6119EF"/><path d="M24.136 163.294a2.298 2.298 0 100 4.597 2.298 2.298 0 000-4.597z" fill="#6119EF"/><path d="M18.771 166.358h1.533v-1.533h-1.533v1.533z" fill="#61DFFF"/><path d="M127.574 163.294h4.597v-4.598h-4.597v4.598z" fill="#190066"/><path d="M122.976 163.294h4.598v-4.598h-4.598v4.598z" fill="#6119EF"/><path d="M118.379 163.294h4.598v-4.598h-4.598v4.598z" fill="#6119EF"/><path d="M113.783 163.294h4.597v-4.598h-4.597v4.598zM109.185 163.294h4.598v-4.598h-4.598v4.598z" fill="#190066"/><path d="M106.886 159.846a1.15 1.15 0 100 2.298 1.15 1.15 0 000-2.298z" fill="#FFBEF1"/><path d="M99.99 163.294h4.598v-4.598h-4.597v4.598zM95.393 163.294h4.597v-4.598h-4.597v4.598z" fill="#190066"/><path d="M90.796 163.294h4.597v-4.598h-4.597v4.598zM86.198 163.294h4.597v-4.598h-4.597v4.598z" fill="#FF8D4C"/><path d="M81.602 163.294h4.597v-4.598h-4.597v4.598z" fill="#190066"/><path d="M79.303 162.001a1.007 1.007 0 111.006-1.006c0 .554-.451 1.006-1.006 1.006zm0 1.293a2.298 2.298 0 100-4.597 2.298 2.298 0 000 4.597z" fill="#FFF068"/><path d="M72.407 163.294h4.597v-4.598h-4.597v4.598z" fill="#FF8D4C"/><path d="M67.81 163.294h4.597v-4.598H67.81v4.598zM63.212 163.294h4.598v-4.598h-4.598v4.598z" fill="#190066"/><path d="M60.914 158.696a2.299 2.299 0 100 4.597 2.299 2.299 0 000-4.597z" fill="#6119EF"/><path d="M56.317 162.001a1.007 1.007 0 111.006-1.006c0 .554-.452 1.006-1.006 1.006zm0 1.293a2.298 2.298 0 100-4.597 2.298 2.298 0 000 4.597z" fill="#FFF068"/><path d="M51.72 158.696a2.299 2.299 0 100 4.597 2.299 2.299 0 000-4.597z" fill="#6119EF"/><path d="M46.355 161.761h1.533v-1.533h-1.533v1.533z" fill="#61DFFF"/><path d="M42.525 158.696a2.299 2.299 0 100 4.597 2.299 2.299 0 000-4.597z" fill="#6119EF"/><path d="M35.628 163.294h4.598v-4.598h-4.598v4.598z" fill="#6119EF"/><path d="M31.031 163.294h4.597v-4.598h-4.597v4.598z" fill="#190066"/><path d="M28.732 158.696a2.299 2.299 0 100 4.597 2.299 2.299 0 000-4.597z" fill="#6119EF"/><path d="M21.837 163.294h4.598v-4.598h-4.598v4.598z" fill="#FF8D4C"/><path d="M17.24 163.294h4.597v-4.598H17.24v4.598z" fill="#190066"/><path d="M118.379 158.696h4.598v-4.597h-4.598v4.597z" fill="#6119EF"/><path d="M113.783 158.696h4.597v-4.597h-4.597v4.597z" fill="#6119EF"/><path d="M109.185 158.696h4.598v-4.597h-4.598v4.597zM104.588 158.696h4.597v-4.597h-4.597v4.597z" fill="#190066"/><path d="M99.99 158.696h4.598v-4.597h-4.597v4.597z" fill="#6119EF"/><path d="M95.393 158.696h4.597v-4.597h-4.597v4.597zM90.796 158.696h4.597v-4.597h-4.597v4.597zM86.198 158.696h4.597v-4.597h-4.597v4.597z" fill="#190066"/><path d="M81.602 158.696h4.597v-4.597h-4.597v4.597zM77.004 158.696h4.598v-4.597h-4.598v4.597z" fill="#190066"/><path d="M73.938 157.163h1.533v-1.533h-1.533v1.533zM69.341 157.163h1.533v-1.533h-1.533v1.533zM64.743 157.163h1.533v-1.533h-1.532v1.533zM60.146 157.163h1.533v-1.533h-1.533v1.533zM55.549 157.163h1.532v-1.533H55.55v1.533zM50.952 157.163h1.533v-1.533h-1.533v1.533zM46.355 157.163h1.533v-1.533h-1.533v1.533z" fill="#61DFFF"/><path d="M42.525 156.014a.384.384 0 100 .768.384.384 0 000-.768z" fill="#FF8D4C"/><path d="M37.16 157.163h1.533v-1.533h-1.532v1.533z" fill="#61DFFF"/><path d="M31.031 158.696h4.597v-4.597h-4.597v4.597zM26.433 158.696h4.598v-4.597h-4.598v4.597z" fill="#190066"/><path d="M21.837 158.696h4.598v-4.597h-4.598v4.597zM17.24 158.696h4.597v-4.597H17.24v4.597z" fill="#190066"/><path d="M14.174 157.163h1.533v-1.533h-1.533v1.533z" fill="#61DFFF"/><path d="M113.783 154.099h4.597v-4.597h-4.597v4.597z" fill="#6119EF"/><path d="M109.185 154.099h4.598v-4.597h-4.598v4.597z" fill="#190066"/><path d="M104.588 154.099h4.597v-4.597h-4.597v4.597zM99.99 154.099h4.598v-4.597h-4.597v4.597z" fill="#6119EF"/><path d="M95.393 154.099h4.597v-4.597h-4.597v4.597z" fill="#190066"/><path d="M90.796 154.099h4.597v-4.597h-4.597v4.597z" fill="#6119EF"/><path d="M86.198 154.099h4.597v-4.597h-4.597v4.597z" fill="#190066"/><path d="M81.602 154.099h4.597v-4.597h-4.597v4.597zM77.004 154.099h4.598v-4.597h-4.598v4.597z" fill="#6119EF"/><path d="M74.705 149.502a2.298 2.298 0 100 4.597 2.298 2.298 0 000-4.597z" fill="#6119EF"/><path d="M70.109 149.502a2.298 2.298 0 100 4.597 2.298 2.298 0 000-4.597z" fill="#6119EF"/><path d="M65.51 152.806a1.007 1.007 0 010-2.011 1.007 1.007 0 010 2.011zm0 1.293a2.298 2.298 0 10.002-4.597 2.298 2.298 0 00-.001 4.597z" fill="#FFF068"/><path d="M60.146 152.566h1.533v-1.533h-1.533v1.533zM55.549 152.566h1.532v-1.533H55.55v1.533zM50.952 152.566h1.533v-1.533h-1.533v1.533zM46.355 152.566h1.533v-1.533h-1.533v1.533z" fill="#61DFFF"/><path d="M42.525 150.651a1.15 1.15 0 100 2.3 1.15 1.15 0 000-2.3z" fill="#FFBEF1"/><path d="M37.16 152.566h1.533v-1.533h-1.532v1.533z" fill="#61DFFF"/><path d="M33.33 149.502a2.298 2.298 0 100 4.597 2.298 2.298 0 000-4.597z" fill="#6119EF"/><path d="M26.433 154.099h4.598v-4.597h-4.598v4.597z" fill="#190066"/><path d="M21.837 154.099h4.598v-4.597h-4.598v4.597zM17.24 154.099h4.597v-4.597H17.24v4.597zM14.941 151.417a.383.383 0 10-.001.766.383.383 0 00.001-.766z" fill="#190066"/><path d="M9.577 152.566h1.533v-1.533H9.577v1.533z" fill="#61DFFF"/><path d="M111.484 146.82a.383.383 0 100 .768.383.383 0 000-.768zM104.588 149.502h4.597v-4.598h-4.597v4.598zM99.99 149.502h4.598v-4.598h-4.597v4.598zM90.796 149.502h4.597v-4.598h-4.597v4.598zM86.198 149.502h4.597v-4.598h-4.597v4.598z" fill="#190066"/><path d="M81.602 149.502h4.597v-4.598h-4.597v4.598zM77.004 149.502h4.598v-4.598h-4.598v4.598zM72.407 149.502h4.597v-4.598h-4.597v4.598zM67.81 149.502h4.597v-4.598H67.81v4.598z" fill="#190066"/><path d="M65.51 148.209a1.007 1.007 0 010-2.012 1.007 1.007 0 010 2.012zm0 1.293a2.298 2.298 0 10.002-4.597 2.298 2.298 0 00-.001 4.597z" fill="#FFF068"/><path d="M60.146 147.969h1.533v-1.533h-1.533v1.533z" fill="#61DFFF"/><path d="M56.316 146.054a1.149 1.149 0 100 2.298 1.149 1.149 0 000-2.298z" fill="#FFBEF1"/><path d="M50.952 147.969h1.533v-1.533h-1.533v1.533z" fill="#61DFFF"/><path d="M47.122 146.82a.383.383 0 10-.001.766.383.383 0 00.001-.766z" fill="#190066"/><path d="M42.525 144.904a2.3 2.3 0 100 4.598 2.3 2.3 0 000-4.598z" fill="#6119EF"/><path d="M37.927 144.904a2.3 2.3 0 10.001 4.599 2.3 2.3 0 00-.001-4.599z" fill="#6119EF"/><path d="M33.33 146.054a1.149 1.149 0 100 2.298 1.149 1.149 0 000-2.298z" fill="#FFBEF1"/><path d="M28.732 144.904a2.3 2.3 0 10.001 4.598 2.3 2.3 0 000-4.598z" fill="#6119EF"/><path d="M21.837 149.502h4.598v-4.598h-4.598v4.598zM17.24 149.502h4.597v-4.598H17.24v4.598z" fill="#190066"/><path d="M14.174 147.969h1.533v-1.533h-1.533v1.533z" fill="#61DFFF"/><path d="M10.344 144.904a2.3 2.3 0 10.001 4.599 2.3 2.3 0 00-.001-4.599z" fill="#6119EF"/><path d="M110.716 143.372h1.533v-1.533h-1.533v1.533z" fill="#61DFFF"/><path d="M104.588 144.904h4.597v-4.597h-4.597v4.597z" fill="#190066"/><path d="M95.393 144.904h4.597v-4.597h-4.597v4.597z" fill="#FF8D4C"/><path d="M90.796 144.904h4.597v-4.597h-4.597v4.597z" fill="#190066"/><path d="M86.198 144.904h4.597v-4.597h-4.597v4.597z" fill="#FF8D4C"/><path d="M81.602 144.904h4.597v-4.597h-4.597v4.597zM77.004 144.904h4.598v-4.597h-4.598v4.597zM72.407 144.904h4.597v-4.597h-4.597v4.597z" fill="#190066"/><path d="M67.81 144.904h4.597v-4.597H67.81v4.597z" fill="#6119EF"/><path d="M65.51 143.611a1.007 1.007 0 010-2.011 1.007 1.007 0 010 2.011zm0 1.293a2.298 2.298 0 100-4.597 2.298 2.298 0 100 4.597z" fill="#FFF068"/><path d="M60.914 140.307a2.299 2.299 0 100 4.597 2.299 2.299 0 000-4.597z" fill="#6119EF"/><path d="M54.018 144.904h4.597v-4.597h-4.597v4.597z" fill="#FF8D4C"/><path d="M51.72 140.307a2.299 2.299 0 100 4.597 2.299 2.299 0 000-4.597z" fill="#6119EF"/><path d="M47.122 140.307a2.299 2.299 0 100 4.597 2.299 2.299 0 000-4.597z" fill="#6119EF"/><path d="M42.525 143.611a1.007 1.007 0 010-2.011 1.007 1.007 0 010 2.011zm0 1.293a2.297 2.297 0 100-4.597 2.298 2.298 0 100 4.597z" fill="#FFF068"/><path d="M37.927 140.307a2.299 2.299 0 100 4.597 2.299 2.299 0 000-4.597z" fill="#6119EF"/><path d="M32.563 143.372h1.533v-1.533h-1.533v1.533z" fill="#61DFFF"/><path d="M28.733 142.222a.384.384 0 100 .768.384.384 0 000-.768z" fill="#190066"/><path d="M23.368 143.372h1.533v-1.533h-1.533v1.533zM18.771 143.372h1.533v-1.533h-1.533v1.533z" fill="#61DFFF"/><path d="M12.643 144.904h4.597v-4.597h-4.597v4.597zM8.045 144.904h4.598v-4.597H8.045v4.597zM3.448 144.904h4.597v-4.597H3.448v4.597zM95.393 140.307h4.597v-4.597h-4.597v4.597z" fill="#190066"/><path d="M90.796 140.307h4.597v-4.597h-4.597v4.597z" fill="#6119EF"/><path d="M86.198 140.307h4.597v-4.597h-4.597v4.597z" fill="#190066"/><path d="M81.602 140.307h4.597v-4.597h-4.597v4.597z" fill="#190066"/><path d="M77.004 140.307h4.598v-4.597h-4.598v4.597z" fill="#FF8D4C"/><path d="M72.407 140.307h4.597v-4.597h-4.597v4.597zM67.81 140.307h4.597v-4.597H67.81v4.597z" fill="#190066"/><path d="M63.212 140.307h4.598v-4.597h-4.598v4.597z" fill="#6119EF"/><path d="M58.615 140.307h4.597v-4.597h-4.597v4.597z" fill="#190066"/><path d="M54.018 140.307h4.597v-4.597h-4.597v4.597z" fill="#FF8D4C"/><path d="M49.42 140.307h4.598v-4.597h-4.597v4.597z" fill="#6119EF"/><path d="M44.823 140.307h4.597v-4.597h-4.597v4.597zM40.226 140.307h4.597v-4.597h-4.597v4.597z" fill="#190066"/><path d="M37.16 138.774h1.533v-1.533h-1.532v1.533z" fill="#61DFFF"/><path d="M33.33 136.859a1.15 1.15 0 10.001 2.3 1.15 1.15 0 000-2.3z" fill="#FFBEF1"/><path d="M28.733 137.625a.384.384 0 100 .768.384.384 0 000-.768z" fill="#190066"/><path d="M23.368 138.774h1.533v-1.533h-1.533v1.533zM18.771 138.774h1.533v-1.533h-1.533v1.533zM14.174 138.774h1.533v-1.533h-1.533v1.533z" fill="#61DFFF"/><path d="M8.045 140.307h4.598v-4.597H8.045v4.597zM127.574 135.71h4.597v-4.597h-4.597v4.597z" fill="#190066"/><path d="M109.185 135.71h4.598v-4.597h-4.598v4.597zM95.393 135.71h4.597v-4.597h-4.597v4.597z" fill="#6119EF"/><path d="M86.198 135.71h4.597v-4.597h-4.597v4.597z" fill="#190066"/><path d="M81.602 135.71h4.597v-4.597h-4.597v4.597zM77.004 135.71h4.598v-4.597h-4.598v4.597z" fill="#190066"/><path d="M72.407 135.71h4.597v-4.597h-4.597v4.597zM67.81 135.71h4.597v-4.597H67.81v4.597z" fill="#6119EF"/><path d="M63.212 135.71h4.598v-4.597h-4.598v4.597z" fill="#190066"/><path d="M58.615 135.71h4.597v-4.597h-4.597v4.597z" fill="#FF8D4C"/><path d="M54.018 135.71h4.597v-4.597h-4.597v4.597z" fill="#190066"/><path d="M49.42 135.71h4.598v-4.597h-4.597v4.597z" fill="#6119EF"/><path d="M44.823 135.71h4.597v-4.597h-4.597v4.597zM40.226 135.71h4.597v-4.597h-4.597v4.597z" fill="#190066"/><path d="M37.928 132.262a1.15 1.15 0 100 2.3 1.15 1.15 0 000-2.3zM33.33 132.262a1.15 1.15 0 100 2.299 1.15 1.15 0 000-2.299z" fill="#FFBEF1"/><path d="M27.966 134.177h1.532v-1.533h-1.532v1.533zM23.368 134.177h1.533v-1.533h-1.533v1.533zM18.771 134.177h1.533v-1.533h-1.533v1.533zM14.174 134.177h1.533v-1.533h-1.533v1.533z" fill="#61DFFF"/><path d="M8.045 135.71h4.598v-4.597H8.045v4.597z" fill="#190066"/><path d="M5.746 133.028a.383.383 0 100 .766.383.383 0 000-.766z" fill="#6119EF"/><path d="M127.574 131.113h4.597v-4.598h-4.597v4.598z" fill="#190066"/><path d="M99.99 131.113h4.598v-4.598h-4.597v4.598z" fill="#FF8D4C"/><path d="M90.796 131.113h4.597v-4.598h-4.597v4.598zM86.198 131.113h4.597v-4.598h-4.597v4.598zM72.407 131.113h4.597v-4.598h-4.597v4.598zM67.81 131.113h4.597v-4.598H67.81v4.598z" fill="#190066"/><path d="M63.212 131.113h4.598v-4.598h-4.598v4.598z" fill="#6119EF"/><path d="M58.615 131.113h4.597v-4.598h-4.597v4.598z" fill="#190066"/><path d="M54.018 131.113h4.597v-4.598h-4.597v4.598zM49.42 131.113h4.598v-4.598h-4.597v4.598z" fill="#6119EF"/><path d="M47.122 126.515a2.299 2.299 0 100 4.597 2.299 2.299 0 000-4.597z" fill="#6119EF"/><path d="M41.758 129.58h1.532v-1.533h-1.532v1.533zM37.16 129.58h1.533v-1.533h-1.532v1.533z" fill="#61DFFF"/><path d="M31.031 131.113h4.597v-4.598h-4.597v4.598z" fill="#190066"/><path d="M28.732 126.515a2.299 2.299 0 100 4.597 2.299 2.299 0 000-4.597z" fill="#6119EF"/><path d="M24.136 126.515a2.299 2.299 0 100 4.597 2.299 2.299 0 000-4.597z" fill="#6119EF"/><path d="M17.24 131.113h4.597v-4.598H17.24v4.598z" fill="#FF8D4C"/><path d="M12.643 131.113h4.597v-4.598h-4.597v4.598zM8.045 131.113h4.598v-4.598H8.045v4.598z" fill="#190066"/><path d="M3.448 131.113h4.597v-4.598H3.448v4.598z" fill="#6119EF"/><path d="M90.796 126.515h4.597v-4.597h-4.597v4.597zM77.004 126.515h4.598v-4.597h-4.598v4.597zM67.81 126.515h4.597v-4.597H67.81v4.597zM63.212 126.515h4.598v-4.597h-4.598v4.597zM58.615 126.515h4.597v-4.597h-4.597v4.597zM54.018 126.515h4.597v-4.597h-4.597v4.597z" fill="#190066"/><path d="M51.72 121.918a2.299 2.299 0 100 4.597 2.299 2.299 0 000-4.597z" fill="#6119EF"/><path d="M47.122 123.067a1.15 1.15 0 100 2.3 1.15 1.15 0 000-2.3z" fill="#FFBEF1"/><path d="M41.758 124.982h1.532v-1.532h-1.532v1.532z" fill="#61DFFF"/><path d="M37.927 125.222a1.007 1.007 0 010-2.011 1.007 1.007 0 010 2.011zm0 1.293a2.297 2.297 0 100-4.597 2.298 2.298 0 100 4.597z" fill="#FFF068"/><path d="M31.031 126.515h4.597v-4.597h-4.597v4.597z" fill="#6119EF"/><path d="M26.433 126.515h4.598v-4.597h-4.598v4.597z" fill="#FF8D4C"/><path d="M21.837 126.515h4.598v-4.597h-4.598v4.597zM17.24 126.515h4.597v-4.597H17.24v4.597z" fill="#FF8D4C"/><path d="M12.643 126.515h4.597v-4.597h-4.597v4.597z" fill="#190066"/><path d="M10.344 123.067a1.15 1.15 0 100 2.3 1.15 1.15 0 000-2.3z" fill="#FFBEF1"/><path d="M4.98 124.982h1.532v-1.532H4.98v1.532z" fill="#61DFFF"/><path d="M127.574 121.918h4.597v-4.597h-4.597v4.597z" fill="#FF8D4C"/><path d="M90.796 121.918h4.597v-4.597h-4.597v4.597z" fill="#190066"/><path d="M86.198 121.918h4.597v-4.597h-4.597v4.597z" fill="#6119EF"/><path d="M83.9 117.321a2.298 2.298 0 100 4.597 2.298 2.298 0 000-4.597zM72.407 121.918h4.597v-4.597h-4.597v4.597zM67.81 121.918h4.597v-4.597H67.81v4.597z" fill="#6119EF"/><path d="M63.212 121.918h4.598v-4.597h-4.598v4.597z" fill="#190066"/><path d="M58.615 121.918h4.597v-4.597h-4.597v4.597z" fill="#FF8D4C"/><path d="M56.316 118.47a1.15 1.15 0 10.001 2.3 1.15 1.15 0 000-2.3z" fill="#FFBEF1"/><path d="M51.72 119.236a.384.384 0 100 .767.384.384 0 000-.767z" fill="#190066"/><path d="M46.355 120.385h1.533v-1.533h-1.533v1.533zM41.758 120.385h1.532v-1.533h-1.532v1.533z" fill="#61DFFF"/><path d="M35.628 121.918h4.598v-4.597h-4.598v4.597z" fill="#190066"/><path d="M31.031 121.918h4.597v-4.597h-4.597v4.597z" fill="#FF8D4C"/><path d="M26.433 121.918h4.598v-4.597h-4.598v4.597z" fill="#190066"/><path d="M21.837 121.918h4.598v-4.597h-4.598v4.597z" fill="#190066"/><path d="M17.24 121.918h4.597v-4.597H17.24v4.597z" fill="#FF8D4C"/><path d="M14.174 120.385h1.533v-1.533h-1.533v1.533z" fill="#61DFFF"/><path d="M5.746 117.321a2.298 2.298 0 100 4.597 2.298 2.298 0 000-4.597z" fill="#6119EF"/><path d="M127.574 117.321h4.597v-4.597h-4.597v4.597zM122.976 117.321h4.598v-4.597h-4.598v4.597z" fill="#190066"/><path d="M118.379 117.321h4.598v-4.597h-4.598v4.597z" fill="#190066"/><path d="M86.198 117.321h4.597v-4.597h-4.597v4.597z" fill="#FF8D4C"/><path d="M77.004 117.321h4.598v-4.597h-4.598v4.597zM72.407 117.321h4.597v-4.597h-4.597v4.597z" fill="#190066"/><path d="M67.81 117.321h4.597v-4.597H67.81v4.597z" fill="#6119EF"/><path d="M63.212 117.321h4.598v-4.597h-4.598v4.597z" fill="#190066"/><path d="M60.914 112.724a2.298 2.298 0 100 4.597 2.298 2.298 0 000-4.597zM56.316 115.406a.384.384 0 110-.767.384.384 0 010 .767zM51.72 115.406a.384.384 0 110-.767.384.384 0 010 .767z" fill="#6119EF"/><path d="M40.226 117.321h4.597v-4.597h-4.597v4.597zM35.628 117.321h4.598v-4.597h-4.598v4.597zM31.031 117.321h4.597v-4.597h-4.597v4.597zM26.433 117.321h4.598v-4.597h-4.598v4.597z" fill="#190066"/><path d="M21.837 117.321h4.598v-4.597h-4.598v4.597z" fill="#6119EF"/><path d="M17.24 117.321h4.597v-4.597H17.24v4.597z" fill="#190066"/><path d="M14.941 115.406a.384.384 0 110-.767.384.384 0 010 .767zM8.045 117.321h4.598v-4.597H8.045v4.597z" fill="#6119EF"/><path d="M5.746 115.406a.384.384 0 110-.767.384.384 0 010 .767z" fill="#190066"/><path d="M127.574 112.724h4.597v-4.598h-4.597v4.598zM122.976 112.724h4.598v-4.598h-4.598v4.598z" fill="#6119EF"/><path d="M77.004 112.724h4.598v-4.598h-4.598v4.598z" fill="#FF8D4C"/><path d="M72.407 112.724h4.597v-4.598h-4.597v4.598z" fill="#190066"/><path d="M67.81 112.724h4.597v-4.598H67.81v4.598z" fill="#6119EF"/><path d="M65.51 110.041a.384.384 0 10.001.768.384.384 0 000-.768zM60.914 110.041a.384.384 0 100 .768.384.384 0 000-.768zM56.316 110.041a.384.384 0 100 .768.384.384 0 000-.768zM44.823 112.724h4.597v-4.598h-4.597v4.598zM40.226 112.724h4.597v-4.598h-4.597v4.598zM35.628 112.724h4.598v-4.598h-4.598v4.598z" fill="#190066"/><path d="M31.031 112.724h4.597v-4.598h-4.597v4.598z" fill="#FF8D4C"/><path d="M26.433 112.724h4.598v-4.598h-4.598v4.598z" fill="#6119EF"/><path d="M23.368 111.191h1.533v-1.533h-1.533v1.533z" fill="#61DFFF"/><path d="M19.539 110.041a.384.384 0 100 .768.384.384 0 000-.768z" fill="#FF8D4C"/><path d="M14.941 110.041a.384.384 0 100 .768.384.384 0 000-.768z" fill="#190066"/><path d="M10.344 109.276a1.149 1.149 0 10-.001 2.298 1.149 1.149 0 000-2.298z" fill="#FFBEF1"/><path d="M4.98 111.191h1.532v-1.533H4.98v1.533z" fill="#61DFFF"/><path d="M122.976 108.126h4.598v-4.597h-4.598v4.597z" fill="#6119EF"/><path d="M81.602 108.126h4.597v-4.597h-4.597v4.597z" fill="#190066"/><path d="M77.004 108.126h4.598v-4.597h-4.598v4.597z" fill="#6119EF"/><path d="M74.706 105.444a.384.384 0 100 .768.384.384 0 000-.768z" fill="#FF8D4C"/><path d="M70.109 104.678a1.15 1.15 0 100 2.3 1.15 1.15 0 000-2.3z" fill="#FFBEF1"/><path d="M63.212 108.126h4.598v-4.597h-4.598v4.597z" fill="#190066"/><path d="M60.914 105.444a.384.384 0 100 .768.384.384 0 000-.768z" fill="#6119EF"/><path d="M54.018 108.126h4.597v-4.597h-4.597v4.597z" fill="#190066"/><path d="M50.952 106.593h1.533v-1.533h-1.533v1.533z" fill="#61DFFF"/><path d="M44.823 108.126h4.597v-4.597h-4.597v4.597zM40.226 108.126h4.597v-4.597h-4.597v4.597z" fill="#190066"/><path d="M35.628 108.126h4.598v-4.597h-4.598v4.597z" fill="#FF8D4C"/><path d="M31.031 108.126h4.597v-4.597h-4.597v4.597z" fill="#190066"/><path d="M28.732 106.833a1.007 1.007 0 010-2.011 1.007 1.007 0 010 2.011zm0 1.293a2.298 2.298 0 100-4.597 2.298 2.298 0 100 4.597z" fill="#FFF068"/><path d="M23.368 106.593h1.533v-1.533h-1.533v1.533zM18.771 106.593h1.533v-1.533h-1.533v1.533z" fill="#61DFFF"/><path d="M12.643 108.126h4.597v-4.597h-4.597v4.597z" fill="#190066"/><path d="M118.379 103.529h4.598v-4.597h-4.598v4.597z" fill="#6119EF"/><path d="M102.289 100.081a1.15 1.15 0 100 2.298 1.15 1.15 0 000-2.298z" fill="#FFBEF1"/><path d="M97.692 101.614a.384.384 0 110-.767.384.384 0 010 .767z" fill="#190066"/><path d="M90.796 103.529h4.597v-4.597h-4.597v4.597z" fill="#6119EF"/><path d="M88.497 102.236a1.007 1.007 0 111.006-1.006c0 .555-.452 1.006-1.006 1.006zm0 1.293a2.298 2.298 0 100-4.597 2.298 2.298 0 000 4.597z" fill="#FFF068"/><path d="M81.602 103.529h4.597v-4.597h-4.597v4.597zM77.004 103.529h4.598v-4.597h-4.598v4.597z" fill="#FF8D4C"/><path d="M74.706 100.847a.384.384 0 100 .767.384.384 0 000-.767z" fill="#190066"/><path d="M69.341 101.996h1.533v-1.533h-1.533v1.533zM60.146 101.996h1.533v-1.533h-1.533v1.533z" fill="#61DFFF"/><path d="M56.317 98.932a2.299 2.299 0 100 4.597 2.299 2.299 0 000-4.597z" fill="#6119EF"/><path d="M50.952 101.996h1.533v-1.533h-1.533v1.533z" fill="#61DFFF"/><path d="M42.525 98.932a2.299 2.299 0 100 4.597 2.299 2.299 0 000-4.597z" fill="#6119EF"/><path d="M37.16 101.996h1.533v-1.533h-1.532v1.533zM32.563 101.996h1.533v-1.533h-1.533v1.533z" fill="#61DFFF"/><path d="M28.732 102.236a1.007 1.007 0 010-2.011 1.007 1.007 0 010 2.011zm0 1.293a2.298 2.298 0 100-4.597 2.298 2.298 0 000 4.597z" fill="#FFF068"/><path d="M24.136 98.932a2.299 2.299 0 100 4.597 2.299 2.299 0 000-4.597z" fill="#6119EF"/><path d="M19.539 100.847a.384.384 0 100 .767.384.384 0 000-.767z" fill="#FF8D4C"/><path d="M12.643 103.529h4.597v-4.597h-4.597v4.597z" fill="#190066"/><path d="M5.746 98.932a2.299 2.299 0 100 4.597 2.299 2.299 0 000-4.597z" fill="#6119EF"/><path d="M1.15 100.847a.384.384 0 100 .767.384.384 0 000-.767z" fill="#190066"/><path d="M113.783 98.932h4.597v-4.598h-4.597v4.598z" fill="#FF8D4C"/><path d="M109.185 98.932h4.598v-4.598h-4.598v4.598zM104.588 98.932h4.597v-4.598h-4.597v4.598z" fill="#190066"/><path d="M99.99 98.932h4.598v-4.598h-4.597v4.598zM95.393 98.932h4.597v-4.598h-4.597v4.598z" fill="#FF8D4C"/><path d="M90.796 98.932h4.597v-4.598h-4.597v4.598z" fill="#190066"/><path d="M88.497 95.484a1.15 1.15 0 100 2.298 1.15 1.15 0 000-2.298z" fill="#FFBEF1"/><path d="M83.9 96.25a.384.384 0 100 .767.384.384 0 000-.767zM74.706 96.25a.384.384 0 100 .767.384.384 0 000-.767z" fill="#190066"/><path d="M69.341 97.399h1.533v-1.533h-1.533v1.533z" fill="#61DFFF"/><path d="M65.51 94.334a2.299 2.299 0 10.001 4.598 2.299 2.299 0 000-4.598z" fill="#6119EF"/><path d="M60.914 94.334a2.299 2.299 0 100 4.598 2.299 2.299 0 000-4.598z" fill="#6119EF"/><path d="M56.317 94.334a2.299 2.299 0 100 4.598 2.299 2.299 0 000-4.598z" fill="#6119EF"/><path d="M51.72 96.25a.384.384 0 100 .767.384.384 0 000-.767z" fill="#190066"/><path d="M47.122 95.484a1.15 1.15 0 100 2.298 1.15 1.15 0 000-2.298zM42.525 95.484a1.15 1.15 0 100 2.298 1.15 1.15 0 000-2.298z" fill="#FFBEF1"/><path d="M37.16 97.399h1.533v-1.533h-1.532v1.533zM32.563 97.399h1.533v-1.533h-1.533v1.533z" fill="#61DFFF"/><path d="M21.837 98.932h4.598v-4.598h-4.598v4.598z" fill="#190066"/><path d="M19.539 96.25a.384.384 0 100 .767.384.384 0 000-.767z" fill="#6119EF"/><path d="M14.941 96.25a.384.384 0 100 .767.384.384 0 000-.767z" fill="#FF8D4C"/><path d="M1.149 95.484a1.15 1.15 0 100 2.298 1.15 1.15 0 000-2.298z" fill="#FFBEF1"/><path d="M127.574 94.335h4.597v-4.598h-4.597v4.598zM109.185 94.335h4.598v-4.598h-4.598v4.598z" fill="#FF8D4C"/><path d="M106.886 90.886a1.15 1.15 0 10.001 2.3 1.15 1.15 0 00-.001-2.3zM102.289 90.886a1.149 1.149 0 100 2.298 1.149 1.149 0 000-2.297zM97.692 90.886a1.15 1.15 0 100 2.3 1.15 1.15 0 000-2.3z" fill="#FFBEF1"/><path d="M93.094 91.652a.384.384 0 100 .767.384.384 0 000-.767z" fill="#190066"/><path d="M87.73 92.802h1.533v-1.533H87.73V92.8z" fill="#61DFFF"/><path d="M81.602 94.335h4.597v-4.598h-4.597v4.598z" fill="#190066"/><path d="M78.536 92.802h1.533v-1.533h-1.533V92.8z" fill="#61DFFF"/><path d="M74.706 91.652a.384.384 0 100 .767.384.384 0 000-.767zM70.109 91.652a.384.384 0 100 .767.384.384 0 000-.767z" fill="#190066"/><path d="M65.511 90.886a1.15 1.15 0 100 2.3 1.15 1.15 0 000-2.3z" fill="#FFBEF1"/><path d="M60.146 92.802h1.533v-1.533h-1.533V92.8z" fill="#61DFFF"/><path d="M56.316 90.886a1.15 1.15 0 100 2.3 1.15 1.15 0 000-2.3zM51.719 90.886a1.15 1.15 0 100 2.3 1.15 1.15 0 000-2.3zM47.122 90.886a1.15 1.15 0 100 2.3 1.15 1.15 0 000-2.3z" fill="#FFBEF1"/><path d="M42.525 91.652a.384.384 0 100 .768.384.384 0 000-.768z" fill="#190066"/><path d="M37.928 90.886a1.15 1.15 0 100 2.3 1.15 1.15 0 000-2.3z" fill="#FFBEF1"/><path d="M33.33 91.652a.384.384 0 100 .767.384.384 0 000-.767z" fill="#190066"/><path d="M27.966 92.802h1.532v-1.533h-1.532V92.8z" fill="#61DFFF"/><path d="M21.837 94.335h4.598v-4.598h-4.598v4.598z" fill="#190066"/><path d="M14.94 90.886a1.15 1.15 0 100 2.3 1.15 1.15 0 000-2.3z" fill="#FFBEF1"/><path d="M10.344 91.652a.384.384 0 100 .767.384.384 0 000-.767z" fill="#6119EF"/><path d="M1.15 91.652a.384.384 0 100 .767.384.384 0 000-.767z" fill="#FF8D4C"/><path d="M122.976 89.737h4.598V85.14h-4.598v4.597z" fill="#190066"/><path d="M118.379 89.737h4.598V85.14h-4.598v4.597z" fill="#6119EF"/><path d="M113.783 89.737h4.597V85.14h-4.597v4.597zM109.185 89.737h4.598V85.14h-4.598v4.597z" fill="#190066"/><path d="M106.119 88.204h1.533v-1.533h-1.533v1.533z" fill="#61DFFF"/><path d="M99.99 89.737h4.598V85.14h-4.597v4.597z" fill="#190066"/><path d="M97.692 87.822a.384.384 0 110-.767.384.384 0 010 .767zM93.094 85.14a2.299 2.299 0 100 4.597 2.299 2.299 0 000-4.597z" fill="#6119EF"/><path d="M86.198 89.737h4.597V85.14h-4.597v4.597z" fill="#6119EF"/><path d="M83.9 85.14a2.299 2.299 0 100 4.597 2.299 2.299 0 000-4.597z" fill="#6119EF"/><path d="M79.303 85.14a2.299 2.299 0 100 4.597 2.299 2.299 0 000-4.597z" fill="#6119EF"/><path d="M65.511 86.29a1.15 1.15 0 100 2.298 1.15 1.15 0 000-2.299zM60.914 86.29a1.15 1.15 0 100 2.298 1.15 1.15 0 000-2.299z" fill="#FFBEF1"/><path d="M56.316 87.055a.384.384 0 100 .767.384.384 0 000-.767zM51.72 87.055a.384.384 0 100 .767.384.384 0 000-.767z" fill="#190066"/><path d="M42.525 87.055a.384.384 0 100 .767.384.384 0 000-.767z" fill="#6119EF"/><path d="M37.928 86.29a1.15 1.15 0 100 2.298 1.15 1.15 0 000-2.299z" fill="#FFBEF1"/><path d="M33.33 87.055a.384.384 0 100 .767.384.384 0 000-.767z" fill="#6119EF"/><path d="M28.732 88.444a1.007 1.007 0 010-2.011 1.007 1.007 0 010 2.011zm0 1.293a2.298 2.298 0 10.001-4.596 2.298 2.298 0 000 4.596z" fill="#FFF068"/><path d="M17.24 89.737h4.597V85.14H17.24v4.597z" fill="#FF8D4C"/><path d="M14.94 86.29a1.15 1.15 0 100 2.298 1.15 1.15 0 000-2.299z" fill="#FFBEF1"/><path d="M9.577 88.204h1.533v-1.533H9.577v1.533z" fill="#61DFFF"/><path d="M5.747 86.29a1.15 1.15 0 100 2.298 1.15 1.15 0 000-2.299z" fill="#FFBEF1"/><path d="M1.15 87.055a.384.384 0 100 .767.384.384 0 000-.767zM127.574 85.14h4.597v-4.597h-4.597v4.597zM122.976 85.14h4.598v-4.597h-4.598v4.597z" fill="#190066"/><path d="M118.379 85.14h4.598v-4.597h-4.598v4.597z" fill="#190066"/><path d="M113.783 85.14h4.597v-4.597h-4.597v4.597z" fill="#190066"/><path d="M109.185 85.14h4.598v-4.597h-4.598v4.597z" fill="#6119EF"/><path d="M106.887 82.458a.384.384 0 100 .767.384.384 0 000-.767zM102.289 82.458a.383.383 0 100 .766.383.383 0 000-.766z" fill="#190066"/><path d="M96.925 83.607h1.533v-1.533h-1.533v1.533z" fill="#61DFFF"/><path d="M90.796 85.14h4.597v-4.597h-4.597v4.597z" fill="#190066"/><path d="M88.497 80.543a2.299 2.299 0 100 4.597 2.299 2.299 0 000-4.597zM83.9 82.458a.384.384 0 100 .767.384.384 0 000-.767zM79.303 80.543a2.299 2.299 0 100 4.597 2.299 2.299 0 000-4.597z" fill="#6119EF"/><path d="M74.705 81.692a1.15 1.15 0 100 2.298 1.15 1.15 0 000-2.298z" fill="#FFBEF1"/><path d="M70.109 82.458a.384.384 0 100 .767.384.384 0 000-.767z" fill="#6119EF"/><path d="M65.51 82.458a.384.384 0 100 .767.384.384 0 000-.767z" fill="#FF8D4C"/><path d="M60.146 83.607h1.533v-1.533h-1.533v1.533z" fill="#61DFFF"/><path d="M51.72 82.458a.384.384 0 100 .767.384.384 0 000-.767z" fill="#190066"/><path d="M37.927 82.458a.384.384 0 100 .767.384.384 0 000-.767z" fill="#FF8D4C"/><path d="M33.33 81.692a1.15 1.15 0 100 2.298 1.15 1.15 0 000-2.298z" fill="#FFBEF1"/><path d="M27.966 83.607h1.532v-1.533h-1.532v1.533z" fill="#61DFFF"/><path d="M24.136 83.847a1.007 1.007 0 010-2.011 1.007 1.007 0 010 2.01zm0 1.293a2.298 2.298 0 10.001-4.596 2.298 2.298 0 00-.001 4.596z" fill="#FFF068"/><path d="M19.539 82.458a.384.384 0 100 .767.384.384 0 000-.767z" fill="#FF8D4C"/><path d="M14.941 80.543a2.299 2.299 0 100 4.597 2.299 2.299 0 000-4.597z" fill="#6119EF"/><path d="M9.577 83.607h1.533v-1.533H9.577v1.533z" fill="#61DFFF"/><path d="M3.448 85.14h4.597v-4.597H3.448v4.597z" fill="#6119EF"/><path d="M1.15 82.458a.384.384 0 10-.001.767.384.384 0 000-.767z" fill="#190066"/><path d="M127.574 80.543h4.597v-4.598h-4.597v4.598z" fill="#6119EF"/><path d="M122.976 80.543h4.598v-4.598h-4.598v4.598z" fill="#190066"/><path d="M118.379 80.543h4.598v-4.598h-4.598v4.598zM116.081 77.86a.384.384 0 100 .768.384.384 0 000-.767z" fill="#190066"/><path d="M106.886 77.095a1.15 1.15 0 10.001 2.299 1.15 1.15 0 00-.001-2.3z" fill="#FFBEF1"/><path d="M102.289 77.86a.383.383 0 100 .766.383.383 0 000-.766z" fill="#190066"/><path d="M97.692 75.945a2.299 2.299 0 100 4.598 2.299 2.299 0 000-4.598z" fill="#6119EF"/><path d="M90.796 80.543h4.597v-4.598h-4.597v4.598zM86.198 80.543h4.597v-4.598h-4.597v4.598z" fill="#190066"/><path d="M81.602 80.543h4.597v-4.598h-4.597v4.598z" fill="#6119EF"/><path d="M79.303 75.945a2.299 2.299 0 100 4.598 2.299 2.299 0 000-4.598z" fill="#6119EF"/><path d="M74.706 77.86a.384.384 0 100 .768.384.384 0 000-.767zM70.109 77.86a.384.384 0 100 .768.384.384 0 000-.767zM65.51 77.86a.384.384 0 100 .768.384.384 0 000-.767z" fill="#190066"/><path d="M60.914 77.86a.384.384 0 100 .768.384.384 0 000-.767z" fill="#FF8D4C"/><path d="M56.316 77.86a.384.384 0 100 .768.384.384 0 000-.767z" fill="#6119EF"/><path d="M51.72 77.86a.384.384 0 100 .768.384.384 0 000-.767z" fill="#190066"/><path d="M28.733 77.86a.384.384 0 100 .768.384.384 0 000-.767zM24.136 75.945a2.299 2.299 0 100 4.598 2.299 2.299 0 000-4.598z" fill="#6119EF"/><path d="M8.045 80.543h4.598v-4.598H8.045v4.598z" fill="#190066"/><path d="M5.746 75.945a2.299 2.299 0 100 4.598 2.299 2.299 0 000-4.598z" fill="#6119EF"/><path d="M127.574 75.945h4.597v-4.597h-4.597v4.597zM122.976 75.945h4.598v-4.597h-4.598v4.597z" fill="#190066"/><path d="M120.678 74.652a1.007 1.007 0 010-2.01c.554 0 1.006.45 1.006 1.005 0 .554-.452 1.005-1.006 1.005zm0 1.293a2.298 2.298 0 10.001-4.596 2.298 2.298 0 00-.001 4.596z" fill="#FFF068"/><path d="M116.081 72.497a1.149 1.149 0 100 2.298 1.149 1.149 0 000-2.298z" fill="#FFBEF1"/><path d="M109.185 75.945h4.598v-4.597h-4.598v4.597z" fill="#190066"/><path d="M106.886 71.348a2.298 2.298 0 100 4.597 2.298 2.298 0 000-4.597z" fill="#6119EF"/><path d="M101.522 74.412h1.533V72.88h-1.533v1.532zM96.925 74.412h1.533V72.88h-1.533v1.532z" fill="#61DFFF"/><path d="M90.796 75.945h4.597v-4.597h-4.597v4.597z" fill="#6119EF"/><path d="M88.497 71.348a2.299 2.299 0 100 4.597 2.299 2.299 0 000-4.597z" fill="#6119EF"/><path d="M83.133 74.412h1.532V72.88h-1.532v1.532z" fill="#61DFFF"/><path d="M79.303 72.497a1.15 1.15 0 100 2.3 1.15 1.15 0 000-2.3z" fill="#FFBEF1"/><path d="M70.109 73.263a.384.384 0 100 .767.384.384 0 000-.767z" fill="#190066"/><path d="M65.511 72.497a1.15 1.15 0 100 2.3 1.15 1.15 0 000-2.3z" fill="#FFBEF1"/><path d="M60.914 73.263a.384.384 0 100 .767.384.384 0 000-.767zM51.72 73.263a.384.384 0 100 .767.384.384 0 000-.767z" fill="#190066"/><path d="M28.733 73.263a.384.384 0 100 .767.384.384 0 000-.767z" fill="#FF8D4C"/><path d="M24.136 73.263a.384.384 0 100 .767.384.384 0 000-.767zM14.941 73.263a.384.384 0 100 .767.384.384 0 000-.767z" fill="#190066"/><path d="M9.577 74.412h1.533V72.88H9.577v1.532z" fill="#61DFFF"/><path d="M5.746 71.348a2.299 2.299 0 100 4.597 2.299 2.299 0 000-4.597zM127.574 71.348h4.597v-4.597h-4.597v4.597zM122.976 71.348h4.598v-4.597h-4.598v4.597z" fill="#6119EF"/><path d="M118.379 71.348h4.598v-4.597h-4.598v4.597zM111.484 66.75a2.3 2.3 0 100 4.6 2.3 2.3 0 000-4.6z" fill="#6119EF"/><path d="M106.119 69.815h1.533v-1.533h-1.533v1.533z" fill="#61DFFF"/><path d="M99.99 71.348h4.598v-4.597h-4.597v4.597zM95.393 71.348h4.597v-4.597h-4.597v4.597z" fill="#190066"/><path d="M90.796 71.348h4.597v-4.597h-4.597v4.597z" fill="#6119EF"/><path d="M86.198 71.348h4.597v-4.597h-4.597v4.597z" fill="#FF8D4C"/><path d="M73.938 69.815h1.533v-1.533h-1.533v1.533zM69.341 69.815h1.533v-1.533h-1.533v1.533z" fill="#61DFFF"/><path d="M65.51 68.666a.384.384 0 10.001.767.384.384 0 000-.767z" fill="#190066"/><path d="M56.316 68.666a.384.384 0 100 .767.384.384 0 000-.767z" fill="#FF8D4C"/><path d="M51.72 68.666a.384.384 0 100 .767.384.384 0 000-.767z" fill="#6119EF"/><path d="M14.941 68.666a.384.384 0 100 .767.384.384 0 000-.767z" fill="#190066"/><path d="M10.344 67.9a1.15 1.15 0 100 2.299 1.15 1.15 0 000-2.299z" fill="#FFBEF1"/><path d="M5.746 68.666a.384.384 0 100 .767.384.384 0 000-.767z" fill="#6119EF"/><path d="M127.574 66.75h4.597v-4.596h-4.597v4.597z" fill="#FF8D4C"/><path d="M122.976 66.75h4.598v-4.596h-4.598v4.597z" fill="#6119EF"/><path d="M119.911 65.218h1.533v-1.533h-1.533v1.533z" fill="#61DFFF"/><path d="M116.081 62.154a2.298 2.298 0 100 4.596 2.298 2.298 0 000-4.596z" fill="#6119EF"/><path d="M109.185 66.75h4.598v-4.596h-4.598v4.597zM104.588 66.75h4.597v-4.596h-4.597v4.597zM99.99 66.75h4.598v-4.596h-4.597v4.597z" fill="#190066"/><path d="M95.393 66.75h4.597v-4.596h-4.597v4.597zM90.796 66.75h4.597v-4.596h-4.597v4.597z" fill="#6119EF"/><path d="M88.497 63.303a1.15 1.15 0 100 2.299 1.15 1.15 0 000-2.3z" fill="#FFBEF1"/><path d="M79.303 64.069a.384.384 0 100 .767.384.384 0 000-.767z" fill="#190066"/><path d="M73.938 65.218h1.533v-1.533h-1.533v1.533zM64.743 65.218h1.533v-1.533h-1.532v1.533z" fill="#61DFFF"/><path d="M60.914 64.069a.384.384 0 100 .767.384.384 0 000-.767z" fill="#6119EF"/><path d="M56.316 64.069a.384.384 0 100 .767.384.384 0 000-.767z" fill="#190066"/><path d="M28.733 63.303a1.15 1.15 0 100 2.298 1.15 1.15 0 000-2.298z" fill="#FFBEF1"/><path d="M24.136 64.069a.384.384 0 100 .767.384.384 0 000-.767z" fill="#190066"/><path d="M19.539 65.458a1.007 1.007 0 010-2.011 1.007 1.007 0 010 2.01zm0 1.293a2.298 2.298 0 10.001-4.596 2.298 2.298 0 00-.001 4.596z" fill="#FFF068"/><path d="M12.643 66.75h4.597v-4.596h-4.597v4.597z" fill="#190066"/><path d="M9.577 65.218h1.533v-1.533H9.577v1.533z" fill="#61DFFF"/><path d="M5.747 63.303a1.15 1.15 0 100 2.298 1.15 1.15 0 000-2.298z" fill="#FFBEF1"/><path d="M127.574 62.154h4.597v-4.598h-4.597v4.598z" fill="#190066"/><path d="M122.976 62.154h4.598v-4.598h-4.598v4.598z" fill="#6119EF"/><path d="M120.678 59.471a.384.384 0 10.001.768.384.384 0 00-.001-.768z" fill="#FF8D4C"/><path d="M116.081 58.706a1.149 1.149 0 100 2.297 1.149 1.149 0 000-2.297z" fill="#FFBEF1"/><path d="M109.185 62.154h4.598v-4.598h-4.598v4.598zM104.588 62.154h4.597v-4.598h-4.597v4.598zM99.99 62.154h4.598v-4.598h-4.597v4.598z" fill="#190066"/><path d="M97.692 60.86a1.007 1.007 0 010-2.01 1.007 1.007 0 010 2.01zm0 1.294a2.298 2.298 0 100-4.596 2.298 2.298 0 000 4.596z" fill="#FFF068"/><path d="M93.094 59.471a.384.384 0 100 .767.384.384 0 000-.767z" fill="#190066"/><path d="M88.497 57.556a2.299 2.299 0 100 4.598 2.299 2.299 0 000-4.598z" fill="#6119EF"/><path d="M83.9 60.86a1.007 1.007 0 010-2.01 1.007 1.007 0 010 2.01zm0 1.294a2.298 2.298 0 10.001-4.596 2.298 2.298 0 000 4.596z" fill="#FFF068"/><path d="M79.303 60.86a1.007 1.007 0 010-2.01 1.007 1.007 0 010 2.01zm0 1.294a2.298 2.298 0 10.001-4.596 2.298 2.298 0 00-.001 4.596z" fill="#FFF068"/><path d="M73.938 60.62h1.533v-1.532h-1.533v1.533z" fill="#61DFFF"/><path d="M70.109 59.471a.384.384 0 100 .768.384.384 0 000-.768zM65.51 59.471a.384.384 0 10.001.768.384.384 0 000-.768z" fill="#190066"/><path d="M28.733 59.471a.384.384 0 100 .768.384.384 0 000-.768z" fill="#6119EF"/><path d="M21.837 62.154h4.598v-4.598h-4.598v4.598z" fill="#190066"/><path d="M17.24 62.154h4.597v-4.598H17.24v4.598z" fill="#FF8D4C"/><path d="M12.643 62.154h4.597v-4.598h-4.597v4.598z" fill="#190066"/><path d="M8.045 62.154h4.598v-4.598H8.045v4.598z" fill="#6119EF"/><path d="M127.574 57.556h4.597V52.96h-4.597v4.597z" fill="#FF8D4C"/><path d="M122.976 57.556h4.598V52.96h-4.598v4.597z" fill="#190066"/><path d="M118.379 57.556h4.598V52.96h-4.598v4.597zM116.081 54.874a.384.384 0 100 .768.384.384 0 000-.768z" fill="#190066"/><path d="M111.484 54.874a.383.383 0 100 .766.383.383 0 000-.766z" fill="#6119EF"/><path d="M104.588 57.556h4.597V52.96h-4.597v4.597z" fill="#190066"/><path d="M99.99 57.556h4.598V52.96h-4.597v4.597z" fill="#6119EF"/><path d="M97.692 52.959a2.299 2.299 0 100 4.597 2.299 2.299 0 000-4.597z" fill="#6119EF"/><path d="M92.327 56.023h1.533V54.49h-1.533v1.533z" fill="#61DFFF"/><path d="M86.198 57.556h4.597V52.96h-4.597v4.597z" fill="#190066"/><path d="M81.602 57.556h4.597V52.96h-4.597v4.597z" fill="#190066"/><path d="M79.303 52.959a2.299 2.299 0 100 4.597 2.299 2.299 0 000-4.597z" fill="#6119EF"/><path d="M74.706 54.874a.384.384 0 100 .767.384.384 0 000-.767z" fill="#190066"/><path d="M24.136 52.959a2.299 2.299 0 100 4.597 2.299 2.299 0 000-4.597z" fill="#6119EF"/><path d="M17.24 57.556h4.597V52.96H17.24v4.597z" fill="#190066"/><path d="M12.643 57.556h4.597V52.96h-4.597v4.597zM8.045 57.556h4.598V52.96H8.045v4.597z" fill="#190066"/><path d="M129.873 48.362a2.299 2.299 0 100 4.597 2.299 2.299 0 000-4.597z" fill="#6119EF"/><path d="M122.976 52.959h4.598v-4.597h-4.598v4.597z" fill="#190066"/><path d="M118.379 52.959h4.598v-4.597h-4.598v4.597zM116.081 50.277a.384.384 0 100 .768.384.384 0 000-.768z" fill="#6119EF"/><path d="M110.716 51.426h1.533v-1.533h-1.533v1.533z" fill="#61DFFF"/><path d="M104.588 52.959h4.597v-4.597h-4.597v4.597z" fill="#190066"/><path d="M99.99 52.959h4.598v-4.597h-4.597v4.597z" fill="#6119EF"/><path d="M95.393 52.959h4.597v-4.597h-4.597v4.597zM90.796 52.959h4.597v-4.597h-4.597v4.597z" fill="#190066"/><path d="M88.497 48.362a2.299 2.299 0 100 4.597 2.299 2.299 0 000-4.597z" fill="#6119EF"/><path d="M83.9 48.362a2.299 2.299 0 100 4.597 2.299 2.299 0 000-4.597z" fill="#6119EF"/><path d="M79.303 50.277a.384.384 0 100 .767.384.384 0 000-.767z" fill="#190066"/><path d="M74.705 49.511a1.15 1.15 0 100 2.299 1.15 1.15 0 000-2.299z" fill="#FFBEF1"/><path d="M70.109 48.362a2.299 2.299 0 100 4.597 2.299 2.299 0 000-4.597z" fill="#6119EF"/><path d="M28.733 49.511a1.15 1.15 0 100 2.299 1.15 1.15 0 000-2.299z" fill="#FFBEF1"/><path d="M21.837 52.959h4.598v-4.597h-4.598v4.597zM17.24 52.959h4.597v-4.597H17.24v4.597z" fill="#190066"/><path d="M12.643 52.959h4.597v-4.597h-4.597v4.597zM127.574 48.362h4.597v-4.598h-4.597v4.598z" fill="#190066"/><path d="M118.379 48.362h4.598v-4.598h-4.598v4.598z" fill="#FF8D4C"/><path d="M113.783 48.362h4.597v-4.598h-4.597v4.598z" fill="#FF8D4C"/><path d="M111.484 45.68a.383.383 0 100 .766.383.383 0 000-.767z" fill="#190066"/><path d="M106.119 46.829h1.533v-1.533h-1.533v1.533z" fill="#61DFFF"/><path d="M99.99 48.362h4.598v-4.598h-4.597v4.598z" fill="#190066"/><path d="M95.393 48.362h4.597v-4.598h-4.597v4.598z" fill="#FF8D4C"/><path d="M90.796 48.362h4.597v-4.598h-4.597v4.598zM86.198 48.362h4.597v-4.598h-4.597v4.598z" fill="#190066"/><path d="M81.602 48.362h4.597v-4.598h-4.597v4.598z" fill="#FF8D4C"/><path d="M79.303 44.914a1.15 1.15 0 100 2.299 1.15 1.15 0 000-2.3zM74.705 44.914a1.15 1.15 0 100 2.298 1.15 1.15 0 000-2.298z" fill="#FFBEF1"/><path d="M70.109 45.68a.384.384 0 100 .767.384.384 0 000-.768z" fill="#190066"/><path d="M42.525 45.68a.384.384 0 100 .767.384.384 0 000-.768z" fill="#FF8D4C"/><path d="M37.927 45.68a.384.384 0 100 .767.384.384 0 000-.768z" fill="#190066"/><path d="M33.33 45.68a.384.384 0 100 .767.384.384 0 000-.768z" fill="#6119EF"/><path d="M26.433 48.362h4.598v-4.598h-4.598v4.598z" fill="#190066"/><path d="M21.837 48.362h4.598v-4.598h-4.598v4.598zM17.24 48.362h4.597v-4.598H17.24v4.598z" fill="#190066"/><path d="M12.643 48.362h4.597v-4.598h-4.597v4.598z" fill="#6119EF"/><path d="M127.574 43.764h4.597v-4.597h-4.597v4.597zM118.379 43.764h4.598v-4.597h-4.598v4.597z" fill="#190066"/><path d="M113.783 43.764h4.597v-4.597h-4.597v4.597z" fill="#6119EF"/><path d="M111.484 41.082a.383.383 0 100 .766.383.383 0 000-.766zM102.289 41.082a.383.383 0 100 .766.383.383 0 000-.766zM95.393 43.764h4.597v-4.597h-4.597v4.597z" fill="#190066"/><path d="M93.094 40.316a1.15 1.15 0 100 2.3 1.15 1.15 0 000-2.3z" fill="#FFBEF1"/><path d="M86.198 43.764h4.597v-4.597h-4.597v4.597z" fill="#FF8D4C"/><path d="M81.602 43.764h4.597v-4.597h-4.597v4.597zM77.004 43.764h4.598v-4.597h-4.598v4.597z" fill="#190066"/><path d="M74.705 40.316a1.15 1.15 0 100 2.3 1.15 1.15 0 000-2.3z" fill="#FFBEF1"/><path d="M69.341 42.232h1.533v-1.533h-1.533v1.533z" fill="#61DFFF"/><path d="M65.51 41.082a.384.384 0 100 .768.384.384 0 000-.768zM60.914 41.082a.384.384 0 100 .767.384.384 0 000-.767z" fill="#6119EF"/><path d="M56.316 41.082a.384.384 0 100 .768.384.384 0 000-.768zM51.72 41.082a.384.384 0 100 .768.384.384 0 000-.768zM47.122 41.082a.384.384 0 100 .767.384.384 0 000-.767zM42.525 41.082a.384.384 0 100 .768.384.384 0 000-.768zM37.927 41.082a.384.384 0 100 .767.384.384 0 000-.767z" fill="#190066"/><path d="M31.031 43.764h4.597v-4.597h-4.597v4.597z" fill="#6119EF"/><path d="M26.433 43.764h4.598v-4.597h-4.598v4.597z" fill="#190066"/><path d="M21.837 43.764h4.598v-4.597h-4.598v4.597zM17.24 43.764h4.597v-4.597H17.24v4.597z" fill="#190066"/><path d="M122.976 39.167h4.598V34.57h-4.598v4.597z" fill="#FF8D4C"/><path d="M113.783 39.167h4.597V34.57h-4.597v4.597zM109.185 39.167h4.598V34.57h-4.598v4.597z" fill="#190066"/><path d="M106.887 36.485a.384.384 0 100 .768.384.384 0 000-.768zM102.289 36.485a.383.383 0 100 .766.383.383 0 000-.766z" fill="#FF8D4C"/><path d="M97.692 37.252a.384.384 0 110-.767.384.384 0 010 .767zM88.497 36.485a.384.384 0 100 .767.384.384 0 000-.767z" fill="#190066"/><path d="M83.133 37.634h1.532v-1.533h-1.532v1.533z" fill="#61DFFF"/><path d="M79.303 37.874a1.007 1.007 0 010-2.011 1.007 1.007 0 010 2.011zm0 1.293a2.298 2.298 0 10.001-4.596 2.298 2.298 0 00-.001 4.596z" fill="#FFF068"/><path d="M74.706 36.485a.384.384 0 100 .767.384.384 0 000-.767z" fill="#6119EF"/><path d="M69.341 37.634h1.533v-1.533h-1.533v1.533z" fill="#61DFFF"/><path d="M65.51 36.485a.384.384 0 10.001.767.384.384 0 000-.767z" fill="#190066"/><path d="M60.914 35.72a1.15 1.15 0 100 2.298 1.15 1.15 0 000-2.299z" fill="#FFBEF1"/><path d="M56.316 36.485a.384.384 0 100 .767.384.384 0 000-.767z" fill="#6119EF"/><path d="M47.122 36.485a.384.384 0 100 .767.384.384 0 000-.767zM42.525 36.485a.384.384 0 100 .767.384.384 0 000-.767z" fill="#190066"/><path d="M37.927 34.57a2.299 2.299 0 100 4.597 2.299 2.299 0 000-4.597z" fill="#6119EF"/><path d="M31.031 39.167h4.597V34.57h-4.597v4.597z" fill="#6119EF"/><path d="M26.433 39.167h4.598V34.57h-4.598v4.597z" fill="#190066"/><path d="M21.837 39.167h4.598V34.57h-4.598v4.597z" fill="#6119EF"/><path d="M127.574 34.57h4.597v-4.597h-4.597v4.597zM122.976 34.57h4.598v-4.597h-4.598v4.597z" fill="#190066"/><path d="M118.379 34.57h4.598v-4.597h-4.598v4.597z" fill="#FF8D4C"/><path d="M113.783 34.57h4.597v-4.597h-4.597v4.597zM109.185 34.57h4.598v-4.597h-4.598v4.597zM104.588 34.57h4.597v-4.597h-4.597v4.597zM102.289 31.888a.383.383 0 100 .766.383.383 0 000-.766zM97.692 32.655a.384.384 0 110-.767.384.384 0 010 .767zM93.094 31.888a.384.384 0 100 .767.384.384 0 000-.767z" fill="#190066"/><path d="M88.497 31.122a1.15 1.15 0 100 2.299 1.15 1.15 0 000-2.299z" fill="#FFBEF1"/><path d="M83.9 29.973a2.299 2.299 0 100 4.597 2.299 2.299 0 000-4.597z" fill="#6119EF"/><path d="M79.303 31.122a1.15 1.15 0 100 2.299 1.15 1.15 0 000-2.299zM74.705 31.122a1.15 1.15 0 100 2.299 1.15 1.15 0 000-2.299z" fill="#FFBEF1"/><path d="M69.341 33.037h1.533v-1.533h-1.533v1.533z" fill="#61DFFF"/><path d="M65.51 31.888a.384.384 0 100 .767.384.384 0 000-.767zM60.914 31.888a.384.384 0 100 .767.384.384 0 000-.767z" fill="#190066"/><path d="M51.72 31.888a.384.384 0 100 .767.384.384 0 000-.767z" fill="#6119EF"/><path d="M47.122 31.888a.384.384 0 100 .767.384.384 0 000-.767z" fill="#190066"/><path d="M42.525 31.888a.384.384 0 100 .767.384.384 0 000-.767z" fill="#6119EF"/><path d="M35.628 34.57h4.598v-4.597h-4.598v4.597z" fill="#190066"/><path d="M31.031 34.57h4.597v-4.597h-4.597v4.597zM26.433 34.57h4.598v-4.597h-4.598v4.597zM24.136 31.888a.384.384 0 100 .767.384.384 0 000-.767z" fill="#6119EF"/><path d="M127.574 29.973h4.597v-4.598h-4.597v4.598zM122.976 29.973h4.598v-4.598h-4.598v4.598z" fill="#190066"/><path d="M118.379 29.973h4.598v-4.598h-4.598v4.598z" fill="#6119EF"/><path d="M109.185 29.973h4.598v-4.598h-4.598v4.598zM104.588 29.973h4.597v-4.598h-4.597v4.598zM102.289 27.29a.383.383 0 100 .766.383.383 0 000-.765z" fill="#190066"/><path d="M88.497 26.525a1.15 1.15 0 100 2.298 1.15 1.15 0 000-2.298z" fill="#FFBEF1"/><path d="M81.602 29.973h4.597v-4.598h-4.597v4.598z" fill="#190066"/><path d="M79.303 26.525a1.15 1.15 0 100 2.298 1.15 1.15 0 000-2.298z" fill="#FFBEF1"/><path d="M72.407 29.973h4.597v-4.598h-4.597v4.598zM70.109 27.29a.384.384 0 100 .768.384.384 0 000-.767z" fill="#190066"/><path d="M65.511 26.525a1.15 1.15 0 100 2.298 1.15 1.15 0 000-2.298z" fill="#FFBEF1"/><path d="M60.914 27.29a.384.384 0 100 .768.384.384 0 000-.767z" fill="#FF8D4C"/><path d="M56.316 27.29a.384.384 0 100 .768.384.384 0 000-.767z" fill="#6119EF"/><path d="M51.72 27.29a.384.384 0 100 .768.384.384 0 000-.767zM40.226 29.973h4.597v-4.598h-4.597v4.598zM35.628 29.973h4.598v-4.598h-4.598v4.598z" fill="#190066"/><path d="M31.031 29.973h4.597v-4.598h-4.597v4.598z" fill="#6119EF"/><path d="M26.433 29.973h4.598v-4.598h-4.598v4.598zM127.574 25.375h4.597v-4.597h-4.597v4.597zM118.379 25.375h4.598v-4.597h-4.598v4.597z" fill="#190066"/><path d="M113.783 25.375h4.597v-4.597h-4.597v4.597z" fill="#190066"/><path d="M109.185 25.375h4.598v-4.597h-4.598v4.597z" fill="#6119EF"/><path d="M104.588 25.375h4.597v-4.597h-4.597v4.597z" fill="#FF8D4C"/><path d="M97.692 23.46a.384.384 0 110-.767.384.384 0 010 .767z" fill="#6119EF"/><path d="M93.094 22.693a.384.384 0 100 .767.384.384 0 000-.767zM86.198 25.375h4.597v-4.597h-4.597v4.597z" fill="#190066"/><path d="M83.9 24.082a1.007 1.007 0 010-2.01 1.007 1.007 0 010 2.01zm0 1.293a2.298 2.298 0 10.001-4.595 2.298 2.298 0 000 4.595z" fill="#FFF068"/><path d="M79.303 21.927a1.15 1.15 0 100 2.3 1.15 1.15 0 000-2.3z" fill="#FFBEF1"/><path d="M74.706 22.693a.384.384 0 100 .767.384.384 0 000-.767z" fill="#190066"/><path d="M70.109 21.927a1.15 1.15 0 100 2.299 1.15 1.15 0 000-2.299z" fill="#FFBEF1"/><path d="M65.51 22.693a.384.384 0 10.001.768.384.384 0 000-.768zM60.914 22.693a.384.384 0 100 .767.384.384 0 000-.767z" fill="#190066"/><path d="M56.316 22.693a.384.384 0 100 .768.384.384 0 000-.768z" fill="#6119EF"/><path d="M51.72 22.693a.384.384 0 100 .768.384.384 0 000-.768zM44.823 25.375h4.597v-4.597h-4.597v4.597z" fill="#190066"/><path d="M40.226 25.375h4.597v-4.597h-4.597v4.597z" fill="#6119EF"/><path d="M35.628 25.375h4.598v-4.597h-4.598v4.597z" fill="#FF8D4C"/><path d="M31.031 25.375h4.597v-4.597h-4.597v4.597zM127.574 20.778h4.597v-4.597h-4.597v4.597zM122.976 20.778h4.598v-4.597h-4.598v4.597z" fill="#190066"/><path d="M118.379 20.778h4.598v-4.597h-4.598v4.597z" fill="#190066"/><path d="M113.783 20.778h4.597v-4.597h-4.597v4.597z" fill="#FF8D4C"/><path d="M109.185 20.778h4.598v-4.597h-4.598v4.597z" fill="#190066"/><path d="M106.887 18.096a.384.384 0 100 .768.384.384 0 000-.768z" fill="#6119EF"/><path d="M102.289 18.096a.383.383 0 100 .766.383.383 0 000-.766z" fill="#190066"/><path d="M97.692 18.863a.384.384 0 110-.767.384.384 0 010 .767zM90.796 20.778h4.597v-4.597h-4.597v4.597z" fill="#6119EF"/><path d="M88.497 16.18a2.299 2.299 0 100 4.598 2.299 2.299 0 000-4.597z" fill="#6119EF"/><path d="M83.9 16.18a2.299 2.299 0 100 4.598 2.299 2.299 0 000-4.597z" fill="#6119EF"/><path d="M79.303 17.33a1.15 1.15 0 100 2.299 1.15 1.15 0 000-2.299z" fill="#FFBEF1"/><path d="M73.938 19.245h1.533v-1.533h-1.533v1.533z" fill="#61DFFF"/><path d="M70.109 18.096a.384.384 0 100 .767.384.384 0 000-.767z" fill="#6119EF"/><path d="M65.51 18.096a.384.384 0 10.001.767.384.384 0 000-.767zM58.615 20.778h4.597v-4.597h-4.597v4.597z" fill="#190066"/><path d="M56.317 16.18a2.299 2.299 0 100 4.598 2.299 2.299 0 000-4.597z" fill="#6119EF"/><path d="M51.72 19.485a1.007 1.007 0 010-2.011 1.007 1.007 0 010 2.011zm0 1.293a2.298 2.298 0 100-4.596 2.298 2.298 0 000 4.596z" fill="#FFF068"/><path d="M44.823 20.778h4.597v-4.597h-4.597v4.597z" fill="#FF8D4C"/><path d="M40.226 20.778h4.597v-4.597h-4.597v4.597z" fill="#6119EF"/><path d="M35.628 20.778h4.598v-4.597h-4.598v4.597zM127.574 16.18h4.597v-4.596h-4.597v4.597zM122.976 16.18h4.598v-4.596h-4.598v4.597z" fill="#190066"/><path d="M118.379 16.18h4.598v-4.596h-4.598v4.597z" fill="#190066"/><path d="M113.783 16.18h4.597v-4.596h-4.597v4.597z" fill="#6119EF"/><path d="M109.185 16.18h4.598v-4.596h-4.598v4.597z" fill="#190066"/><path d="M106.887 13.499a.384.384 0 100 .767.384.384 0 000-.767z" fill="#6119EF"/><path d="M102.289 13.499a.383.383 0 100 .766.383.383 0 000-.766z" fill="#190066"/><path d="M95.393 16.18h4.597v-4.596h-4.597v4.597z" fill="#FF8D4C"/><path d="M90.796 16.18h4.597v-4.596h-4.597v4.597z" fill="#6119EF"/><path d="M88.497 11.584a2.299 2.299 0 100 4.597 2.299 2.299 0 000-4.597z" fill="#6119EF"/><path d="M83.133 14.648h1.532v-1.533h-1.532v1.533z" fill="#61DFFF"/><path d="M79.303 13.499a.384.384 0 100 .767.384.384 0 000-.767z" fill="#6119EF"/><path d="M74.706 13.499a.384.384 0 100 .767.384.384 0 000-.767z" fill="#190066"/><path d="M70.109 13.499a.384.384 0 100 .767.384.384 0 000-.767z" fill="#6119EF"/><path d="M63.212 16.18h4.598v-4.596h-4.598v4.597z" fill="#FF8D4C"/><path d="M58.615 16.18h4.597v-4.596h-4.597v4.597z" fill="#190066"/><path d="M56.317 11.584a2.299 2.299 0 100 4.597 2.299 2.299 0 000-4.597z" fill="#6119EF"/><path d="M49.42 16.18h4.598v-4.596h-4.597v4.597z" fill="#190066"/><path d="M44.823 16.18h4.597v-4.596h-4.597v4.597z" fill="#FF8D4C"/><path d="M40.226 16.18h4.597v-4.596h-4.597v4.597z" fill="#6119EF"/><path d="M127.574 11.584h4.597V6.986h-4.597v4.598z" fill="#FF8D4C"/><path d="M122.976 11.584h4.598V6.986h-4.598v4.598z" fill="#190066"/><path d="M118.379 11.584h4.598V6.986h-4.598v4.598z" fill="#6119EF"/><path d="M113.783 11.584h4.597V6.986h-4.597v4.598z" fill="#190066"/><path d="M111.484 8.901a.383.383 0 100 .766.383.383 0 000-.766z" fill="#6119EF"/><path d="M106.887 8.901a.384.384 0 100 .768.384.384 0 000-.768zM102.289 8.901a.383.383 0 100 .766.383.383 0 000-.766z" fill="#190066"/><path d="M97.692 9.669a.384.384 0 110-.767.384.384 0 010 .767z" fill="#6119EF"/><path d="M93.094 8.136a1.15 1.15 0 100 2.298 1.15 1.15 0 000-2.298z" fill="#FFBEF1"/><path d="M88.497 6.986a2.299 2.299 0 100 4.598 2.299 2.299 0 000-4.598z" fill="#6119EF"/><path d="M83.133 10.05h1.532V8.519h-1.532v1.533z" fill="#61DFFF"/><path d="M79.303 8.901a.384.384 0 100 .768.384.384 0 000-.768z" fill="#6119EF"/><path d="M74.706 8.901a.384.384 0 100 .768.384.384 0 000-.768z" fill="#FF8D4C"/><path d="M67.81 11.584h4.597V6.986H67.81v4.598z" fill="#190066"/><path d="M65.51 6.986a2.299 2.299 0 100 4.598 2.299 2.299 0 000-4.598z" fill="#6119EF"/><path d="M58.615 11.584h4.597V6.986h-4.597v4.598z" fill="#190066"/><path d="M56.317 6.986a2.299 2.299 0 100 4.598 2.299 2.299 0 000-4.598z" fill="#6119EF"/><path d="M49.42 11.584h4.598V6.986h-4.597v4.598z" fill="#190066"/><path d="M47.122 10.29a1.007 1.007 0 010-2.01 1.007 1.007 0 010 2.01zm0 1.294a2.298 2.298 0 10.001-4.596 2.298 2.298 0 00-.001 4.596z" fill="#FFF068"/><path d="M125.276 4.304a.384.384 0 100 .768.384.384 0 000-.768zM120.678 4.304a.384.384 0 10.001.767.384.384 0 00-.001-.767zM113.783 6.986h4.597V2.39h-4.597v4.597z" fill="#190066"/><path d="M111.484 4.304a.383.383 0 100 .766.383.383 0 000-.766z" fill="#6119EF"/><path d="M106.119 5.453h1.533V3.921h-1.533v1.532z" fill="#61DFFF"/><path d="M102.289 4.304a.383.383 0 100 .766.383.383 0 000-.766z" fill="#190066"/><path d="M97.692 3.538a1.15 1.15 0 100 2.299 1.15 1.15 0 000-2.299z" fill="#FFBEF1"/><path d="M93.094 4.304a.384.384 0 100 .767.384.384 0 000-.767z" fill="#190066"/><path d="M88.497 3.538a1.15 1.15 0 100 2.3 1.15 1.15 0 000-2.3z" fill="#FFBEF1"/><path d="M83.9 4.304a.384.384 0 100 .767.384.384 0 000-.767zM77.004 6.986h4.598V2.39h-4.598v4.597z" fill="#190066"/><path d="M74.705 5.693a1.007 1.007 0 010-2.01 1.007 1.007 0 010 2.01zm0 1.293a2.298 2.298 0 10.002-4.596 2.298 2.298 0 00-.002 4.596z" fill="#FFF068"/><path d="M70.109 5.693a1.007 1.007 0 010-2.01 1.007 1.007 0 010 2.01zm0 1.293a2.298 2.298 0 100-4.596 2.298 2.298 0 000 4.596z" fill="#FFF068"/><path d="M65.51 2.39a2.299 2.299 0 100 4.596 2.299 2.299 0 000-4.597z" fill="#6119EF"/><path d="M60.914 2.39a2.299 2.299 0 100 4.596 2.299 2.299 0 000-4.597z" fill="#6119EF"/><path d="M54.018 6.986h4.597V2.39h-4.597v4.597z" fill="#190066"/><path d="M51.719 3.538a1.15 1.15 0 100 2.299 1.15 1.15 0 000-2.299z" fill="#FFBEF1"/><path d="M127.574 2.39h4.597v-4.598h-4.597v4.597z" fill="#FF8D4C"/><path d="M125.276-1.059a1.149 1.149 0 100 2.298 1.149 1.149 0 000-2.298z" fill="#FFBEF1"/><path d="M120.678-.293a.384.384 0 10.001.767.384.384 0 00-.001-.767z" fill="#FF8D4C"/><path d="M116.081-.293a.384.384 0 100 .768.384.384 0 000-.768z" fill="#190066"/><path d="M111.484-.293a.383.383 0 100 .766.383.383 0 000-.766z" fill="#6119EF"/><path d="M106.119.856h1.533V-.677h-1.533V.856zM101.522.856h1.533V-.677h-1.533V.856z" fill="#61DFFF"/><path d="M97.692-1.059a1.15 1.15 0 100 2.299 1.15 1.15 0 000-2.299z" fill="#FFBEF1"/><path d="M93.094-.293a.384.384 0 100 .767.384.384 0 000-.767zM86.198 2.39h4.597v-4.598h-4.597v4.597z" fill="#190066"/><path d="M81.602 2.39h4.597v-4.598h-4.597v4.597zM77.004 2.39h4.598v-4.598h-4.598v4.597z" fill="#190066"/><path d="M74.705-2.208a2.299 2.299 0 100 4.597 2.299 2.299 0 000-4.597z" fill="#6119EF"/><path d="M70.109 1.096a1.007 1.007 0 010-2.011 1.007 1.007 0 010 2.011zm0 1.293a2.298 2.298 0 100-4.596 2.298 2.298 0 000 4.596z" fill="#FFF068"/><path d="M65.51-2.208a2.299 2.299 0 100 4.597 2.299 2.299 0 000-4.597z" fill="#6119EF"/><path d="M60.146.856h1.533V-.677h-1.533V.856z" fill="#61DFFF"/></g><defs><clipPath id="prefix__clip0_2203_570"><path fill="#fff" transform="rotate(180 118.954 111.529)" d="M0 0h237.909v239.058H0z"/></clipPath></defs></svg>