<svg width="157" height="167" fill="none" xmlns="http://www.w3.org/2000/svg"><g clip-path="url(#prefix__clip0_2203_8123)"><path d="M100.222 4.9a2.447 2.447 0 01-2.444-2.45A2.447 2.447 0 01100.222 0a2.448 2.448 0 012.445 2.45 2.448 2.448 0 01-2.445 2.45z" fill="#6119EF"/><path d="M92.889 0h4.889v4.9h-4.89V0z" fill="#190066"/><path d="M88 0h4.889v4.9H88V0z" fill="#190066"/><path d="M85.555 4.9a2.447 2.447 0 01-2.444-2.45A2.447 2.447 0 0185.555 0 2.447 2.447 0 0188 2.45a2.447 2.447 0 01-2.445 2.45zM110 9.8a2.448 2.448 0 01-2.445-2.45A2.448 2.448 0 01110 4.9a2.447 2.447 0 012.444 2.45A2.447 2.447 0 01110 9.8z" fill="#6119EF"/><path d="M102.667 4.9h4.889v4.9h-4.889V4.9z" fill="#190066"/><path d="M100.222 9.8a2.447 2.447 0 01-2.444-2.45 2.447 2.447 0 012.444-2.45 2.448 2.448 0 012.445 2.45 2.448 2.448 0 01-2.445 2.45z" fill="#6119EF"/><path d="M94.52 6.533h1.629v1.632h-1.63V6.533z" fill="#190066"/><path d="M90.445 9.8A2.447 2.447 0 0188 7.35a2.447 2.447 0 012.445-2.45 2.447 2.447 0 012.444 2.45 2.447 2.447 0 01-2.444 2.45z" fill="#6119EF"/><path d="M85.555 9.8a2.447 2.447 0 01-2.444-2.45 2.447 2.447 0 012.444-2.45A2.447 2.447 0 0188 7.35a2.447 2.447 0 01-2.445 2.45z" fill="#6119EF"/><path d="M112.444 9.8h4.889v4.9h-4.889V9.8zM107.555 9.8h4.889v4.9h-4.889V9.8z" fill="#190066"/><path d="M102.667 9.8h4.889v4.9h-4.889V9.8zM97.778 9.8h4.889v4.9h-4.89V9.8z" fill="#190066"/><path d="M92.889 9.8h4.889v4.9h-4.89V9.8z" fill="#190066"/><path d="M88 9.8h4.889v4.9H88V9.8zM83.111 9.8H88v4.9H83.11V9.8z" fill="#190066"/><path d="M80.667 14.7a2.447 2.447 0 01-2.445-2.45 2.447 2.447 0 012.445-2.45 2.447 2.447 0 012.444 2.45 2.447 2.447 0 01-2.444 2.45z" fill="#6119EF"/><path d="M122.222 14.7h4.889v4.9h-4.889v-4.9zM117.333 14.7h4.889v4.9h-4.889v-4.9zM114.075 16.332h1.629v1.633h-1.629v-1.633zM109.186 16.332h1.629v1.633h-1.629v-1.633zM104.297 16.332h1.63v1.633h-1.63v-1.633zM97.778 14.7h4.889v4.9h-4.89v-4.9z" fill="#190066"/><path d="M92.889 14.7h4.889v4.9h-4.89v-4.9z" fill="#190066"/><path d="M88 14.7h4.889v4.9H88v-4.9zM83.111 14.7H88v4.9H83.11v-4.9z" fill="#190066"/><path d="M78.222 14.7h4.89v4.9h-4.89v-4.9z" fill="#190066"/><path d="M124.667 24.5a2.448 2.448 0 01-2.445-2.45 2.448 2.448 0 012.445-2.45 2.447 2.447 0 012.444 2.45 2.447 2.447 0 01-2.444 2.45z" fill="#6119EF"/><path d="M117.333 19.6h4.889v4.9h-4.889v-4.9zM112.444 19.6h4.889v4.9h-4.889v-4.9zM107.555 19.6h4.889v4.9h-4.889v-4.9z" fill="#190066"/><path d="M102.667 19.6h4.889v4.9h-4.889v-4.9zM97.778 19.6h4.889v4.9h-4.89v-4.9z" fill="#190066"/><path d="M92.889 19.6h4.889v4.9h-4.89v-4.9z" fill="#190066"/><path d="M88 19.6h4.889v4.9H88v-4.9z" fill="#190066"/><path d="M83.111 19.6H88v4.9H83.11v-4.9z" fill="#FFF068"/><path d="M78.222 19.6h4.89v4.9h-4.89v-4.9z" fill="#190066"/><path d="M139.333 29.4a2.447 2.447 0 01-2.444-2.45 2.447 2.447 0 012.444-2.45 2.448 2.448 0 012.445 2.45 2.448 2.448 0 01-2.445 2.45z" fill="#6119EF"/><path d="M132 24.5h4.889v4.9H132v-4.9z" fill="#190066"/><path d="M129.556 29.4a2.448 2.448 0 01-2.445-2.45 2.448 2.448 0 012.445-2.45A2.447 2.447 0 01132 26.95a2.447 2.447 0 01-2.444 2.45z" fill="#6119EF"/><path d="M124.667 29.4a2.448 2.448 0 01-2.445-2.45 2.448 2.448 0 012.445-2.45 2.447 2.447 0 012.444 2.45 2.447 2.447 0 01-2.444 2.45z" fill="#6119EF"/><path d="M117.333 24.5h4.889v4.9h-4.889v-4.9zM112.444 24.5h4.889v4.9h-4.889v-4.9zM107.555 24.5h4.889v4.9h-4.889v-4.9z" fill="#190066"/><path d="M102.667 24.5h4.889v4.9h-4.889v-4.9zM97.778 24.5h4.889v4.9h-4.89v-4.9z" fill="#190066"/><path d="M95.333 29.4a2.447 2.447 0 01-2.444-2.45 2.447 2.447 0 012.444-2.45 2.447 2.447 0 012.445 2.45 2.447 2.447 0 01-2.445 2.45z" fill="#6119EF"/><path d="M88 24.5h4.889v4.9H88v-4.9zM83.111 24.5H88v4.9H83.11v-4.9z" fill="#190066"/><path d="M78.222 24.5h4.89v4.9h-4.89v-4.9zM141.778 29.4h4.889v4.9h-4.889v-4.9z" fill="#190066"/><path d="M139.333 34.3a2.447 2.447 0 01-2.444-2.45 2.447 2.447 0 012.444-2.45 2.448 2.448 0 012.445 2.45 2.448 2.448 0 01-2.445 2.45z" fill="#6119EF"/><path d="M132 29.4h4.889v4.9H132v-4.9zM128.742 31.032h1.629v1.633h-1.629v-1.633z" fill="#190066"/><path d="M124.667 34.3a2.448 2.448 0 01-2.445-2.45 2.448 2.448 0 012.445-2.45 2.447 2.447 0 012.444 2.45 2.447 2.447 0 01-2.444 2.45z" fill="#6119EF"/><path d="M117.333 29.4h4.889v4.9h-4.889v-4.9zM112.444 29.4h4.889v4.9h-4.889v-4.9zM107.555 29.4h4.889v4.9h-4.889v-4.9z" fill="#190066"/><path d="M105.111 34.3a2.447 2.447 0 01-2.444-2.45 2.447 2.447 0 012.444-2.45 2.448 2.448 0 012.445 2.45 2.448 2.448 0 01-2.445 2.45z" fill="#6119EF"/><path d="M100.222 34.3a2.447 2.447 0 01-2.444-2.45 2.447 2.447 0 012.444-2.45 2.448 2.448 0 012.445 2.45 2.448 2.448 0 01-2.445 2.45z" fill="#6119EF"/><path d="M95.333 34.3a2.447 2.447 0 01-2.444-2.45 2.447 2.447 0 012.444-2.45 2.447 2.447 0 012.445 2.45 2.447 2.447 0 01-2.445 2.45z" fill="#6119EF"/><path d="M90.445 34.3A2.447 2.447 0 0188 31.85a2.447 2.447 0 012.445-2.45 2.447 2.447 0 012.444 2.45 2.447 2.447 0 01-2.444 2.45z" fill="#6119EF"/><path d="M83.111 29.4H88v4.9H83.11v-4.9z" fill="#190066"/><path d="M78.222 29.4h4.89v4.9h-4.89v-4.9z" fill="#190066"/><path d="M73.333 29.4h4.89v4.9h-4.89v-4.9z" fill="#190066"/><path d="M149.111 39.2a2.447 2.447 0 01-2.444-2.45 2.447 2.447 0 012.444-2.45 2.448 2.448 0 012.445 2.45 2.448 2.448 0 01-2.445 2.45z" fill="#6119EF"/><path d="M144.222 39.2a2.447 2.447 0 01-2.444-2.45 2.447 2.447 0 012.444-2.45 2.448 2.448 0 012.445 2.45 2.448 2.448 0 01-2.445 2.45z" fill="#6119EF"/><path d="M138.52 35.933h1.629v1.633h-1.629v-1.633zM133.631 35.933h1.629v1.633h-1.629v-1.633zM127.111 34.3H132v4.9h-4.889v-4.9zM122.222 34.3h4.889v4.9h-4.889v-4.9zM117.333 34.3h4.889v4.9h-4.889v-4.9zM112.444 34.3h4.889v4.9h-4.889v-4.9z" fill="#190066"/><path d="M110 39.2a2.448 2.448 0 01-2.445-2.45A2.448 2.448 0 01110 34.3a2.447 2.447 0 012.444 2.45A2.447 2.447 0 01110 39.2z" fill="#6119EF"/><path d="M104.297 35.933h1.63v1.633h-1.63v-1.633z" fill="#190066"/><path d="M100.222 39.2a2.447 2.447 0 01-2.444-2.45 2.447 2.447 0 012.444-2.45 2.448 2.448 0 012.445 2.45 2.448 2.448 0 01-2.445 2.45z" fill="#6119EF"/><path d="M92.889 34.3h4.889v4.9h-4.89v-4.9z" fill="#190066"/><path d="M90.445 39.2A2.447 2.447 0 0188 36.75a2.447 2.447 0 012.445-2.45 2.447 2.447 0 012.444 2.45 2.447 2.447 0 01-2.444 2.45z" fill="#6119EF"/><path d="M85.555 39.2a2.447 2.447 0 01-2.444-2.45 2.447 2.447 0 012.444-2.45A2.447 2.447 0 0188 36.75a2.447 2.447 0 01-2.445 2.45z" fill="#6119EF"/><path d="M78.222 34.3h4.89v4.9h-4.89v-4.9z" fill="#190066"/><path d="M73.333 34.3h4.89v4.9h-4.89v-4.9z" fill="#190066"/><path d="M68.444 34.3h4.89v4.9h-4.89v-4.9z" fill="#190066"/><path d="M66 39.2a2.447 2.447 0 01-2.444-2.45A2.447 2.447 0 0166 34.3a2.447 2.447 0 012.445 2.45A2.447 2.447 0 0166 39.2z" fill="#6119EF"/><path d="M146.667 39.2h4.889v4.9h-4.889v-4.9zM136.889 39.2h4.889v4.9h-4.889v-4.9zM132 39.2h4.889v4.9H132v-4.9zM127.111 39.2H132v4.9h-4.889v-4.9zM122.222 39.2h4.889v4.9h-4.889v-4.9zM117.333 39.2h4.889v4.9h-4.889v-4.9zM114.075 40.833h1.629v1.633h-1.629v-1.633zM109.186 40.833h1.629v1.633h-1.629v-1.633zM102.667 39.2h4.889v4.9h-4.889v-4.9zM99.409 40.833h1.629v1.633h-1.63v-1.633z" fill="#190066"/><path d="M95.333 44.1a2.447 2.447 0 01-2.444-2.45 2.447 2.447 0 012.444-2.45 2.447 2.447 0 012.445 2.45 2.447 2.447 0 01-2.445 2.45z" fill="#6119EF"/><path d="M88 39.2h4.889v4.9H88v-4.9zM83.111 39.2H88v4.9H83.11v-4.9z" fill="#190066"/><path d="M78.222 39.2h4.89v4.9h-4.89v-4.9z" fill="#190066"/><path d="M73.333 39.2h4.89v4.9h-4.89v-4.9z" fill="#190066"/><path d="M68.444 39.2h4.89v4.9h-4.89v-4.9z" fill="#190066"/><path d="M63.556 39.2h4.889v4.9h-4.89v-4.9z" fill="#190066"/><path d="M61.111 44.1a2.447 2.447 0 01-2.444-2.45 2.447 2.447 0 012.444-2.45 2.447 2.447 0 012.445 2.45 2.447 2.447 0 01-2.445 2.45z" fill="#6119EF"/><path d="M141.778 44.1h4.889V49h-4.889v-4.9z" fill="#190066"/><path d="M139.333 49a2.447 2.447 0 01-2.444-2.45 2.447 2.447 0 012.444-2.45 2.448 2.448 0 012.445 2.45 2.448 2.448 0 01-2.445 2.45z" fill="#6119EF"/><path d="M132 44.1h4.889V49H132v-4.9zM127.111 44.1H132V49h-4.889v-4.9zM122.222 44.1h4.889V49h-4.889v-4.9zM117.333 44.1h4.889V49h-4.889v-4.9zM112.444 44.1h4.889V49h-4.889v-4.9zM109.186 45.732h1.629v1.633h-1.629v-1.633z" fill="#190066"/><path d="M105.111 49a2.447 2.447 0 01-2.444-2.45 2.447 2.447 0 012.444-2.45 2.448 2.448 0 012.445 2.45 2.448 2.448 0 01-2.445 2.45z" fill="#6119EF"/><path d="M99.409 45.732h1.629v1.633h-1.63v-1.633z" fill="#61DFFF"/><path d="M94.52 45.732h1.629v1.633h-1.63v-1.633zM89.63 45.732h1.63v1.633h-1.63v-1.633z" fill="#190066"/><path d="M85.555 49a2.447 2.447 0 01-2.444-2.45 2.447 2.447 0 012.444-2.45A2.447 2.447 0 0188 46.55 2.447 2.447 0 0185.555 49z" fill="#6119EF"/><path d="M78.222 44.1h4.89V49h-4.89v-4.9z" fill="#190066"/><path d="M75.778 49a2.447 2.447 0 01-2.445-2.45 2.447 2.447 0 012.445-2.45 2.447 2.447 0 012.444 2.45A2.447 2.447 0 0175.778 49z" fill="#6119EF"/><path d="M68.444 44.1h4.89V49h-4.89v-4.9z" fill="#190066"/><path d="M63.556 44.1h4.889V49h-4.89v-4.9z" fill="#190066"/><path d="M61.111 49a2.447 2.447 0 01-2.444-2.45 2.447 2.447 0 012.444-2.45 2.447 2.447 0 012.445 2.45A2.447 2.447 0 0161.11 49z" fill="#6119EF"/><path d="M53.778 44.1h4.889V49h-4.89v-4.9zM141.778 49h4.889v4.9h-4.889V49z" fill="#190066"/><path d="M136.889 49h4.889v4.9h-4.889V49zM132 49h4.889v4.9H132V49z" fill="#190066"/><path d="M129.556 53.9a2.448 2.448 0 01-2.445-2.45 2.448 2.448 0 012.445-2.45A2.447 2.447 0 01132 51.45a2.447 2.447 0 01-2.444 2.45z" fill="#6119EF"/><path d="M123.853 50.633h1.629v1.633h-1.629v-1.633z" fill="#190066"/><path d="M119.778 53.9a2.448 2.448 0 01-2.445-2.45 2.448 2.448 0 012.445-2.45 2.447 2.447 0 012.444 2.45 2.447 2.447 0 01-2.444 2.45z" fill="#6119EF"/><path d="M114.075 50.633h1.629v1.633h-1.629v-1.633zM109.186 50.633h1.629v1.633h-1.629v-1.633zM104.297 50.633h1.63v1.633h-1.63v-1.633zM97.778 49h4.889v4.9h-4.89V49z" fill="#190066"/><path d="M92.889 49h4.889v4.9h-4.89V49zM89.63 50.633h1.63v1.633h-1.63v-1.633zM84.742 50.633h1.629v1.633h-1.63v-1.633zM78.222 49h4.89v4.9h-4.89V49z" fill="#190066"/><path d="M73.333 49h4.89v4.9h-4.89V49z" fill="#190066"/><path d="M70.889 53.9a2.447 2.447 0 01-2.445-2.45A2.447 2.447 0 0170.89 49a2.447 2.447 0 012.444 2.45 2.447 2.447 0 01-2.444 2.45z" fill="#6119EF"/><path d="M63.556 49h4.889v4.9h-4.89V49z" fill="#190066"/><path d="M58.667 49h4.889v4.9h-4.89V49z" fill="#190066"/><path d="M56.222 53.9a2.447 2.447 0 01-2.444-2.45A2.447 2.447 0 0156.222 49a2.447 2.447 0 012.445 2.45 2.447 2.447 0 01-2.445 2.45z" fill="#6119EF"/><path d="M48.889 49h4.889v4.9h-4.89V49zM156.444 53.9h4.889v4.9h-4.889v-4.9z" fill="#190066"/><path d="M154 58.8a2.447 2.447 0 01-2.444-2.45A2.447 2.447 0 01154 53.9a2.447 2.447 0 012.444 2.45A2.447 2.447 0 01154 58.8z" fill="#6119EF"/><path d="M146.667 53.9h4.889v4.9h-4.889v-4.9zM141.778 53.9h4.889v4.9h-4.889v-4.9z" fill="#190066"/><path d="M139.333 58.8a2.447 2.447 0 01-2.444-2.45 2.447 2.447 0 012.444-2.45 2.448 2.448 0 012.445 2.45 2.448 2.448 0 01-2.445 2.45z" fill="#6119EF"/><path d="M132 53.9h4.889v4.9H132v-4.9z" fill="#190066"/><path d="M129.556 58.8a2.448 2.448 0 01-2.445-2.45 2.448 2.448 0 012.445-2.45A2.447 2.447 0 01132 56.35a2.447 2.447 0 01-2.444 2.45z" fill="#6119EF"/><path d="M123.853 55.533h1.629v1.633h-1.629v-1.633zM118.964 55.533h1.629v1.633h-1.629v-1.633zM114.075 55.533h1.629v1.633h-1.629v-1.633zM107.555 53.9h4.889v4.9h-4.889v-4.9z" fill="#190066"/><path d="M105.111 58.8a2.447 2.447 0 01-2.444-2.45 2.447 2.447 0 012.444-2.45 2.448 2.448 0 012.445 2.45 2.448 2.448 0 01-2.445 2.45z" fill="#6119EF"/><path d="M100.222 58.8a2.447 2.447 0 01-2.444-2.45 2.447 2.447 0 012.444-2.45 2.448 2.448 0 012.445 2.45 2.448 2.448 0 01-2.445 2.45z" fill="#6119EF"/><path d="M95.333 58.8a2.447 2.447 0 01-2.444-2.45 2.447 2.447 0 012.444-2.45 2.447 2.447 0 012.445 2.45 2.447 2.447 0 01-2.445 2.45z" fill="#6119EF"/><path d="M90.445 58.8A2.447 2.447 0 0188 56.35a2.447 2.447 0 012.445-2.45 2.447 2.447 0 012.444 2.45 2.447 2.447 0 01-2.444 2.45z" fill="#6119EF"/><path d="M79.853 55.533h1.63v1.633h-1.63v-1.633z" fill="#61DFFF"/><path d="M73.333 53.9h4.89v4.9h-4.89v-4.9z" fill="#190066"/><path d="M68.444 53.9h4.89v4.9h-4.89v-4.9z" fill="#190066"/><path d="M63.556 53.9h4.889v4.9h-4.89v-4.9z" fill="#190066"/><path d="M58.667 53.9h4.889v4.9h-4.89v-4.9z" fill="#190066"/><path d="M53.778 53.9h4.889v4.9h-4.89v-4.9zM156.444 58.8h4.889v4.9h-4.889v-4.9z" fill="#190066"/><path d="M151.556 58.8h4.888v4.9h-4.888v-4.9zM148.297 60.433h1.63v1.633h-1.63v-1.633zM143.409 60.433h1.629v1.633h-1.629v-1.633zM138.52 60.433h1.629v1.633h-1.629v-1.633zM132 58.8h4.889v4.9H132v-4.9zM128.742 60.433h1.629v1.633h-1.629v-1.633zM123.853 60.433h1.629v1.633h-1.629v-1.633zM118.964 60.433h1.629v1.633h-1.629v-1.633z" fill="#190066"/><path d="M114.889 63.7a2.448 2.448 0 01-2.445-2.45 2.448 2.448 0 012.445-2.45 2.447 2.447 0 012.444 2.45 2.447 2.447 0 01-2.444 2.45z" fill="#6119EF"/><path d="M110 63.7a2.448 2.448 0 01-2.445-2.45A2.448 2.448 0 01110 58.8a2.447 2.447 0 012.444 2.45A2.447 2.447 0 01110 63.7z" fill="#6119EF"/><path d="M102.667 58.8h4.889v4.9h-4.889v-4.9zM97.778 58.8h4.889v4.9h-4.89v-4.9z" fill="#190066"/><path d="M92.889 58.8h4.889v4.9h-4.89v-4.9z" fill="#190066"/><path d="M90.445 63.7A2.447 2.447 0 0188 61.25a2.447 2.447 0 012.445-2.45 2.447 2.447 0 012.444 2.45 2.447 2.447 0 01-2.444 2.45z" fill="#6119EF"/><path d="M83.111 58.8H88v4.9H83.11v-4.9zM79.853 60.433h1.63v1.633h-1.63v-1.633zM74.964 60.433h1.63v1.633h-1.63v-1.633zM68.444 58.8h4.89v4.9h-4.89v-4.9z" fill="#190066"/><path d="M63.556 58.8h4.889v4.9h-4.89v-4.9z" fill="#190066"/><path d="M58.667 58.8h4.889v4.9h-4.89v-4.9zM156.444 63.7h4.889v4.9h-4.889v-4.9z" fill="#190066"/><path d="M151.556 63.7h4.888v4.9h-4.888v-4.9zM148.297 65.333h1.63v1.633h-1.63v-1.633zM141.778 63.7h4.889v4.9h-4.889v-4.9zM138.52 65.333h1.629v1.633h-1.629v-1.633zM133.631 65.333h1.629v1.633h-1.629v-1.633z" fill="#190066"/><path d="M129.556 68.6a2.448 2.448 0 01-2.445-2.45 2.448 2.448 0 012.445-2.45A2.447 2.447 0 01132 66.15a2.447 2.447 0 01-2.444 2.45z" fill="#6119EF"/><path d="M124.667 68.6a2.448 2.448 0 01-2.445-2.45 2.448 2.448 0 012.445-2.45 2.447 2.447 0 012.444 2.45 2.447 2.447 0 01-2.444 2.45z" fill="#6119EF"/><path d="M117.333 63.7h4.889v4.9h-4.889v-4.9z" fill="#190066"/><path d="M114.889 68.6a2.448 2.448 0 01-2.445-2.45 2.448 2.448 0 012.445-2.45 2.447 2.447 0 012.444 2.45 2.447 2.447 0 01-2.444 2.45z" fill="#6119EF"/><path d="M107.555 63.7h4.889v4.9h-4.889v-4.9z" fill="#190066"/><path d="M102.667 63.7h4.889v4.9h-4.889v-4.9z" fill="#190066"/><path d="M100.222 68.6a2.447 2.447 0 01-2.444-2.45 2.447 2.447 0 012.444-2.45 2.448 2.448 0 012.445 2.45 2.448 2.448 0 01-2.445 2.45z" fill="#6119EF"/><path d="M92.889 63.7h4.889v4.9h-4.89v-4.9z" fill="#190066"/><path d="M88 63.7h4.889v4.9H88v-4.9zM83.111 63.7H88v4.9H83.11v-4.9z" fill="#190066"/><path d="M78.222 63.7h4.89v4.9h-4.89v-4.9zM74.964 65.333h1.63v1.633h-1.63v-1.633z" fill="#190066"/><path d="M70.889 68.6a2.447 2.447 0 01-2.445-2.45 2.447 2.447 0 012.445-2.45 2.447 2.447 0 012.444 2.45 2.447 2.447 0 01-2.444 2.45z" fill="#6119EF"/><path d="M65.186 65.333h1.63v1.633h-1.63v-1.633zM58.667 63.7h4.889v4.9h-4.89v-4.9z" fill="#190066"/><path d="M56.222 68.6a2.447 2.447 0 01-2.444-2.45 2.447 2.447 0 012.444-2.45 2.447 2.447 0 012.445 2.45 2.447 2.447 0 01-2.445 2.45zM158.889 73.501a2.448 2.448 0 01-2.445-2.45 2.448 2.448 0 012.445-2.45 2.447 2.447 0 012.444 2.45 2.447 2.447 0 01-2.444 2.45z" fill="#6119EF"/><path d="M153.186 70.233h1.629v1.632h-1.629v-1.632zM146.667 68.601h4.889v4.9h-4.889v-4.9zM143.409 70.233h1.629v1.632h-1.629v-1.632z" fill="#190066"/><path d="M139.333 73.501a2.447 2.447 0 01-2.444-2.45 2.447 2.447 0 012.444-2.45 2.448 2.448 0 012.445 2.45 2.448 2.448 0 01-2.445 2.45z" fill="#6119EF"/><path d="M133.631 70.233h1.629v1.632h-1.629v-1.632zM127.111 68.601H132v4.9h-4.889v-4.9zM122.222 68.601h4.889v4.9h-4.889v-4.9zM117.333 68.601h4.889v4.9h-4.889v-4.9zM112.444 68.601h4.889v4.9h-4.889v-4.9zM107.555 68.601h4.889v4.9h-4.889v-4.9z" fill="#190066"/><path d="M105.111 73.501a2.447 2.447 0 01-2.444-2.45 2.447 2.447 0 012.444-2.45 2.448 2.448 0 012.445 2.45 2.448 2.448 0 01-2.445 2.45z" fill="#6119EF"/><path d="M100.222 73.501a2.447 2.447 0 01-2.444-2.45 2.447 2.447 0 012.444-2.45 2.448 2.448 0 012.445 2.45 2.448 2.448 0 01-2.445 2.45z" fill="#6119EF"/><path d="M95.333 73.501a2.447 2.447 0 01-2.444-2.45 2.447 2.447 0 012.444-2.45 2.447 2.447 0 012.445 2.45 2.447 2.447 0 01-2.445 2.45z" fill="#6119EF"/><path d="M90.445 73.501A2.447 2.447 0 0188 71.051a2.447 2.447 0 012.445-2.45 2.447 2.447 0 012.444 2.45 2.447 2.447 0 01-2.444 2.45z" fill="#6119EF"/><path d="M83.111 68.601H88v4.9H83.11v-4.9z" fill="#190066"/><path d="M78.222 68.601h4.89v4.9h-4.89v-4.9z" fill="#190066"/><path d="M73.333 68.601h4.89v4.9h-4.89v-4.9z" fill="#190066"/><path d="M70.889 73.501a2.447 2.447 0 01-2.445-2.45 2.447 2.447 0 012.445-2.45 2.447 2.447 0 012.444 2.45 2.447 2.447 0 01-2.444 2.45z" fill="#6119EF"/><path d="M66 73.501a2.447 2.447 0 01-2.444-2.45A2.447 2.447 0 0166 68.601a2.447 2.447 0 012.445 2.45A2.447 2.447 0 0166 73.501z" fill="#6119EF"/><path d="M58.667 68.601h4.889v4.9h-4.89v-4.9z" fill="#190066"/><path d="M53.778 68.601h4.889v4.9h-4.89v-4.9z" fill="#190066"/><path d="M48.889 68.601h4.889v4.9h-4.89v-4.9zM156.444 73.5h4.889v4.9h-4.889v-4.9z" fill="#190066"/><path d="M154 78.4a2.447 2.447 0 01-2.444-2.45A2.447 2.447 0 01154 73.5a2.447 2.447 0 012.444 2.45A2.447 2.447 0 01154 78.4z" fill="#6119EF"/><path d="M148.297 75.133h1.63v1.632h-1.63v-1.632zM143.409 75.133h1.629v1.632h-1.629v-1.632zM136.889 73.5h4.889v4.9h-4.889v-4.9zM132 73.5h4.889v4.9H132v-4.9zM127.111 73.5H132v4.9h-4.889v-4.9z" fill="#190066"/><path d="M124.667 78.4a2.448 2.448 0 01-2.445-2.45 2.448 2.448 0 012.445-2.45 2.447 2.447 0 012.444 2.45 2.447 2.447 0 01-2.444 2.45z" fill="#6119EF"/><path d="M117.333 73.5h4.889v4.9h-4.889v-4.9z" fill="#190066"/><path d="M112.444 73.5h4.889v4.9h-4.889v-4.9z" fill="#FF8D4C"/><path d="M107.555 73.5h4.889v4.9h-4.889v-4.9z" fill="#190066"/><path d="M102.667 73.5h4.889v4.9h-4.889v-4.9zM99.409 75.133h1.629v1.632h-1.63v-1.632z" fill="#190066"/><path d="M95.333 78.4a2.447 2.447 0 01-2.444-2.45 2.447 2.447 0 012.444-2.45 2.447 2.447 0 012.445 2.45 2.447 2.447 0 01-2.445 2.45z" fill="#6119EF"/><path d="M90.445 78.4A2.447 2.447 0 0188 75.95a2.447 2.447 0 012.445-2.45 2.447 2.447 0 012.444 2.45 2.447 2.447 0 01-2.444 2.45z" fill="#6119EF"/><path d="M85.555 78.4a2.447 2.447 0 01-2.444-2.45 2.447 2.447 0 012.444-2.45A2.447 2.447 0 0188 75.95a2.447 2.447 0 01-2.445 2.45z" fill="#6119EF"/><path d="M78.222 73.5h4.89v4.9h-4.89v-4.9z" fill="#190066"/><path d="M75.778 78.4a2.447 2.447 0 01-2.445-2.45 2.447 2.447 0 012.445-2.45 2.447 2.447 0 012.444 2.45 2.447 2.447 0 01-2.444 2.45z" fill="#6119EF"/><path d="M68.444 73.5h4.89v4.9h-4.89v-4.9z" fill="#190066"/><path d="M66 78.4a2.447 2.447 0 01-2.444-2.45A2.447 2.447 0 0166 73.5a2.447 2.447 0 012.445 2.45A2.447 2.447 0 0166 78.4z" fill="#6119EF"/><path d="M60.297 75.133h1.63v1.632h-1.63v-1.632zM53.778 73.5h4.889v4.9h-4.89v-4.9z" fill="#190066"/><path d="M48.889 73.5h4.889v4.9h-4.89v-4.9zM153.186 80.032h1.629v1.633h-1.629v-1.633zM148.297 80.032h1.63v1.633h-1.63v-1.633zM141.778 78.4h4.889v4.9h-4.889v-4.9z" fill="#190066"/><path d="M136.889 78.4h4.889v4.9h-4.889v-4.9zM132 78.4h4.889v4.9H132v-4.9zM127.111 78.4H132v4.9h-4.889v-4.9zM122.222 78.4h4.889v4.9h-4.889v-4.9zM117.333 78.4h4.889v4.9h-4.889v-4.9zM112.444 78.4h4.889v4.9h-4.889v-4.9z" fill="#190066"/><path d="M110 83.3a2.448 2.448 0 01-2.445-2.45A2.448 2.448 0 01110 78.4a2.447 2.447 0 012.444 2.45A2.447 2.447 0 01110 83.3z" fill="#6119EF"/><path d="M105.111 83.3a2.447 2.447 0 01-2.444-2.45 2.447 2.447 0 012.444-2.45 2.448 2.448 0 012.445 2.45 2.448 2.448 0 01-2.445 2.45z" fill="#6119EF"/><path d="M100.222 83.3a2.447 2.447 0 01-2.444-2.45 2.447 2.447 0 012.444-2.45 2.448 2.448 0 012.445 2.45 2.448 2.448 0 01-2.445 2.45z" fill="#6119EF"/><path d="M95.333 83.3a2.447 2.447 0 01-2.444-2.45 2.447 2.447 0 012.444-2.45 2.447 2.447 0 012.445 2.45 2.447 2.447 0 01-2.445 2.45z" fill="#6119EF"/><path d="M90.445 83.3A2.447 2.447 0 0188 80.85a2.447 2.447 0 012.445-2.45 2.447 2.447 0 012.444 2.45 2.447 2.447 0 01-2.444 2.45z" fill="#6119EF"/><path d="M85.555 83.3a2.447 2.447 0 01-2.444-2.45 2.447 2.447 0 012.444-2.45A2.447 2.447 0 0188 80.85a2.447 2.447 0 01-2.445 2.45z" fill="#6119EF"/><path d="M78.222 78.4h4.89v4.9h-4.89v-4.9z" fill="#190066"/><path d="M73.333 78.4h4.89v4.9h-4.89v-4.9z" fill="#190066"/><path d="M68.444 78.4h4.89v4.9h-4.89v-4.9z" fill="#190066"/><path d="M63.556 78.4h4.889v4.9h-4.89v-4.9z" fill="#190066"/><path d="M61.111 83.3a2.447 2.447 0 01-2.444-2.45 2.447 2.447 0 012.444-2.45 2.447 2.447 0 012.445 2.45 2.447 2.447 0 01-2.445 2.45z" fill="#6119EF"/><path d="M55.409 80.032h1.629v1.633h-1.63v-1.633zM50.52 80.032h1.629v1.633h-1.63v-1.633z" fill="#190066"/><path d="M46.444 83.3A2.447 2.447 0 0144 80.85a2.447 2.447 0 012.444-2.45 2.447 2.447 0 012.445 2.45 2.447 2.447 0 01-2.445 2.45zM158.889 88.2a2.448 2.448 0 01-2.445-2.45 2.448 2.448 0 012.445-2.45 2.447 2.447 0 012.444 2.45 2.447 2.447 0 01-2.444 2.45z" fill="#6119EF"/><path d="M154 88.2a2.447 2.447 0 01-2.444-2.45A2.447 2.447 0 01154 83.3a2.447 2.447 0 012.444 2.45A2.447 2.447 0 01154 88.2z" fill="#6119EF"/><path d="M146.667 83.3h4.889v4.9h-4.889v-4.9zM141.778 83.3h4.889v4.9h-4.889v-4.9z" fill="#190066"/><path d="M136.889 83.3h4.889v4.9h-4.889v-4.9zM132 83.3h4.889v4.9H132v-4.9zM127.111 83.3H132v4.9h-4.889v-4.9zM122.222 83.3h4.889v4.9h-4.889v-4.9zM117.333 83.3h4.889v4.9h-4.889v-4.9zM112.444 83.3h4.889v4.9h-4.889v-4.9zM109.186 84.933h1.629v1.633h-1.629v-1.633z" fill="#190066"/><path d="M105.111 88.2a2.447 2.447 0 01-2.444-2.45 2.447 2.447 0 012.444-2.45 2.448 2.448 0 012.445 2.45 2.448 2.448 0 01-2.445 2.45z" fill="#6119EF"/><path d="M99.409 84.933h1.629v1.633h-1.63v-1.633z" fill="#190066"/><path d="M95.333 88.2a2.447 2.447 0 01-2.444-2.45 2.447 2.447 0 012.444-2.45 2.447 2.447 0 012.445 2.45 2.447 2.447 0 01-2.445 2.45z" fill="#6119EF"/><path d="M90.445 88.2A2.447 2.447 0 0188 85.75a2.447 2.447 0 012.445-2.45 2.447 2.447 0 012.444 2.45 2.447 2.447 0 01-2.444 2.45z" fill="#6119EF"/><path d="M85.555 88.2a2.447 2.447 0 01-2.444-2.45 2.447 2.447 0 012.444-2.45A2.447 2.447 0 0188 85.75a2.447 2.447 0 01-2.445 2.45z" fill="#6119EF"/><path d="M78.222 83.3h4.89v4.9h-4.89v-4.9z" fill="#190066"/><path d="M73.333 83.3h4.89v4.9h-4.89v-4.9z" fill="#190066"/><path d="M68.444 83.3h4.89v4.9h-4.89v-4.9z" fill="#190066"/><path d="M63.556 83.3h4.889v4.9h-4.89v-4.9z" fill="#190066"/><path d="M58.667 83.3h4.889v4.9h-4.89v-4.9zM55.409 84.933h1.629v1.633h-1.63v-1.633z" fill="#190066"/><path d="M51.333 84.526a1.225 1.225 0 000 2.45 1.225 1.225 0 000-2.45zm0-1.225a2.448 2.448 0 012.445 2.45 2.448 2.448 0 01-2.445 2.45 2.448 2.448 0 01-2.444-2.45 2.448 2.448 0 012.444-2.45z" fill="#FF8D4C"/><path d="M45.63 84.933h1.63v1.633h-1.63v-1.633zM39.111 83.3H44v4.9h-4.889v-4.9z" fill="#190066"/><path d="M158.889 93.1a2.448 2.448 0 01-2.445-2.45 2.448 2.448 0 012.445-2.45 2.447 2.447 0 012.444 2.45 2.447 2.447 0 01-2.444 2.45z" fill="#6119EF"/><path d="M151.556 88.2h4.888v4.9h-4.888v-4.9zM146.667 88.2h4.889v4.9h-4.889v-4.9zM141.778 88.2h4.889v4.9h-4.889v-4.9z" fill="#190066"/><path d="M136.889 88.2h4.889v4.9h-4.889v-4.9zM132 88.2h4.889v4.9H132v-4.9zM127.111 88.2H132v4.9h-4.889v-4.9zM122.222 88.2h4.889v4.9h-4.889v-4.9zM117.333 88.2h4.889v4.9h-4.889v-4.9zM112.444 88.2h4.889v4.9h-4.889v-4.9zM109.186 89.832h1.629v1.633h-1.629v-1.633zM104.297 89.832h1.63v1.633h-1.63v-1.633z" fill="#190066"/><path d="M100.222 93.1a2.447 2.447 0 01-2.444-2.45 2.447 2.447 0 012.444-2.45 2.448 2.448 0 012.445 2.45 2.448 2.448 0 01-2.445 2.45z" fill="#6119EF"/><path d="M95.333 93.1a2.447 2.447 0 01-2.444-2.45 2.447 2.447 0 012.444-2.45 2.447 2.447 0 012.445 2.45 2.447 2.447 0 01-2.445 2.45z" fill="#6119EF"/><path d="M90.445 93.1A2.447 2.447 0 0188 90.65a2.447 2.447 0 012.445-2.45 2.447 2.447 0 012.444 2.45 2.447 2.447 0 01-2.444 2.45z" fill="#6119EF"/><path d="M85.555 93.1a2.447 2.447 0 01-2.444-2.45 2.447 2.447 0 012.444-2.45A2.447 2.447 0 0188 90.65a2.447 2.447 0 01-2.445 2.45z" fill="#6119EF"/><path d="M78.222 88.2h4.89v4.9h-4.89v-4.9z" fill="#190066"/><path d="M73.333 88.2h4.89v4.9h-4.89v-4.9z" fill="#190066"/><path d="M68.444 88.2h4.89v4.9h-4.89v-4.9z" fill="#190066"/><path d="M63.556 88.2h4.889v4.9h-4.89v-4.9z" fill="#190066"/><path d="M58.667 88.2h4.889v4.9h-4.89v-4.9z" fill="#190066"/><path d="M56.222 93.1a2.447 2.447 0 01-2.444-2.45 2.447 2.447 0 012.444-2.45 2.447 2.447 0 012.445 2.45 2.447 2.447 0 01-2.445 2.45z" fill="#6119EF"/><path d="M51.333 93.1a2.447 2.447 0 01-2.444-2.45 2.447 2.447 0 012.444-2.45 2.447 2.447 0 012.445 2.45 2.447 2.447 0 01-2.445 2.45z" fill="#6119EF"/><path d="M45.63 89.832h1.63v1.633h-1.63v-1.633z" fill="#190066"/><path d="M41.556 93.1a2.447 2.447 0 01-2.445-2.45 2.447 2.447 0 012.445-2.45A2.447 2.447 0 0144 90.65a2.447 2.447 0 01-2.444 2.45z" fill="#6119EF"/><path d="M36.667 93.1a2.447 2.447 0 01-2.445-2.45 2.447 2.447 0 012.445-2.45 2.447 2.447 0 012.444 2.45 2.447 2.447 0 01-2.444 2.45z" fill="#6119EF"/><path d="M29.333 88.2h4.89v4.9h-4.89v-4.9z" fill="#190066"/><path d="M26.075 89.832h1.63v1.633h-1.63v-1.633z" fill="#61DFFF"/><path d="M19.556 88.2h4.889v4.9h-4.89v-4.9z" fill="#190066"/><path d="M158.889 98a2.448 2.448 0 01-2.445-2.45 2.448 2.448 0 012.445-2.45 2.447 2.447 0 012.444 2.45 2.447 2.447 0 01-2.444 2.45z" fill="#6119EF"/><path d="M154 98a2.447 2.447 0 01-2.444-2.45A2.447 2.447 0 01154 93.1a2.447 2.447 0 012.444 2.45A2.447 2.447 0 01154 98z" fill="#6119EF"/><path d="M146.667 93.1h4.889V98h-4.889v-4.9zM141.778 93.1h4.889V98h-4.889v-4.9z" fill="#190066"/><path d="M136.889 93.1h4.889V98h-4.889v-4.9z" fill="#190066"/><path d="M134.444 98A2.447 2.447 0 01132 95.55a2.447 2.447 0 012.444-2.45 2.448 2.448 0 012.445 2.45 2.448 2.448 0 01-2.445 2.45z" fill="#6119EF"/><path d="M127.111 93.1H132V98h-4.889v-4.9z" fill="#190066"/><path d="M124.667 98a2.448 2.448 0 01-2.445-2.45 2.448 2.448 0 012.445-2.45 2.447 2.447 0 012.444 2.45 2.447 2.447 0 01-2.444 2.45zM114.889 98a2.448 2.448 0 01-2.445-2.45 2.448 2.448 0 012.445-2.45 2.447 2.447 0 012.444 2.45 2.447 2.447 0 01-2.444 2.45z" fill="#6119EF"/><path d="M109.186 94.732h1.629v1.633h-1.629v-1.633zM104.297 94.732h1.63v1.633h-1.63v-1.633z" fill="#190066"/><path d="M100.222 98a2.447 2.447 0 01-2.444-2.45 2.447 2.447 0 012.444-2.45 2.448 2.448 0 012.445 2.45 2.448 2.448 0 01-2.445 2.45z" fill="#6119EF"/><path d="M95.333 98a2.447 2.447 0 01-2.444-2.45 2.447 2.447 0 012.444-2.45 2.447 2.447 0 012.445 2.45A2.447 2.447 0 0195.333 98z" fill="#6119EF"/><path d="M90.445 98A2.447 2.447 0 0188 95.55a2.447 2.447 0 012.445-2.45 2.447 2.447 0 012.444 2.45A2.447 2.447 0 0190.445 98z" fill="#6119EF"/><path d="M85.555 98a2.447 2.447 0 01-2.444-2.45 2.447 2.447 0 012.444-2.45A2.447 2.447 0 0188 95.55 2.447 2.447 0 0185.555 98z" fill="#6119EF"/><path d="M78.222 93.1h4.89V98h-4.89v-4.9z" fill="#190066"/><path d="M73.333 93.1h4.89V98h-4.89v-4.9z" fill="#190066"/><path d="M68.444 93.1h4.89V98h-4.89v-4.9z" fill="#190066"/><path d="M66 98a2.447 2.447 0 01-2.444-2.45A2.447 2.447 0 0166 93.1a2.447 2.447 0 012.445 2.45A2.447 2.447 0 0166 98z" fill="#6119EF"/><path d="M58.667 93.1h4.889V98h-4.89v-4.9z" fill="#190066"/><path d="M53.778 93.1h4.889V98h-4.89v-4.9z" fill="#190066"/><path d="M51.333 98a2.447 2.447 0 01-2.444-2.45 2.447 2.447 0 012.444-2.45 2.447 2.447 0 012.445 2.45A2.447 2.447 0 0151.333 98z" fill="#6119EF"/><path d="M46.444 98A2.447 2.447 0 0144 95.55a2.447 2.447 0 012.444-2.45 2.447 2.447 0 012.445 2.45A2.447 2.447 0 0146.444 98z" fill="#6119EF"/><path d="M40.742 94.732h1.629v1.633h-1.63v-1.633z" fill="#190066"/><path d="M36.667 98a2.447 2.447 0 01-2.445-2.45 2.447 2.447 0 012.445-2.45 2.447 2.447 0 012.444 2.45A2.447 2.447 0 0136.667 98z" fill="#6119EF"/><path d="M29.333 93.1h4.89V98h-4.89v-4.9z" fill="#190066"/><path d="M24.444 93.1h4.89V98h-4.89v-4.9z" fill="#190066"/><path d="M19.556 93.1h4.889V98h-4.89v-4.9zM156.444 98h4.889v4.901h-4.889v-4.9z" fill="#190066"/><path d="M154 102.901a2.447 2.447 0 01-2.444-2.45 2.447 2.447 0 012.444-2.45 2.447 2.447 0 012.444 2.45 2.447 2.447 0 01-2.444 2.45z" fill="#6119EF"/><path d="M148.297 99.633h1.63v1.633h-1.63v-1.633z" fill="#190066"/><path d="M144.222 102.901a2.447 2.447 0 01-2.444-2.45 2.447 2.447 0 012.444-2.45 2.448 2.448 0 012.445 2.45 2.448 2.448 0 01-2.445 2.45z" fill="#6119EF"/><path d="M136.889 98h4.889v4.901h-4.889v-4.9zM132 98h4.889v4.901H132v-4.9zM127.111 98H132v4.901h-4.889v-4.9zM122.222 98h4.889v4.901h-4.889v-4.9z" fill="#190066"/><path d="M114.889 102.901a2.448 2.448 0 01-2.445-2.45 2.448 2.448 0 012.445-2.45 2.447 2.447 0 012.444 2.45 2.447 2.447 0 01-2.444 2.45z" fill="#6119EF"/><path d="M110 102.901a2.448 2.448 0 01-2.445-2.45 2.448 2.448 0 012.445-2.45 2.447 2.447 0 012.444 2.45 2.447 2.447 0 01-2.444 2.45z" fill="#6119EF"/><path d="M105.111 102.901a2.447 2.447 0 01-2.444-2.45 2.447 2.447 0 012.444-2.45 2.448 2.448 0 012.445 2.45 2.448 2.448 0 01-2.445 2.45z" fill="#6119EF"/><path d="M99.409 99.633h1.629v1.633h-1.63v-1.633z" fill="#190066"/><path d="M95.333 102.901a2.447 2.447 0 01-2.444-2.45 2.447 2.447 0 012.444-2.45 2.447 2.447 0 012.445 2.45 2.447 2.447 0 01-2.445 2.45z" fill="#6119EF"/><path d="M88 98h4.889v4.901H88v-4.9z" fill="#190066"/><path d="M85.555 102.901a2.447 2.447 0 01-2.444-2.45 2.447 2.447 0 012.444-2.45A2.447 2.447 0 0188 100.45a2.447 2.447 0 01-2.445 2.45z" fill="#6119EF"/><path d="M78.222 98h4.89v4.901h-4.89v-4.9z" fill="#190066"/><path d="M75.778 102.901a2.447 2.447 0 01-2.445-2.45 2.447 2.447 0 012.445-2.45 2.447 2.447 0 012.444 2.45 2.447 2.447 0 01-2.444 2.45z" fill="#6119EF"/><path d="M68.444 98h4.89v4.901h-4.89v-4.9z" fill="#FF8D4C"/><path d="M63.556 98h4.889v4.901h-4.89v-4.9z" fill="#FFF068"/><path d="M58.667 98h4.889v4.901h-4.89v-4.9z" fill="#190066"/><path d="M53.778 98h4.889v4.901h-4.89v-4.9z" fill="#190066"/><path d="M48.889 98h4.889v4.901h-4.89v-4.9zM45.63 99.633h1.63v1.633h-1.63v-1.633z" fill="#190066"/><path d="M40.742 99.633h1.629v1.633h-1.63v-1.633z" fill="#61DFFF"/><path d="M35.853 99.633h1.63v1.633h-1.63v-1.633zM29.333 98h4.89v4.901h-4.89v-4.9z" fill="#190066"/><path d="M24.444 98h4.89v4.901h-4.89v-4.9z" fill="#190066"/><path d="M19.556 98h4.889v4.901h-4.89v-4.9z" fill="#190066"/><path d="M14.667 98h4.889v4.901h-4.89v-4.9z" fill="#190066"/><path d="M12.222 102.901a2.447 2.447 0 01-2.444-2.45 2.447 2.447 0 012.444-2.45 2.447 2.447 0 012.445 2.45 2.447 2.447 0 01-2.445 2.45z" fill="#6119EF"/><path d="M156.444 102.9h4.889v4.9h-4.889v-4.9zM153.186 104.532h1.629v1.633h-1.629v-1.633z" fill="#190066"/><path d="M149.111 107.8a2.447 2.447 0 01-2.444-2.45 2.446 2.446 0 012.444-2.45 2.447 2.447 0 012.445 2.45 2.448 2.448 0 01-2.445 2.45z" fill="#6119EF"/><path d="M141.778 102.9h4.889v4.9h-4.889v-4.9z" fill="#190066"/><path d="M139.333 107.8a2.447 2.447 0 01-2.444-2.45 2.446 2.446 0 012.444-2.45 2.447 2.447 0 012.445 2.45 2.448 2.448 0 01-2.445 2.45z" fill="#6119EF"/><path d="M132 102.9h4.889v4.9H132v-4.9zM112.444 102.9h4.889v4.9h-4.889v-4.9z" fill="#190066"/><path d="M110 107.8a2.448 2.448 0 01-2.445-2.45A2.447 2.447 0 01110 102.9a2.446 2.446 0 012.444 2.45A2.447 2.447 0 01110 107.8z" fill="#6119EF"/><path d="M105.111 107.8a2.447 2.447 0 01-2.444-2.45 2.446 2.446 0 012.444-2.45 2.447 2.447 0 012.445 2.45 2.448 2.448 0 01-2.445 2.45z" fill="#6119EF"/><path d="M100.222 107.8a2.447 2.447 0 01-2.444-2.45 2.447 2.447 0 012.444-2.45 2.447 2.447 0 012.445 2.45 2.448 2.448 0 01-2.445 2.45z" fill="#6119EF"/><path d="M94.52 104.532h1.629v1.633h-1.63v-1.633z" fill="#190066"/><path d="M90.445 107.8A2.447 2.447 0 0188 105.35a2.447 2.447 0 012.445-2.45 2.447 2.447 0 012.444 2.45 2.447 2.447 0 01-2.444 2.45z" fill="#6119EF"/><path d="M85.555 104.125a1.225 1.225 0 000 2.45 1.225 1.225 0 000-2.45zm0-1.225A2.448 2.448 0 0188 105.35a2.448 2.448 0 01-2.445 2.45 2.448 2.448 0 01-2.444-2.45 2.448 2.448 0 012.444-2.45z" fill="#FF8D4C"/><path d="M78.222 102.9h4.89v4.9h-4.89v-4.9z" fill="#190066"/><path d="M73.333 102.9h4.89v4.9h-4.89v-4.9z" fill="#190066"/><path d="M68.444 102.9h4.89v4.9h-4.89v-4.9z" fill="#190066"/><path d="M63.556 102.9h4.889v4.9h-4.89v-4.9z" fill="#190066"/><path d="M58.667 102.9h4.889v4.9h-4.89v-4.9z" fill="#190066"/><path d="M53.778 102.9h4.889v4.9h-4.89v-4.9z" fill="#190066"/><path d="M48.889 102.9h4.889v4.9h-4.89v-4.9z" fill="#190066"/><path d="M44 102.9h4.889v4.9H44v-4.9zM40.742 104.532h1.629v1.633h-1.63v-1.633zM35.853 104.532h1.63v1.633h-1.63v-1.633z" fill="#190066"/><path d="M31.778 107.8a2.447 2.447 0 01-2.445-2.45 2.447 2.447 0 012.445-2.45 2.447 2.447 0 012.444 2.45 2.447 2.447 0 01-2.444 2.45z" fill="#6119EF"/><path d="M24.444 102.9h4.89v4.9h-4.89v-4.9z" fill="#190066"/><path d="M19.556 102.9h4.889v4.9h-4.89v-4.9z" fill="#61DFFF"/><path d="M14.667 102.9h4.889v4.9h-4.89v-4.9z" fill="#190066"/><path d="M154 112.7a2.446 2.446 0 01-2.444-2.45A2.447 2.447 0 01154 107.8a2.447 2.447 0 012.444 2.45A2.446 2.446 0 01154 112.7z" fill="#6119EF"/><path d="M146.667 107.8h4.889v4.9h-4.889v-4.9zM141.778 107.8h4.889v4.9h-4.889v-4.9z" fill="#190066"/><path d="M136.889 107.8h4.889v4.9h-4.889v-4.9zM132 107.8h4.889v4.9H132v-4.9z" fill="#190066"/><path d="M114.889 112.7a2.447 2.447 0 01-2.445-2.45 2.448 2.448 0 012.445-2.45 2.447 2.447 0 012.444 2.45 2.446 2.446 0 01-2.444 2.45z" fill="#6119EF"/><path d="M110 112.7a2.447 2.447 0 01-2.445-2.45A2.448 2.448 0 01110 107.8a2.447 2.447 0 012.444 2.45A2.446 2.446 0 01110 112.7z" fill="#6119EF"/><path d="M105.111 112.7a2.446 2.446 0 01-2.444-2.45 2.447 2.447 0 012.444-2.45 2.448 2.448 0 012.445 2.45 2.447 2.447 0 01-2.445 2.45z" fill="#6119EF"/><path d="M100.222 112.7a2.447 2.447 0 01-2.444-2.45 2.447 2.447 0 012.444-2.45 2.448 2.448 0 012.445 2.45 2.447 2.447 0 01-2.445 2.45z" fill="#6119EF"/><path d="M95.333 112.7a2.447 2.447 0 01-2.444-2.45 2.447 2.447 0 012.444-2.45 2.447 2.447 0 012.445 2.45 2.447 2.447 0 01-2.445 2.45z" fill="#6119EF"/><path d="M90.445 112.7A2.447 2.447 0 0188 110.25a2.447 2.447 0 012.445-2.45 2.447 2.447 0 012.444 2.45 2.447 2.447 0 01-2.444 2.45z" fill="#6119EF"/><path d="M85.555 112.7a2.447 2.447 0 01-2.444-2.45 2.447 2.447 0 012.444-2.45A2.447 2.447 0 0188 110.25a2.447 2.447 0 01-2.445 2.45zM75.778 112.7a2.447 2.447 0 01-2.445-2.45 2.447 2.447 0 012.445-2.45 2.447 2.447 0 012.444 2.45 2.447 2.447 0 01-2.444 2.45z" fill="#6119EF"/><path d="M68.444 107.8h4.89v4.9h-4.89v-4.9z" fill="#190066"/><path d="M63.556 107.8h4.889v4.9h-4.89v-4.9z" fill="#190066"/><path d="M61.111 112.7a2.447 2.447 0 01-2.444-2.45 2.447 2.447 0 012.444-2.45 2.447 2.447 0 012.445 2.45 2.447 2.447 0 01-2.445 2.45z" fill="#6119EF"/><path d="M56.222 112.7a2.447 2.447 0 01-2.444-2.45 2.447 2.447 0 012.444-2.45 2.447 2.447 0 012.445 2.45 2.447 2.447 0 01-2.445 2.45z" fill="#6119EF"/><path d="M51.333 112.7a2.447 2.447 0 01-2.444-2.45 2.447 2.447 0 012.444-2.45 2.447 2.447 0 012.445 2.45 2.447 2.447 0 01-2.445 2.45z" fill="#6119EF"/><path d="M44 107.8h4.889v4.9H44v-4.9zM39.111 107.8H44v4.9h-4.889v-4.9z" fill="#190066"/><path d="M34.222 107.8h4.89v4.9h-4.89v-4.9zM30.964 109.433h1.63v1.633h-1.63v-1.633z" fill="#190066"/><path d="M26.889 112.7a2.447 2.447 0 01-2.445-2.45 2.447 2.447 0 012.445-2.45 2.447 2.447 0 012.444 2.45 2.447 2.447 0 01-2.444 2.45z" fill="#6119EF"/><path d="M22 112.7a2.447 2.447 0 01-2.444-2.45A2.447 2.447 0 0122 107.8a2.447 2.447 0 012.445 2.45A2.447 2.447 0 0122 112.7zM158.889 117.6a2.447 2.447 0 01-2.445-2.45 2.448 2.448 0 012.445-2.45 2.447 2.447 0 012.444 2.45 2.446 2.446 0 01-2.444 2.45z" fill="#6119EF"/><path d="M154 117.6a2.446 2.446 0 01-2.444-2.45A2.447 2.447 0 01154 112.7a2.447 2.447 0 012.444 2.45A2.446 2.446 0 01154 117.6z" fill="#6119EF"/><path d="M146.667 112.7h4.889v4.9h-4.889v-4.9z" fill="#190066"/><path d="M144.222 117.6a2.446 2.446 0 01-2.444-2.45 2.447 2.447 0 012.444-2.45 2.448 2.448 0 012.445 2.45 2.447 2.447 0 01-2.445 2.45z" fill="#6119EF"/><path d="M136.889 112.7h4.889v4.9h-4.889v-4.9zM118.964 114.333h1.629v1.633h-1.629v-1.633z" fill="#190066"/><path d="M114.889 117.6a2.447 2.447 0 01-2.445-2.45 2.448 2.448 0 012.445-2.45 2.447 2.447 0 012.444 2.45 2.446 2.446 0 01-2.444 2.45z" fill="#6119EF"/><path d="M109.186 114.333h1.629v1.633h-1.629v-1.633z" fill="#190066"/><path d="M105.111 117.6a2.446 2.446 0 01-2.444-2.45 2.447 2.447 0 012.444-2.45 2.448 2.448 0 012.445 2.45 2.447 2.447 0 01-2.445 2.45z" fill="#6119EF"/><path d="M100.222 117.6a2.447 2.447 0 01-2.444-2.45 2.447 2.447 0 012.444-2.45 2.448 2.448 0 012.445 2.45 2.447 2.447 0 01-2.445 2.45z" fill="#6119EF"/><path d="M95.333 117.6a2.447 2.447 0 01-2.444-2.45 2.447 2.447 0 012.444-2.45 2.447 2.447 0 012.445 2.45 2.447 2.447 0 01-2.445 2.45z" fill="#6119EF"/><path d="M90.445 117.6A2.447 2.447 0 0188 115.15a2.447 2.447 0 012.445-2.45 2.447 2.447 0 012.444 2.45 2.447 2.447 0 01-2.444 2.45z" fill="#6119EF"/><path d="M85.555 117.6a2.447 2.447 0 01-2.444-2.45 2.447 2.447 0 012.444-2.45A2.447 2.447 0 0188 115.15a2.447 2.447 0 01-2.445 2.45z" fill="#6119EF"/><path d="M68.444 112.7h4.89v4.9h-4.89v-4.9z" fill="#190066"/><path d="M63.556 112.7h4.889v4.9h-4.89v-4.9z" fill="#190066"/><path d="M58.667 112.7h4.889v4.9h-4.89v-4.9z" fill="#190066"/><path d="M56.222 117.6a2.447 2.447 0 01-2.444-2.45 2.447 2.447 0 012.444-2.45 2.447 2.447 0 012.445 2.45 2.447 2.447 0 01-2.445 2.45z" fill="#6119EF"/><path d="M51.333 117.6a2.447 2.447 0 01-2.444-2.45 2.447 2.447 0 012.444-2.45 2.447 2.447 0 012.445 2.45 2.447 2.447 0 01-2.445 2.45z" fill="#6119EF"/><path d="M44 112.7h4.889v4.9H44v-4.9zM39.111 112.7H44v4.9h-4.889v-4.9z" fill="#190066"/><path d="M34.222 112.7h4.89v4.9h-4.89v-4.9z" fill="#190066"/><path d="M29.333 112.7h4.89v4.9h-4.89v-4.9z" fill="#190066"/><path d="M26.889 117.6a2.447 2.447 0 01-2.445-2.45 2.447 2.447 0 012.445-2.45 2.447 2.447 0 012.444 2.45 2.447 2.447 0 01-2.444 2.45z" fill="#6119EF"/><path d="M16.297 114.333h1.63v1.633h-1.63v-1.633z" fill="#61DFFF"/><path d="M158.889 122.5a2.448 2.448 0 01-2.445-2.45 2.448 2.448 0 012.445-2.45 2.447 2.447 0 012.444 2.45 2.447 2.447 0 01-2.444 2.45z" fill="#6119EF"/><path d="M153.186 119.232h1.629v1.633h-1.629v-1.633z" fill="#190066"/><path d="M149.111 122.5a2.447 2.447 0 01-2.444-2.45 2.447 2.447 0 012.444-2.45 2.448 2.448 0 012.445 2.45 2.448 2.448 0 01-2.445 2.45z" fill="#6119EF"/><path d="M144.222 122.5a2.447 2.447 0 01-2.444-2.45 2.447 2.447 0 012.444-2.45 2.448 2.448 0 012.445 2.45 2.448 2.448 0 01-2.445 2.45z" fill="#6119EF"/><path d="M136.889 117.6h4.889v4.9h-4.889v-4.9z" fill="#190066"/><path d="M119.778 122.5a2.448 2.448 0 01-2.445-2.45 2.448 2.448 0 012.445-2.45 2.447 2.447 0 012.444 2.45 2.447 2.447 0 01-2.444 2.45z" fill="#6119EF"/><path d="M114.889 122.5a2.448 2.448 0 01-2.445-2.45 2.448 2.448 0 012.445-2.45 2.447 2.447 0 012.444 2.45 2.447 2.447 0 01-2.444 2.45z" fill="#6119EF"/><path d="M110 122.5a2.448 2.448 0 01-2.445-2.45A2.448 2.448 0 01110 117.6a2.447 2.447 0 012.444 2.45A2.447 2.447 0 01110 122.5z" fill="#6119EF"/><path d="M105.111 122.5a2.447 2.447 0 01-2.444-2.45 2.447 2.447 0 012.444-2.45 2.448 2.448 0 012.445 2.45 2.448 2.448 0 01-2.445 2.45z" fill="#6119EF"/><path d="M99.409 119.232h1.629v1.633h-1.63v-1.633z" fill="#190066"/><path d="M95.333 122.5a2.447 2.447 0 01-2.444-2.45 2.447 2.447 0 012.444-2.45 2.447 2.447 0 012.445 2.45 2.447 2.447 0 01-2.445 2.45z" fill="#6119EF"/><path d="M90.445 122.5A2.447 2.447 0 0188 120.05a2.447 2.447 0 012.445-2.45 2.447 2.447 0 012.444 2.45 2.447 2.447 0 01-2.444 2.45z" fill="#6119EF"/><path d="M85.555 122.5a2.447 2.447 0 01-2.444-2.45 2.447 2.447 0 012.444-2.45A2.447 2.447 0 0188 120.05a2.447 2.447 0 01-2.445 2.45z" fill="#6119EF"/><path d="M68.444 117.6h4.89v4.9h-4.89v-4.9z" fill="#190066"/><path d="M63.556 117.6h4.889v4.9h-4.89v-4.9z" fill="#190066"/><path d="M58.667 117.6h4.889v4.9h-4.89v-4.9z" fill="#190066"/><path d="M56.222 122.5a2.447 2.447 0 01-2.444-2.45 2.447 2.447 0 012.444-2.45 2.447 2.447 0 012.445 2.45 2.447 2.447 0 01-2.445 2.45z" fill="#6119EF"/><path d="M51.333 118.825a1.225 1.225 0 000 2.45 1.225 1.225 0 000-2.45zm0-1.225a2.448 2.448 0 012.445 2.45 2.447 2.447 0 01-2.445 2.45 2.448 2.448 0 01-2.444-2.45 2.448 2.448 0 012.444-2.45z" fill="#FF8D4C"/><path d="M44 117.6h4.889v4.9H44v-4.9zM39.111 117.6H44v4.9h-4.889v-4.9z" fill="#190066"/><path d="M34.222 117.6h4.89v4.9h-4.89v-4.9z" fill="#190066"/><path d="M29.333 117.6h4.89v4.9h-4.89v-4.9z" fill="#190066"/><path d="M24.444 117.6h4.89v4.9h-4.89v-4.9zM21.186 119.232h1.63v1.633h-1.63v-1.633z" fill="#190066"/><path d="M158.889 127.4a2.448 2.448 0 01-2.445-2.45 2.448 2.448 0 012.445-2.45 2.447 2.447 0 012.444 2.45 2.447 2.447 0 01-2.444 2.45z" fill="#6119EF"/><path d="M151.556 122.5h4.888v4.9h-4.888v-4.9zM146.667 122.5h4.889v4.9h-4.889v-4.9zM141.778 122.5h4.889v4.9h-4.889v-4.9z" fill="#190066"/><path d="M136.889 122.5h4.889v4.9h-4.889v-4.9z" fill="#190066"/><path d="M119.778 127.4a2.448 2.448 0 01-2.445-2.45 2.448 2.448 0 012.445-2.45 2.447 2.447 0 012.444 2.45 2.447 2.447 0 01-2.444 2.45z" fill="#6119EF"/><path d="M114.889 127.4a2.448 2.448 0 01-2.445-2.45 2.448 2.448 0 012.445-2.45 2.447 2.447 0 012.444 2.45 2.447 2.447 0 01-2.444 2.45z" fill="#6119EF"/><path d="M110 127.4a2.448 2.448 0 01-2.445-2.45A2.448 2.448 0 01110 122.5a2.447 2.447 0 012.444 2.45A2.447 2.447 0 01110 127.4z" fill="#6119EF"/><path d="M105.111 127.4a2.447 2.447 0 01-2.444-2.45 2.447 2.447 0 012.444-2.45 2.448 2.448 0 012.445 2.45 2.448 2.448 0 01-2.445 2.45z" fill="#6119EF"/><path d="M100.222 127.4a2.447 2.447 0 01-2.444-2.45 2.447 2.447 0 012.444-2.45 2.448 2.448 0 012.445 2.45 2.448 2.448 0 01-2.445 2.45z" fill="#6119EF"/><path d="M95.333 127.4a2.447 2.447 0 01-2.444-2.45 2.447 2.447 0 012.444-2.45 2.447 2.447 0 012.445 2.45 2.447 2.447 0 01-2.445 2.45z" fill="#6119EF"/><path d="M90.445 127.4A2.447 2.447 0 0188 124.95a2.447 2.447 0 012.445-2.45 2.447 2.447 0 012.444 2.45 2.447 2.447 0 01-2.444 2.45z" fill="#6119EF"/><path d="M85.555 127.4a2.447 2.447 0 01-2.444-2.45 2.447 2.447 0 012.444-2.45A2.447 2.447 0 0188 124.95a2.447 2.447 0 01-2.445 2.45zM70.889 127.4a2.447 2.447 0 01-2.445-2.45 2.447 2.447 0 012.445-2.45 2.447 2.447 0 012.444 2.45 2.447 2.447 0 01-2.444 2.45z" fill="#6119EF"/><path d="M63.556 122.5h4.889v4.9h-4.89v-4.9z" fill="#190066"/><path d="M58.667 122.5h4.889v4.9h-4.89v-4.9z" fill="#190066"/><path d="M53.778 122.5h4.889v4.9h-4.89v-4.9z" fill="#190066"/><path d="M51.333 127.4a2.447 2.447 0 01-2.444-2.45 2.447 2.447 0 012.444-2.45 2.447 2.447 0 012.445 2.45 2.447 2.447 0 01-2.445 2.45z" fill="#6119EF"/><path d="M46.444 127.4A2.447 2.447 0 0144 124.95a2.447 2.447 0 012.444-2.45 2.447 2.447 0 012.445 2.45 2.447 2.447 0 01-2.445 2.45z" fill="#6119EF"/><path d="M39.111 122.5H44v4.9h-4.889v-4.9z" fill="#190066"/><path d="M34.222 122.5h4.89v4.9h-4.89v-4.9z" fill="#190066"/><path d="M29.333 122.5h4.89v4.9h-4.89v-4.9z" fill="#190066"/><path d="M24.444 122.5h4.89v4.9h-4.89v-4.9z" fill="#190066"/><path d="M22 127.4a2.447 2.447 0 01-2.444-2.45A2.447 2.447 0 0122 122.5a2.447 2.447 0 012.445 2.45A2.447 2.447 0 0122 127.4zM7.333 127.4a2.447 2.447 0 01-2.444-2.45 2.447 2.447 0 012.444-2.45 2.447 2.447 0 012.445 2.45 2.447 2.447 0 01-2.445 2.45zM158.889 132.3a2.448 2.448 0 01-2.445-2.45 2.448 2.448 0 012.445-2.45 2.447 2.447 0 012.444 2.45 2.447 2.447 0 01-2.444 2.45z" fill="#6119EF"/><path d="M151.556 127.4h4.888v4.9h-4.888v-4.9zM146.667 127.4h4.889v4.9h-4.889v-4.9z" fill="#190066"/><path d="M144.222 132.3a2.447 2.447 0 01-2.444-2.45 2.447 2.447 0 012.444-2.45 2.448 2.448 0 012.445 2.45 2.448 2.448 0 01-2.445 2.45z" fill="#6119EF"/><path d="M136.889 127.4h4.889v4.9h-4.889v-4.9z" fill="#190066"/><path d="M119.778 132.3a2.448 2.448 0 01-2.445-2.45 2.448 2.448 0 012.445-2.45 2.447 2.447 0 012.444 2.45 2.447 2.447 0 01-2.444 2.45z" fill="#6119EF"/><path d="M114.889 132.3a2.448 2.448 0 01-2.445-2.45 2.448 2.448 0 012.445-2.45 2.447 2.447 0 012.444 2.45 2.447 2.447 0 01-2.444 2.45z" fill="#6119EF"/><path d="M110 132.3a2.448 2.448 0 01-2.445-2.45A2.448 2.448 0 01110 127.4a2.447 2.447 0 012.444 2.45A2.447 2.447 0 01110 132.3z" fill="#6119EF"/><path d="M105.111 132.3a2.447 2.447 0 01-2.444-2.45 2.447 2.447 0 012.444-2.45 2.448 2.448 0 012.445 2.45 2.448 2.448 0 01-2.445 2.45z" fill="#6119EF"/><path d="M100.222 132.3a2.447 2.447 0 01-2.444-2.45 2.447 2.447 0 012.444-2.45 2.448 2.448 0 012.445 2.45 2.448 2.448 0 01-2.445 2.45z" fill="#6119EF"/><path d="M95.333 132.3a2.447 2.447 0 01-2.444-2.45 2.447 2.447 0 012.444-2.45 2.447 2.447 0 012.445 2.45 2.447 2.447 0 01-2.445 2.45z" fill="#6119EF"/><path d="M90.445 132.3A2.447 2.447 0 0188 129.85a2.447 2.447 0 012.445-2.45 2.447 2.447 0 012.444 2.45 2.447 2.447 0 01-2.444 2.45z" fill="#6119EF"/><path d="M85.555 132.3a2.447 2.447 0 01-2.444-2.45 2.447 2.447 0 012.444-2.45A2.447 2.447 0 0188 129.85a2.447 2.447 0 01-2.445 2.45zM70.889 132.3a2.447 2.447 0 01-2.445-2.45 2.447 2.447 0 012.445-2.45 2.447 2.447 0 012.444 2.45 2.447 2.447 0 01-2.444 2.45z" fill="#6119EF"/><path d="M63.556 127.4h4.889v4.9h-4.89v-4.9z" fill="#190066"/><path d="M58.667 127.4h4.889v4.9h-4.89v-4.9z" fill="#FF8D4C"/><path d="M53.778 127.4h4.889v4.9h-4.89v-4.9z" fill="#190066"/><path d="M48.889 127.4h4.889v4.9h-4.89v-4.9z" fill="#190066"/><path d="M46.444 132.3A2.447 2.447 0 0144 129.85a2.447 2.447 0 012.444-2.45 2.447 2.447 0 012.445 2.45 2.447 2.447 0 01-2.445 2.45z" fill="#6119EF"/><path d="M39.111 127.4H44v4.9h-4.889v-4.9z" fill="#190066"/><path d="M34.222 127.4h4.89v4.9h-4.89v-4.9z" fill="#190066"/><path d="M29.333 127.4h4.89v4.9h-4.89v-4.9z" fill="#190066"/><path d="M24.444 127.4h4.89v4.9h-4.89v-4.9z" fill="#190066"/><path d="M19.556 127.4h4.889v4.9h-4.89v-4.9zM16.297 129.033h1.63v1.633h-1.63v-1.633zM4.889 127.4h4.889v4.9h-4.89v-4.9z" fill="#190066"/><path d="M0 127.4h4.889v4.9h-4.89v-4.9z" fill="#190066"/><path d="M158.889 137.2a2.448 2.448 0 01-2.445-2.45 2.448 2.448 0 012.445-2.45 2.447 2.447 0 012.444 2.45 2.447 2.447 0 01-2.444 2.45z" fill="#6119EF"/><path d="M154 137.2a2.447 2.447 0 01-2.444-2.45A2.447 2.447 0 01154 132.3a2.447 2.447 0 012.444 2.45A2.447 2.447 0 01154 137.2z" fill="#6119EF"/><path d="M149.111 137.2a2.447 2.447 0 01-2.444-2.45 2.447 2.447 0 012.444-2.45 2.448 2.448 0 012.445 2.45 2.448 2.448 0 01-2.445 2.45z" fill="#6119EF"/><path d="M141.778 132.3h4.889v4.9h-4.889v-4.9z" fill="#190066"/><path d="M136.889 132.3h4.889v4.9h-4.889v-4.9z" fill="#190066"/><path d="M119.778 137.2a2.448 2.448 0 01-2.445-2.45 2.448 2.448 0 012.445-2.45 2.447 2.447 0 012.444 2.45 2.447 2.447 0 01-2.444 2.45z" fill="#6119EF"/><path d="M114.889 137.2a2.448 2.448 0 01-2.445-2.45 2.448 2.448 0 012.445-2.45 2.447 2.447 0 012.444 2.45 2.447 2.447 0 01-2.444 2.45z" fill="#6119EF"/><path d="M109.186 133.933h1.629v1.632h-1.629v-1.632z" fill="#190066"/><path d="M105.111 137.2a2.447 2.447 0 01-2.444-2.45 2.447 2.447 0 012.444-2.45 2.448 2.448 0 012.445 2.45 2.448 2.448 0 01-2.445 2.45z" fill="#6119EF"/><path d="M100.222 137.2a2.447 2.447 0 01-2.444-2.45 2.447 2.447 0 012.444-2.45 2.448 2.448 0 012.445 2.45 2.448 2.448 0 01-2.445 2.45z" fill="#6119EF"/><path d="M95.333 137.2a2.447 2.447 0 01-2.444-2.45 2.447 2.447 0 012.444-2.45 2.447 2.447 0 012.445 2.45 2.447 2.447 0 01-2.445 2.45z" fill="#6119EF"/><path d="M90.445 137.2A2.447 2.447 0 0188 134.75a2.447 2.447 0 012.445-2.45 2.447 2.447 0 012.444 2.45 2.447 2.447 0 01-2.444 2.45z" fill="#6119EF"/><path d="M85.555 137.2a2.447 2.447 0 01-2.444-2.45 2.447 2.447 0 012.444-2.45A2.447 2.447 0 0188 134.75a2.447 2.447 0 01-2.445 2.45z" fill="#6119EF"/><path d="M68.444 132.3h4.89v4.9h-4.89v-4.9z" fill="#190066"/><path d="M63.556 132.3h4.889v4.9h-4.89v-4.9z" fill="#190066"/><path d="M58.667 132.3h4.889v4.9h-4.89v-4.9z" fill="#190066"/><path d="M53.778 132.3h4.889v4.9h-4.89v-4.9z" fill="#190066"/><path d="M51.333 137.2a2.447 2.447 0 01-2.444-2.45 2.447 2.447 0 012.444-2.45 2.447 2.447 0 012.445 2.45 2.447 2.447 0 01-2.445 2.45z" fill="#6119EF"/><path d="M46.444 137.2A2.447 2.447 0 0144 134.75a2.447 2.447 0 012.444-2.45 2.447 2.447 0 012.445 2.45 2.447 2.447 0 01-2.445 2.45z" fill="#6119EF"/><path d="M39.111 132.3H44v4.9h-4.889v-4.9z" fill="#190066"/><path d="M34.222 132.3h4.89v4.9h-4.89v-4.9z" fill="#190066"/><path d="M29.333 132.3h4.89v4.9h-4.89v-4.9z" fill="#190066"/><path d="M24.444 132.3h4.89v4.9h-4.89v-4.9z" fill="#190066"/><path d="M19.556 132.3h4.889v4.9h-4.89v-4.9z" fill="#190066"/><path d="M14.667 132.3h4.889v4.9h-4.89v-4.9z" fill="#190066"/><path d="M9.778 132.3h4.889v4.9h-4.89v-4.9z" fill="#190066"/><path d="M158.889 142.1a2.448 2.448 0 01-2.445-2.45 2.448 2.448 0 012.445-2.45 2.447 2.447 0 012.444 2.45 2.447 2.447 0 01-2.444 2.45z" fill="#6119EF"/><path d="M154 142.1a2.447 2.447 0 01-2.444-2.45A2.447 2.447 0 01154 137.2a2.447 2.447 0 012.444 2.45A2.447 2.447 0 01154 142.1z" fill="#6119EF"/><path d="M149.111 142.1a2.447 2.447 0 01-2.444-2.45 2.447 2.447 0 012.444-2.45 2.448 2.448 0 012.445 2.45 2.448 2.448 0 01-2.445 2.45z" fill="#6119EF"/><path d="M144.222 142.1a2.447 2.447 0 01-2.444-2.45 2.447 2.447 0 012.444-2.45 2.448 2.448 0 012.445 2.45 2.448 2.448 0 01-2.445 2.45z" fill="#6119EF"/><path d="M136.889 137.2h4.889v4.9h-4.889v-4.9z" fill="#190066"/><path d="M119.778 142.1a2.448 2.448 0 01-2.445-2.45 2.448 2.448 0 012.445-2.45 2.447 2.447 0 012.444 2.45 2.447 2.447 0 01-2.444 2.45z" fill="#6119EF"/><path d="M114.889 142.1a2.448 2.448 0 01-2.445-2.45 2.448 2.448 0 012.445-2.45 2.447 2.447 0 012.444 2.45 2.447 2.447 0 01-2.444 2.45z" fill="#6119EF"/><path d="M109.186 138.833h1.629v1.632h-1.629v-1.632z" fill="#190066"/><path d="M105.111 142.1a2.447 2.447 0 01-2.444-2.45 2.447 2.447 0 012.444-2.45 2.448 2.448 0 012.445 2.45 2.448 2.448 0 01-2.445 2.45z" fill="#6119EF"/><path d="M100.222 142.1a2.447 2.447 0 01-2.444-2.45 2.447 2.447 0 012.444-2.45 2.448 2.448 0 012.445 2.45 2.448 2.448 0 01-2.445 2.45z" fill="#6119EF"/><path d="M95.333 142.1a2.447 2.447 0 01-2.444-2.45 2.447 2.447 0 012.444-2.45 2.447 2.447 0 012.445 2.45 2.447 2.447 0 01-2.445 2.45z" fill="#6119EF"/><path d="M90.445 142.1A2.447 2.447 0 0188 139.65a2.447 2.447 0 012.445-2.45 2.447 2.447 0 012.444 2.45 2.447 2.447 0 01-2.444 2.45z" fill="#6119EF"/><path d="M85.555 142.1a2.447 2.447 0 01-2.444-2.45 2.447 2.447 0 012.444-2.45A2.447 2.447 0 0188 139.65a2.447 2.447 0 01-2.445 2.45z" fill="#6119EF"/><path d="M68.444 137.2h4.89v4.9h-4.89v-4.9z" fill="#190066"/><path d="M63.556 137.2h4.889v4.9h-4.89v-4.9z" fill="#190066"/><path d="M58.667 137.2h4.889v4.9h-4.89v-4.9z" fill="#190066"/><path d="M53.778 137.2h4.889v4.9h-4.89v-4.9z" fill="#190066"/><path d="M48.889 137.2h4.889v4.9h-4.89v-4.9z" fill="#190066"/><path d="M44 137.2h4.889v4.9H44v-4.9zM39.111 137.2H44v4.9h-4.889v-4.9z" fill="#190066"/><path d="M34.222 137.2h4.89v4.9h-4.89v-4.9z" fill="#190066"/><path d="M29.333 137.2h4.89v4.9h-4.89v-4.9z" fill="#190066"/><path d="M24.444 137.2h4.89v4.9h-4.89v-4.9z" fill="#190066"/><path d="M19.556 137.2h4.889v4.9h-4.89v-4.9z" fill="#190066"/><path d="M17.111 142.1a2.447 2.447 0 01-2.444-2.45 2.447 2.447 0 012.444-2.45 2.447 2.447 0 012.445 2.45 2.447 2.447 0 01-2.445 2.45z" fill="#6119EF"/><path d="M9.778 137.2h4.889v4.9h-4.89v-4.9z" fill="#190066"/><path d="M4.889 137.2h4.889v4.9h-4.89v-4.9z" fill="#190066"/><path d="M158.889 147.001a2.448 2.448 0 01-2.445-2.45 2.448 2.448 0 012.445-2.45 2.447 2.447 0 012.444 2.45 2.447 2.447 0 01-2.444 2.45z" fill="#6119EF"/><path d="M151.556 142.101h4.888v4.9h-4.888v-4.9zM146.667 142.101h4.889v4.9h-4.889v-4.9zM141.778 142.101h4.889v4.9h-4.889v-4.9z" fill="#190066"/><path d="M119.778 147.001a2.448 2.448 0 01-2.445-2.45 2.448 2.448 0 012.445-2.45 2.447 2.447 0 012.444 2.45 2.447 2.447 0 01-2.444 2.45z" fill="#6119EF"/><path d="M114.889 147.001a2.448 2.448 0 01-2.445-2.45 2.448 2.448 0 012.445-2.45 2.447 2.447 0 012.444 2.45 2.447 2.447 0 01-2.444 2.45z" fill="#6119EF"/><path d="M110 147.001a2.448 2.448 0 01-2.445-2.45 2.448 2.448 0 012.445-2.45 2.447 2.447 0 012.444 2.45 2.447 2.447 0 01-2.444 2.45z" fill="#6119EF"/><path d="M105.111 147.001a2.447 2.447 0 01-2.444-2.45 2.447 2.447 0 012.444-2.45 2.448 2.448 0 012.445 2.45 2.448 2.448 0 01-2.445 2.45z" fill="#6119EF"/><path d="M100.222 147.001a2.447 2.447 0 01-2.444-2.45 2.447 2.447 0 012.444-2.45 2.448 2.448 0 012.445 2.45 2.448 2.448 0 01-2.445 2.45z" fill="#6119EF"/><path d="M92.889 142.101h4.889v4.9h-4.89v-4.9z" fill="#190066"/><path d="M90.445 147.001a2.447 2.447 0 01-2.445-2.45 2.447 2.447 0 012.445-2.45 2.447 2.447 0 012.444 2.45 2.447 2.447 0 01-2.444 2.45z" fill="#6119EF"/><path d="M85.555 147.001a2.447 2.447 0 01-2.444-2.45 2.447 2.447 0 012.444-2.45 2.447 2.447 0 012.445 2.45 2.447 2.447 0 01-2.445 2.45z" fill="#6119EF"/><path d="M68.444 142.101h4.89v4.9h-4.89v-4.9z" fill="#190066"/><path d="M63.556 142.101h4.889v4.9h-4.89v-4.9z" fill="#190066"/><path d="M61.111 147.001a2.447 2.447 0 01-2.444-2.45 2.447 2.447 0 012.444-2.45 2.447 2.447 0 012.445 2.45 2.447 2.447 0 01-2.445 2.45z" fill="#6119EF"/><path d="M53.778 142.101h4.889v4.9h-4.89v-4.9z" fill="#190066"/><path d="M51.333 147.001a2.447 2.447 0 01-2.444-2.45 2.447 2.447 0 012.444-2.45 2.447 2.447 0 012.445 2.45 2.447 2.447 0 01-2.445 2.45z" fill="#6119EF"/><path d="M46.444 147.001a2.447 2.447 0 01-2.444-2.45 2.447 2.447 0 012.444-2.45 2.447 2.447 0 012.445 2.45 2.447 2.447 0 01-2.445 2.45z" fill="#6119EF"/><path d="M34.222 142.101h4.89v4.9h-4.89v-4.9z" fill="#190066"/><path d="M29.333 142.101h4.89v4.9h-4.89v-4.9z" fill="#190066"/><path d="M24.444 142.101h4.89v4.9h-4.89v-4.9z" fill="#FFF068"/><path d="M19.556 142.101h4.889v4.9h-4.89v-4.9z" fill="#190066"/><path d="M17.111 147.001a2.447 2.447 0 01-2.444-2.45 2.447 2.447 0 012.444-2.45 2.447 2.447 0 012.445 2.45 2.447 2.447 0 01-2.445 2.45z" fill="#6119EF"/><path d="M9.778 142.101h4.889v4.9h-4.89v-4.9z" fill="#190066"/><path d="M4.889 142.101h4.889v4.9h-4.89v-4.9z" fill="#190066"/><path d="M0 142.101h4.889v4.9h-4.89v-4.9zM156.444 147h4.889v4.9h-4.889V147z" fill="#190066"/><path d="M151.556 147h4.888v4.9h-4.888V147zM146.667 147h4.889v4.9h-4.889V147zM141.778 147h4.889v4.9h-4.889V147z" fill="#190066"/><path d="M124.667 151.9a2.448 2.448 0 01-2.445-2.45 2.448 2.448 0 012.445-2.45 2.447 2.447 0 012.444 2.45 2.447 2.447 0 01-2.444 2.45z" fill="#6119EF"/><path d="M119.778 151.9a2.448 2.448 0 01-2.445-2.45 2.448 2.448 0 012.445-2.45 2.447 2.447 0 012.444 2.45 2.447 2.447 0 01-2.444 2.45z" fill="#6119EF"/><path d="M114.889 151.9a2.448 2.448 0 01-2.445-2.45 2.448 2.448 0 012.445-2.45 2.447 2.447 0 012.444 2.45 2.447 2.447 0 01-2.444 2.45z" fill="#6119EF"/><path d="M110 151.9a2.448 2.448 0 01-2.445-2.45A2.448 2.448 0 01110 147a2.447 2.447 0 012.444 2.45A2.447 2.447 0 01110 151.9z" fill="#6119EF"/><path d="M105.111 151.9a2.447 2.447 0 01-2.444-2.45 2.447 2.447 0 012.444-2.45 2.448 2.448 0 012.445 2.45 2.448 2.448 0 01-2.445 2.45z" fill="#6119EF"/><path d="M100.222 151.9a2.447 2.447 0 01-2.444-2.45 2.447 2.447 0 012.444-2.45 2.448 2.448 0 012.445 2.45 2.448 2.448 0 01-2.445 2.45z" fill="#6119EF"/><path d="M95.333 151.9a2.447 2.447 0 01-2.444-2.45 2.447 2.447 0 012.444-2.45 2.447 2.447 0 012.445 2.45 2.447 2.447 0 01-2.445 2.45z" fill="#6119EF"/><path d="M90.445 151.9A2.447 2.447 0 0188 149.45a2.447 2.447 0 012.445-2.45 2.447 2.447 0 012.444 2.45 2.447 2.447 0 01-2.444 2.45z" fill="#6119EF"/><path d="M85.555 151.9a2.447 2.447 0 01-2.444-2.45 2.447 2.447 0 012.444-2.45A2.447 2.447 0 0188 149.45a2.447 2.447 0 01-2.445 2.45z" fill="#6119EF"/><path d="M68.444 147h4.89v4.9h-4.89V147z" fill="#190066"/><path d="M63.556 147h4.889v4.9h-4.89V147z" fill="#190066"/><path d="M61.111 151.9a2.447 2.447 0 01-2.444-2.45A2.447 2.447 0 0161.11 147a2.447 2.447 0 012.445 2.45 2.447 2.447 0 01-2.445 2.45z" fill="#6119EF"/><path d="M53.778 147h4.889v4.9h-4.89V147z" fill="#190066"/><path d="M51.333 151.9a2.447 2.447 0 01-2.444-2.45 2.447 2.447 0 012.444-2.45 2.447 2.447 0 012.445 2.45 2.447 2.447 0 01-2.445 2.45z" fill="#6119EF"/><path d="M46.444 151.9A2.447 2.447 0 0144 149.45a2.447 2.447 0 012.444-2.45 2.447 2.447 0 012.445 2.45 2.447 2.447 0 01-2.445 2.45z" fill="#6119EF"/><path d="M34.222 147h4.89v4.9h-4.89V147z" fill="#190066"/><path d="M29.333 147h4.89v4.9h-4.89V147z" fill="#190066"/><path d="M24.444 147h4.89v4.9h-4.89V147z" fill="#190066"/><path d="M19.556 147h4.889v4.9h-4.89V147zM16.297 148.633h1.63v1.632h-1.63v-1.632z" fill="#190066"/><path d="M12.222 151.9a2.447 2.447 0 01-2.444-2.45 2.447 2.447 0 012.444-2.45 2.447 2.447 0 012.445 2.45 2.447 2.447 0 01-2.445 2.45z" fill="#6119EF"/><path d="M4.889 147h4.889v4.9h-4.89V147z" fill="#190066"/><path d="M0 147h4.889v4.9h-4.89V147zM156.444 151.9h4.889v4.9h-4.889v-4.9z" fill="#190066"/><path d="M151.556 151.9h4.888v4.9h-4.888v-4.9zM146.667 151.9h4.889v4.9h-4.889v-4.9zM141.778 151.9h4.889v4.9h-4.889v-4.9z" fill="#190066"/><path d="M124.667 156.8a2.448 2.448 0 01-2.445-2.45 2.448 2.448 0 012.445-2.45 2.447 2.447 0 012.444 2.45 2.447 2.447 0 01-2.444 2.45z" fill="#6119EF"/><path d="M119.778 156.8a2.448 2.448 0 01-2.445-2.45 2.448 2.448 0 012.445-2.45 2.447 2.447 0 012.444 2.45 2.447 2.447 0 01-2.444 2.45z" fill="#6119EF"/><path d="M114.889 156.8a2.448 2.448 0 01-2.445-2.45 2.448 2.448 0 012.445-2.45 2.447 2.447 0 012.444 2.45 2.447 2.447 0 01-2.444 2.45z" fill="#6119EF"/><path d="M107.555 151.9h4.889v4.9h-4.889v-4.9z" fill="#190066"/><path d="M102.667 151.9h4.889v4.9h-4.889v-4.9z" fill="#190066"/><path d="M100.222 156.8a2.447 2.447 0 01-2.444-2.45 2.447 2.447 0 012.444-2.45 2.448 2.448 0 012.445 2.45 2.448 2.448 0 01-2.445 2.45z" fill="#6119EF"/><path d="M95.333 156.8a2.447 2.447 0 01-2.444-2.45 2.447 2.447 0 012.444-2.45 2.447 2.447 0 012.445 2.45 2.447 2.447 0 01-2.445 2.45z" fill="#6119EF"/><path d="M90.445 156.8A2.447 2.447 0 0188 154.35a2.447 2.447 0 012.445-2.45 2.447 2.447 0 012.444 2.45 2.447 2.447 0 01-2.444 2.45z" fill="#6119EF"/><path d="M85.555 156.8a2.447 2.447 0 01-2.444-2.45 2.447 2.447 0 012.444-2.45A2.447 2.447 0 0188 154.35a2.447 2.447 0 01-2.445 2.45z" fill="#6119EF"/><path d="M68.444 151.9h4.89v4.9h-4.89v-4.9z" fill="#190066"/><path d="M66 156.8a2.447 2.447 0 01-2.444-2.45A2.447 2.447 0 0166 151.9a2.447 2.447 0 012.445 2.45A2.447 2.447 0 0166 156.8z" fill="#6119EF"/><path d="M61.111 156.8a2.447 2.447 0 01-2.444-2.45 2.447 2.447 0 012.444-2.45 2.447 2.447 0 012.445 2.45 2.447 2.447 0 01-2.445 2.45z" fill="#6119EF"/><path d="M56.222 156.8a2.447 2.447 0 01-2.444-2.45 2.447 2.447 0 012.444-2.45 2.447 2.447 0 012.445 2.45 2.447 2.447 0 01-2.445 2.45z" fill="#6119EF"/><path d="M51.333 156.8a2.447 2.447 0 01-2.444-2.45 2.447 2.447 0 012.444-2.45 2.447 2.447 0 012.445 2.45 2.447 2.447 0 01-2.445 2.45z" fill="#6119EF"/><path d="M46.444 156.8A2.447 2.447 0 0144 154.35a2.447 2.447 0 012.444-2.45 2.447 2.447 0 012.445 2.45 2.447 2.447 0 01-2.445 2.45z" fill="#6119EF"/><path d="M41.556 156.8a2.447 2.447 0 01-2.445-2.45 2.447 2.447 0 012.445-2.45A2.447 2.447 0 0144 154.35a2.447 2.447 0 01-2.444 2.45z" fill="#6119EF"/><path d="M29.333 151.9h4.89v4.9h-4.89v-4.9z" fill="#190066"/><path d="M26.889 156.8a2.447 2.447 0 01-2.445-2.45 2.447 2.447 0 012.445-2.45 2.447 2.447 0 012.444 2.45 2.447 2.447 0 01-2.444 2.45z" fill="#6119EF"/><path d="M22 156.8a2.447 2.447 0 01-2.444-2.45A2.447 2.447 0 0122 151.9a2.447 2.447 0 012.445 2.45A2.447 2.447 0 0122 156.8z" fill="#6119EF"/><path d="M14.667 151.9h4.889v4.9h-4.89v-4.9z" fill="#190066"/><path d="M9.778 151.9h4.889v4.9h-4.89v-4.9z" fill="#190066"/><path d="M4.889 151.9h4.889v4.9h-4.89v-4.9z" fill="#190066"/><path d="M0 151.9h4.889v4.9h-4.89v-4.9z" fill="#190066"/><path d="M158.889 161.701a2.448 2.448 0 01-2.445-2.45 2.448 2.448 0 012.445-2.45 2.447 2.447 0 012.444 2.45 2.447 2.447 0 01-2.444 2.45z" fill="#6119EF"/><path d="M154 161.701a2.447 2.447 0 01-2.444-2.45 2.447 2.447 0 012.444-2.45 2.447 2.447 0 012.444 2.45 2.447 2.447 0 01-2.444 2.45z" fill="#6119EF"/><path d="M146.667 156.801h4.889v4.9h-4.889v-4.9z" fill="#190066"/><path d="M144.222 161.701a2.447 2.447 0 01-2.444-2.45 2.447 2.447 0 012.444-2.45 2.448 2.448 0 012.445 2.45 2.448 2.448 0 01-2.445 2.45zM124.667 161.701a2.448 2.448 0 01-2.445-2.45 2.448 2.448 0 012.445-2.45 2.447 2.447 0 012.444 2.45 2.447 2.447 0 01-2.444 2.45z" fill="#6119EF"/><path d="M118.964 158.433h1.629v1.633h-1.629v-1.633z" fill="#190066"/><path d="M114.889 161.701a2.448 2.448 0 01-2.445-2.45 2.448 2.448 0 012.445-2.45 2.447 2.447 0 012.444 2.45 2.447 2.447 0 01-2.444 2.45z" fill="#6119EF"/><path d="M110 161.701a2.448 2.448 0 01-2.445-2.45 2.448 2.448 0 012.445-2.45 2.447 2.447 0 012.444 2.45 2.447 2.447 0 01-2.444 2.45z" fill="#6119EF"/><path d="M104.297 158.433h1.63v1.633h-1.63v-1.633z" fill="#190066"/><path d="M100.222 161.701a2.447 2.447 0 01-2.444-2.45 2.447 2.447 0 012.444-2.45 2.448 2.448 0 012.445 2.45 2.448 2.448 0 01-2.445 2.45z" fill="#6119EF"/><path d="M95.333 161.701a2.447 2.447 0 01-2.444-2.45 2.447 2.447 0 012.444-2.45 2.447 2.447 0 012.445 2.45 2.447 2.447 0 01-2.445 2.45z" fill="#6119EF"/><path d="M90.445 161.701a2.447 2.447 0 01-2.445-2.45 2.447 2.447 0 012.445-2.45 2.447 2.447 0 012.444 2.45 2.447 2.447 0 01-2.444 2.45z" fill="#6119EF"/><path d="M85.555 161.701a2.447 2.447 0 01-2.444-2.45 2.447 2.447 0 012.444-2.45 2.447 2.447 0 012.445 2.45 2.447 2.447 0 01-2.445 2.45z" fill="#6119EF"/><path d="M68.444 156.801h4.89v4.9h-4.89v-4.9z" fill="#190066"/><path d="M63.556 156.801h4.889v4.9h-4.89v-4.9z" fill="#190066"/><path d="M61.111 161.701a2.447 2.447 0 01-2.444-2.45 2.447 2.447 0 012.444-2.45 2.447 2.447 0 012.445 2.45 2.447 2.447 0 01-2.445 2.45z" fill="#6119EF"/><path d="M56.222 161.701a2.447 2.447 0 01-2.444-2.45 2.447 2.447 0 012.444-2.45 2.447 2.447 0 012.445 2.45 2.447 2.447 0 01-2.445 2.45z" fill="#6119EF"/><path d="M51.333 161.701a2.447 2.447 0 01-2.444-2.45 2.447 2.447 0 012.444-2.45 2.447 2.447 0 012.445 2.45 2.447 2.447 0 01-2.445 2.45z" fill="#6119EF"/><path d="M46.444 161.701a2.447 2.447 0 01-2.444-2.45 2.447 2.447 0 012.444-2.45 2.447 2.447 0 012.445 2.45 2.447 2.447 0 01-2.445 2.45z" fill="#6119EF"/><path d="M41.556 161.701a2.447 2.447 0 01-2.445-2.45 2.447 2.447 0 012.445-2.45 2.447 2.447 0 012.444 2.45 2.447 2.447 0 01-2.444 2.45z" fill="#6119EF"/><path d="M29.333 156.801h4.89v4.9h-4.89v-4.9z" fill="#190066"/><path d="M26.889 161.701a2.447 2.447 0 01-2.445-2.45 2.447 2.447 0 012.445-2.45 2.447 2.447 0 012.444 2.45 2.447 2.447 0 01-2.444 2.45z" fill="#6119EF"/><path d="M22 161.701a2.447 2.447 0 01-2.444-2.45 2.447 2.447 0 012.444-2.45 2.447 2.447 0 012.445 2.45 2.447 2.447 0 01-2.445 2.45z" fill="#6119EF"/><path d="M17.111 161.701a2.447 2.447 0 01-2.444-2.45 2.447 2.447 0 012.444-2.45 2.447 2.447 0 012.445 2.45 2.447 2.447 0 01-2.445 2.45z" fill="#6119EF"/><path d="M12.222 161.701a2.447 2.447 0 01-2.444-2.45 2.447 2.447 0 012.444-2.45 2.447 2.447 0 012.445 2.45 2.447 2.447 0 01-2.445 2.45z" fill="#6119EF"/><path d="M4.889 156.801h4.889v4.9h-4.89v-4.9z" fill="#190066"/><path d="M0 156.801h4.889v4.9h-4.89v-4.9z" fill="#190066"/><path d="M158.889 166.6a2.448 2.448 0 01-2.445-2.45 2.448 2.448 0 012.445-2.45 2.447 2.447 0 012.444 2.45 2.447 2.447 0 01-2.444 2.45z" fill="#6119EF"/><path d="M154 166.6a2.447 2.447 0 01-2.444-2.45A2.447 2.447 0 01154 161.7a2.447 2.447 0 012.444 2.45A2.447 2.447 0 01154 166.6z" fill="#6119EF"/><path d="M146.667 161.7h4.889v4.9h-4.889v-4.9zM141.778 161.7h4.889v4.9h-4.889v-4.9zM123.853 163.332h1.629v1.633h-1.629v-1.633zM118.964 163.332h1.629v1.633h-1.629v-1.633z" fill="#190066"/><path d="M114.889 166.6a2.448 2.448 0 01-2.445-2.45 2.448 2.448 0 012.445-2.45 2.447 2.447 0 012.444 2.45 2.447 2.447 0 01-2.444 2.45z" fill="#6119EF"/><path d="M107.555 161.7h4.889v4.9h-4.889v-4.9z" fill="#190066"/><path d="M105.111 166.6a2.447 2.447 0 01-2.444-2.45 2.447 2.447 0 012.444-2.45 2.448 2.448 0 012.445 2.45 2.448 2.448 0 01-2.445 2.45z" fill="#6119EF"/><path d="M100.222 166.6a2.447 2.447 0 01-2.444-2.45 2.447 2.447 0 012.444-2.45 2.448 2.448 0 012.445 2.45 2.448 2.448 0 01-2.445 2.45z" fill="#6119EF"/><path d="M95.333 166.6a2.447 2.447 0 01-2.444-2.45 2.447 2.447 0 012.444-2.45 2.447 2.447 0 012.445 2.45 2.447 2.447 0 01-2.445 2.45z" fill="#6119EF"/><path d="M90.445 166.6A2.447 2.447 0 0188 164.15a2.447 2.447 0 012.445-2.45 2.447 2.447 0 012.444 2.45 2.447 2.447 0 01-2.444 2.45z" fill="#6119EF"/><path d="M85.555 166.6a2.447 2.447 0 01-2.444-2.45 2.447 2.447 0 012.444-2.45A2.447 2.447 0 0188 164.15a2.447 2.447 0 01-2.445 2.45z" fill="#6119EF"/><path d="M68.444 161.7h4.89v4.9h-4.89v-4.9z" fill="#190066"/><path d="M63.556 161.7h4.889v4.9h-4.89v-4.9z" fill="#190066"/><path d="M58.667 161.7h4.889v4.9h-4.89v-4.9z" fill="#190066"/><path d="M56.222 166.6a2.447 2.447 0 01-2.444-2.45 2.447 2.447 0 012.444-2.45 2.447 2.447 0 012.445 2.45 2.447 2.447 0 01-2.445 2.45z" fill="#6119EF"/><path d="M51.333 166.6a2.447 2.447 0 01-2.444-2.45 2.447 2.447 0 012.444-2.45 2.447 2.447 0 012.445 2.45 2.447 2.447 0 01-2.445 2.45z" fill="#6119EF"/><path d="M44 161.7h4.889v4.9H44v-4.9z" fill="#190066"/><path d="M41.556 166.6a2.447 2.447 0 01-2.445-2.45 2.447 2.447 0 012.445-2.45A2.447 2.447 0 0144 164.15a2.447 2.447 0 01-2.444 2.45z" fill="#6119EF"/><path d="M29.333 161.7h4.89v4.9h-4.89v-4.9z" fill="#190066"/><path d="M24.444 161.7h4.89v4.9h-4.89v-4.9z" fill="#190066"/><path d="M19.556 161.7h4.889v4.9h-4.89v-4.9z" fill="#190066"/><path d="M17.111 162.925a1.225 1.225 0 000 2.45 1.225 1.225 0 000-2.45zm0-1.225a2.448 2.448 0 012.445 2.45 2.448 2.448 0 01-2.445 2.45 2.448 2.448 0 01-2.444-2.45 2.447 2.447 0 012.444-2.45z" fill="#FF8D4C"/><path d="M12.222 166.6a2.447 2.447 0 01-2.444-2.45 2.447 2.447 0 012.444-2.45 2.447 2.447 0 012.445 2.45 2.447 2.447 0 01-2.445 2.45z" fill="#6119EF"/><path d="M4.889 161.7h4.889v4.9h-4.89v-4.9z" fill="#190066"/><path d="M0 161.7h4.889v4.9h-4.89v-4.9zM156.444 166.601h4.889v4.9h-4.889v-4.9z" fill="#190066"/><path d="M151.556 166.601h4.888v4.9h-4.888v-4.9z" fill="#190066"/><path d="M149.111 171.501a2.447 2.447 0 01-2.444-2.45 2.447 2.447 0 012.444-2.45 2.448 2.448 0 012.445 2.45 2.448 2.448 0 01-2.445 2.45z" fill="#6119EF"/><path d="M141.778 166.601h4.889v4.9h-4.889v-4.9z" fill="#190066"/><path d="M119.778 171.501a2.448 2.448 0 01-2.445-2.45 2.448 2.448 0 012.445-2.45 2.447 2.447 0 012.444 2.45 2.447 2.447 0 01-2.444 2.45z" fill="#6119EF"/><path d="M114.889 171.501a2.448 2.448 0 01-2.445-2.45 2.448 2.448 0 012.445-2.45 2.447 2.447 0 012.444 2.45 2.447 2.447 0 01-2.444 2.45z" fill="#6119EF"/><path d="M110 171.501a2.448 2.448 0 01-2.445-2.45 2.448 2.448 0 012.445-2.45 2.447 2.447 0 012.444 2.45 2.447 2.447 0 01-2.444 2.45z" fill="#6119EF"/><path d="M105.111 171.501a2.447 2.447 0 01-2.444-2.45 2.447 2.447 0 012.444-2.45 2.448 2.448 0 012.445 2.45 2.448 2.448 0 01-2.445 2.45z" fill="#6119EF"/><path d="M100.222 171.501a2.447 2.447 0 01-2.444-2.45 2.447 2.447 0 012.444-2.45 2.448 2.448 0 012.445 2.45 2.448 2.448 0 01-2.445 2.45z" fill="#6119EF"/><path d="M95.333 171.501a2.447 2.447 0 01-2.444-2.45 2.447 2.447 0 012.444-2.45 2.447 2.447 0 012.445 2.45 2.447 2.447 0 01-2.445 2.45z" fill="#6119EF"/><path d="M90.445 171.501a2.447 2.447 0 01-2.445-2.45 2.447 2.447 0 012.445-2.45 2.447 2.447 0 012.444 2.45 2.447 2.447 0 01-2.444 2.45z" fill="#6119EF"/><path d="M85.555 171.501a2.447 2.447 0 01-2.444-2.45 2.447 2.447 0 012.444-2.45 2.447 2.447 0 012.445 2.45 2.447 2.447 0 01-2.445 2.45z" fill="#6119EF"/><path d="M68.444 166.601h4.89v4.9h-4.89v-4.9z" fill="#190066"/><path d="M63.556 166.601h4.889v4.9h-4.89v-4.9z" fill="#190066"/><path d="M58.667 166.601h4.889v4.9h-4.89v-4.9z" fill="#190066"/><path d="M56.222 167.826a1.225 1.225 0 000 2.45 1.225 1.225 0 000-2.45zm0-1.225a2.447 2.447 0 012.445 2.45 2.448 2.448 0 01-2.445 2.45 2.448 2.448 0 01-2.444-2.45 2.448 2.448 0 012.444-2.45z" fill="#FF8D4C"/><path d="M48.889 166.601h4.889v4.9h-4.89v-4.9z" fill="#190066"/><path d="M44 166.601h4.889v4.9H44v-4.9zM39.111 166.601H44v4.9h-4.889v-4.9zM29.333 166.601h4.89v4.9h-4.89v-4.9z" fill="#190066"/><path d="M24.444 166.601h4.89v4.9h-4.89v-4.9z" fill="#190066"/><path d="M19.556 166.601h4.889v4.9h-4.89v-4.9z" fill="#190066"/><path d="M14.667 166.601h4.889v4.9h-4.89v-4.9z" fill="#190066"/><path d="M7.333 171.501a2.447 2.447 0 01-2.444-2.45 2.447 2.447 0 012.444-2.45 2.447 2.447 0 012.445 2.45 2.447 2.447 0 01-2.445 2.45z" fill="#6119EF"/><path d="M2.444 171.501A2.447 2.447 0 010 169.051a2.447 2.447 0 012.444-2.45 2.447 2.447 0 012.445 2.45 2.447 2.447 0 01-2.445 2.45z" fill="#6119EF"/></g><defs><clipPath id="prefix__clip0_2203_8123"><path fill="#fff" transform="matrix(-1 0 0 1 176 0)" d="M0 0h176v196H0z"/></clipPath></defs></svg>