<svg width="610" height="842" viewBox="0 0 610 842" fill="none" xmlns="http://www.w3.org/2000/svg">
<g clip-path="url(#clip0_1395_86446)">
<path d="M595.323 5.09393C596.73 5.09393 597.87 3.95378 597.87 2.54733C597.87 1.14088 596.73 0.000732422 595.323 0.000732422C593.917 0.000732422 592.777 1.14088 592.777 2.54733C592.777 3.95378 593.917 5.09393 595.323 5.09393Z" fill="#190066"/>
<path d="M478.3 27.9827H468.121V38.1616H478.3V27.9827Z" fill="#F8F7F2"/>
<path d="M508.829 27.9827H498.65V38.1616H508.829V27.9827Z" fill="#F8F7F2"/>
<path d="M539.359 27.9827H529.18V38.1616H539.359V27.9827Z" fill="#F8F7F2"/>
<path d="M569.888 27.9827H559.709V38.1616H569.888V27.9827Z" fill="#F8F7F2"/>
<path d="M600.417 27.9827H590.238V38.1616H600.417V27.9827Z" fill="#F8F7F2"/>
<path d="M447.77 58.5095H437.591V68.6885H447.77V58.5095Z" fill="#F8F7F2"/>
<path d="M478.3 58.5095H468.121V68.6885H478.3V58.5095Z" fill="#190066"/>
<path d="M508.829 58.5095H498.65V68.6885H508.829V58.5095Z" fill="#F8F7F2"/>
<path d="M539.359 58.5095H529.18V68.6885H539.359V58.5095Z" fill="#F8F7F2"/>
<path d="M569.888 58.5095H559.709V68.6885H569.888V58.5095Z" fill="#190066"/>
<path d="M417.241 89.0366H407.062V99.2156H417.241V89.0366Z" fill="#F8F7F2"/>
<path d="M447.77 89.0366H437.591V99.2156H447.77V89.0366Z" fill="#F8F7F2"/>
<path d="M478.3 89.0366H468.121V99.2156H478.3V89.0366Z" fill="#190066"/>
<path d="M508.829 89.0366H498.65V99.2156H508.829V89.0366Z" fill="#F8F7F2"/>
<path d="M539.359 89.0366H529.18V99.2156H539.359V89.0366Z" fill="#190066"/>
<path d="M569.888 89.0366H559.709V99.2156H569.888V89.0366Z" fill="#F8F7F2"/>
<path d="M600.417 89.0366H590.238V99.2156H600.417V89.0366Z" fill="#F8F7F2"/>
<path d="M386.711 119.57H376.532V129.749H386.711V119.57Z" fill="#190066"/>
<path d="M417.241 119.57H407.062V129.749H417.241V119.57Z" fill="#F8F7F2"/>
<path d="M447.77 119.57H437.591V129.749H447.77V119.57Z" fill="#F8F7F2"/>
<path d="M478.3 119.57H468.121V129.749H478.3V119.57Z" fill="#F8F7F2"/>
<path d="M569.888 119.57H559.709V129.749H569.888V119.57Z" fill="#F8F7F2"/>
<path d="M386.711 150.097H376.532V160.276H386.711V150.097Z" fill="#F8F7F2"/>
<path d="M417.241 150.097H407.062V160.276H417.241V150.097Z" fill="#190066"/>
<path d="M447.77 150.097H437.591V160.276H447.77V150.097Z" fill="#190066"/>
<path d="M478.3 150.097H468.121V160.276H478.3V150.097Z" fill="#190066"/>
<path d="M508.829 150.097H498.65V160.276H508.829V150.097Z" fill="#190066"/>
<path d="M580.059 139.929H549.53V170.458H580.059V139.929Z" fill="#6119EF"/>
<path d="M610.589 139.929H580.059V170.458H610.589V139.929Z" fill="#6119EF"/>
<path d="M386.711 180.629H376.532V190.808H386.711V180.629Z" fill="#F8F7F2"/>
<path d="M519.001 170.462H488.471V200.991H519.001V170.462Z" fill="#6119EF"/>
<path d="M549.53 170.462H519V200.991H549.53V170.462Z" fill="#190066"/>
<path d="M580.059 170.462H549.53V200.991H580.059V170.462Z" fill="white"/>
<path d="M610.589 170.462H580.059V200.991H610.589V170.462Z" fill="#190066"/>
<path d="M478.3 211.163H468.121V221.342H478.3V211.163Z" fill="#190066"/>
<path d="M610.589 200.989H580.059V231.518H610.589V200.989Z" fill="#61DFFF"/>
<path d="M478.3 241.683H468.121V251.862H478.3V241.683Z" fill="#F8F7F2"/>
<path d="M508.829 241.683H498.65V251.862H508.829V241.683Z" fill="#190066"/>
<path d="M580.059 231.522H549.53V262.051H580.059V231.522Z" fill="#61DFFF"/>
<path d="M610.589 231.522H580.059V262.051H610.589V231.522Z" fill="white"/>
<path d="M447.77 272.216H437.591V282.395H447.77V272.216Z" fill="#190066"/>
<path d="M478.3 272.216H468.121V282.395H478.3V272.216Z" fill="#F8F7F2"/>
<path d="M580.059 262.049H549.53V292.578H580.059V262.049Z" fill="#190066"/>
<path d="M610.589 262.049H580.059V292.578H610.589V262.049Z" fill="#61DFFF"/>
<path d="M478.3 302.743H468.121V312.922H478.3V302.743Z" fill="#190066"/>
<path d="M508.829 302.743H498.65V312.922H508.829V302.743Z" fill="#190066"/>
<path d="M539.359 302.743H529.18V312.922H539.359V302.743Z" fill="#190066"/>
<path d="M569.888 302.743H559.709V312.922H569.888V302.743Z" fill="#190066"/>
<path d="M447.77 333.276H437.591V343.455H447.77V333.276Z" fill="#190066"/>
<path d="M478.3 333.276H468.121V343.455H478.3V333.276Z" fill="#F8F7F2"/>
<path d="M508.829 333.276H498.65V343.455H508.829V333.276Z" fill="#190066"/>
<path d="M539.359 333.276H529.18V343.455H539.359V333.276Z" fill="#F8F7F2"/>
<path d="M569.888 333.276H559.709V343.455H569.888V333.276Z" fill="#F8F7F2"/>
<path d="M600.417 333.276H590.238V343.455H600.417V333.276Z" fill="#F8F7F2"/>
<path d="M478.3 363.809H468.121V373.988H478.3V363.809Z" fill="#F8F7F2"/>
<path d="M508.829 363.809H498.65V373.988H508.829V363.809Z" fill="#F8F7F2"/>
<path d="M539.359 363.809H529.18V373.988H539.359V363.809Z" fill="#F8F7F2"/>
<path d="M569.888 363.809H559.709V373.988H569.888V363.809Z" fill="#190066"/>
<path d="M600.417 363.809H590.238V373.988H600.417V363.809Z" fill="#F8F7F2"/>
<path d="M447.77 394.336H437.591V404.515H447.77V394.336Z" fill="#F8F7F2"/>
<path d="M478.3 394.336H468.121V404.515H478.3V394.336Z" fill="#190066"/>
<path d="M508.829 394.336H498.65V404.515H508.829V394.336Z" fill="#190066"/>
<path d="M539.359 394.336H529.18V404.515H539.359V394.336Z" fill="#F8F7F2"/>
<path d="M569.888 394.336H559.709V404.515H569.888V394.336Z" fill="#190066"/>
<path d="M600.417 394.336H590.238V404.515H600.417V394.336Z" fill="#F8F7F2"/>
<path d="M478.3 424.863H468.121V435.042H478.3V424.863Z" fill="#190066"/>
<path d="M508.829 424.863H498.65V435.042H508.829V424.863Z" fill="#F8F7F2"/>
<path d="M539.359 424.863H529.18V435.042H539.359V424.863Z" fill="#F8F7F2"/>
<path d="M569.888 424.863H559.709V435.042H569.888V424.863Z" fill="#190066"/>
<path d="M508.829 455.39H498.65V465.569H508.829V455.39Z" fill="#F8F7F2"/>
<path d="M539.359 455.39H529.18V465.569H539.359V455.39Z" fill="#F8F7F2"/>
<path d="M508.829 485.923H498.65V496.102H508.829V485.923Z" fill="#190066"/>
<path d="M539.359 485.923H529.18V496.102H539.359V485.923Z" fill="#F8F7F2"/>
<path d="M569.888 485.923H559.709V496.102H569.888V485.923Z" fill="#190066"/>
<path d="M508.829 516.456H498.65V526.635H508.829V516.456Z" fill="#F8F7F2"/>
<path d="M539.359 516.456H529.18V526.635H539.359V516.456Z" fill="#F8F7F2"/>
<path d="M569.888 516.456H559.709V526.635H569.888V516.456Z" fill="#190066"/>
<path d="M600.417 516.456H590.238V526.635H600.417V516.456Z" fill="#F8F7F2"/>
<path d="M539.359 546.983H529.18V557.162H539.359V546.983Z" fill="#F8F7F2"/>
<path d="M569.888 546.983H559.709V557.162H569.888V546.983Z" fill="#190066"/>
<path d="M600.417 546.983H590.238V557.162H600.417V546.983Z" fill="#190066"/>
<path d="M539.359 577.51H529.18V587.689H539.359V577.51Z" fill="#190066"/>
<path d="M569.888 577.51H559.709V587.689H569.888V577.51Z" fill="#F8F7F2"/>
<path d="M600.417 577.51H590.238V587.689H600.417V577.51Z" fill="#F8F7F2"/>
<path d="M569.888 608.037H559.709V618.216H569.888V608.037Z" fill="#190066"/>
<path d="M600.417 608.037H590.238V618.216H600.417V608.037Z" fill="#190066"/>
<path d="M264.594 638.57H254.415V648.749H264.594V638.57Z" fill="#F8F7F2"/>
<path d="M539.359 638.57H529.18V648.749H539.359V638.57Z" fill="#190066"/>
<path d="M600.417 638.57H590.238V648.749H600.417V638.57Z" fill="#190066"/>
<path d="M203.535 669.097H193.356V679.276H203.535V669.097Z" fill="#F8F7F2"/>
<path d="M234.064 669.097H223.885V679.276H234.064V669.097Z" fill="#F8F7F2"/>
<path d="M264.594 669.097H254.415V679.276H264.594V669.097Z" fill="#F8F7F2"/>
<path d="M295.123 669.097H284.944V679.276H295.123V669.097Z" fill="#F8F7F2"/>
<path d="M325.652 669.097H315.473V679.276H325.652V669.097Z" fill="#F8F7F2"/>
<path d="M356.182 669.097H346.003V679.276H356.182V669.097Z" fill="#F8F7F2"/>
<path d="M386.711 669.097H376.532V679.276H386.711V669.097Z" fill="#F8F7F2"/>
<path d="M417.241 669.097H407.062V679.276H417.241V669.097Z" fill="#F8F7F2"/>
<path d="M539.359 669.097H529.18V679.276H539.359V669.097Z" fill="#F8F7F2"/>
<path d="M569.888 669.097H559.709V679.276H569.888V669.097Z" fill="#F8F7F2"/>
<path d="M203.535 699.63H193.356V709.809H203.535V699.63Z" fill="#190066"/>
<path d="M234.064 699.63H223.885V709.809H234.064V699.63Z" fill="#F8F7F2"/>
<path d="M264.594 699.63H254.415V709.809H264.594V699.63Z" fill="#F8F7F2"/>
<path d="M295.123 699.63H284.944V709.809H295.123V699.63Z" fill="#F8F7F2"/>
<path d="M356.182 699.63H346.003V709.809H356.182V699.63Z" fill="#F8F7F2"/>
<path d="M386.711 699.63H376.532V709.809H386.711V699.63Z" fill="#F8F7F2"/>
<path d="M417.241 699.63H407.062V709.809H417.241V699.63Z" fill="#190066"/>
<path d="M447.77 699.63H437.591V709.809H447.77V699.63Z" fill="#F8F7F2"/>
<path d="M478.3 699.63H468.121V709.809H478.3V699.63Z" fill="#F8F7F2"/>
<path d="M508.829 699.63H498.65V709.809H508.829V699.63Z" fill="#190066"/>
<path d="M539.359 699.63H529.18V709.809H539.359V699.63Z" fill="#F8F7F2"/>
<path d="M610.589 689.462H580.059V719.991H610.589V689.462Z" fill="#190066"/>
<path d="M264.594 730.162H254.415V740.341H264.594V730.162Z" fill="#F8F7F2"/>
<path d="M295.123 730.162H284.944V740.341H295.123V730.162Z" fill="#F8F7F2"/>
<path d="M325.652 730.162H315.473V740.341H325.652V730.162Z" fill="#F8F7F2"/>
<path d="M356.182 730.162H346.003V740.341H356.182V730.162Z" fill="#190066"/>
<path d="M417.241 730.162H407.062V740.341H417.241V730.162Z" fill="#F8F7F2"/>
<path d="M447.77 730.162H437.591V740.341H447.77V730.162Z" fill="#F8F7F2"/>
<path d="M478.3 730.162H468.121V740.341H478.3V730.162Z" fill="#F8F7F2"/>
<path d="M508.829 730.162H498.65V740.341H508.829V730.162Z" fill="#F8F7F2"/>
<path d="M539.359 730.162H529.18V740.341H539.359V730.162Z" fill="#190066"/>
<path d="M569.888 730.162H559.709V740.341H569.888V730.162Z" fill="#F8F7F2"/>
<path d="M610.589 719.989H580.059V750.518H610.589V719.989Z" fill="#190066"/>
<path d="M173.005 760.684H162.826V770.863H173.005V760.684Z" fill="#F8F7F2"/>
<path d="M203.535 760.684H193.356V770.863H203.535V760.684Z" fill="#F8F7F2"/>
<path d="M234.064 760.684H223.885V770.863H234.064V760.684Z" fill="#190066"/>
<path d="M264.594 760.684H254.415V770.863H264.594V760.684Z" fill="#190066"/>
<path d="M295.123 760.684H284.944V770.863H295.123V760.684Z" fill="#F8F7F2"/>
<path d="M325.652 760.684H315.473V770.863H325.652V760.684Z" fill="#190066"/>
<path d="M356.182 760.684H346.003V770.863H356.182V760.684Z" fill="#190066"/>
<path d="M386.711 760.684H376.532V770.863H386.711V760.684Z" fill="#190066"/>
<path d="M447.77 760.684H437.591V770.863H447.77V760.684Z" fill="#190066"/>
<path d="M478.3 760.684H468.121V770.863H478.3V760.684Z" fill="#F8F7F2"/>
<path d="M508.829 760.684H498.65V770.863H508.829V760.684Z" fill="#F8F7F2"/>
<path d="M539.359 760.684H529.18V770.863H539.359V760.684Z" fill="#F8F7F2"/>
<path d="M580.059 750.522H549.53V781.051H580.059V750.522Z" fill="#190066"/>
<path d="M610.589 750.522H580.059V781.051H610.589V750.522Z" fill="#61DFFF"/>
<path d="M81.4169 791.216H71.2379V801.395H81.4169V791.216Z" fill="#190066"/>
<path d="M111.946 791.216H101.767V801.395H111.946V791.216Z" fill="#F8F7F2"/>
<path d="M142.476 791.216H132.297V801.395H142.476V791.216Z" fill="#190066"/>
<path d="M173.005 791.216H162.826V801.395H173.005V791.216Z" fill="#190066"/>
<path d="M203.535 791.216H193.356V801.395H203.535V791.216Z" fill="#F8F7F2"/>
<path d="M234.064 791.216H223.885V801.395H234.064V791.216Z" fill="#F8F7F2"/>
<path d="M264.594 791.216H254.415V801.395H264.594V791.216Z" fill="#190066"/>
<path d="M295.123 791.216H284.944V801.395H295.123V791.216Z" fill="#F8F7F2"/>
<path d="M325.652 791.216H315.473V801.395H325.652V791.216Z" fill="#190066"/>
<path d="M356.182 791.216H346.003V801.395H356.182V791.216Z" fill="#F8F7F2"/>
<path d="M386.711 791.216H376.532V801.395H386.711V791.216Z" fill="#190066"/>
<path d="M457.941 781.049H427.412V811.578H457.941V781.049Z" fill="#190066"/>
<path d="M478.3 791.216H468.121V801.395H478.3V791.216Z" fill="#F8F7F2"/>
<path d="M508.829 791.216H498.65V801.395H508.829V791.216Z" fill="#190066"/>
<path d="M539.359 791.216H529.18V801.395H539.359V791.216Z" fill="#F8F7F2"/>
<path d="M580.059 781.049H549.53V811.578H580.059V781.049Z" fill="#190066"/>
<path d="M610.589 781.049H580.059V811.578H610.589V781.049Z" fill="#6119EF"/>
<path d="M81.4169 821.743H71.2379V831.922H81.4169V821.743Z" fill="#F8F7F2"/>
<path d="M111.946 821.743H101.767V831.922H111.946V821.743Z" fill="#190066"/>
<path d="M142.476 821.743H132.297V831.922H142.476V821.743Z" fill="#190066"/>
<path d="M173.005 821.743H162.826V831.922H173.005V821.743Z" fill="#190066"/>
<path d="M203.535 821.743H193.356V831.922H203.535V821.743Z" fill="#F8F7F2"/>
<path d="M234.064 821.743H223.885V831.922H234.064V821.743Z" fill="#190066"/>
<path d="M264.594 821.743H254.415V831.922H264.594V821.743Z" fill="#F8F7F2"/>
<path d="M295.123 821.743H284.944V831.922H295.123V821.743Z" fill="#F8F7F2"/>
<path d="M325.652 821.743H315.473V831.922H325.652V821.743Z" fill="#190066"/>
<path d="M356.182 821.743H346.003V831.922H356.182V821.743Z" fill="#F8F7F2"/>
<path d="M427.412 811.576H396.883V842.105H427.412V811.576Z" fill="#6119EF"/>
<path d="M457.941 811.576H427.412V842.105H457.941V811.576Z" fill="#6119EF"/>
<path d="M478.3 821.743H468.121V831.922H478.3V821.743Z" fill="#F8F7F2"/>
<path d="M508.829 821.743H498.65V831.922H508.829V821.743Z" fill="#190066"/>
<path d="M539.359 821.743H529.18V831.922H539.359V821.743Z" fill="#F8F7F2"/>
<path d="M580.059 811.576H549.53V842.105H580.059V811.576Z" fill="#6119EF"/>
<path d="M610.589 811.576H580.059V842.105H610.589V811.576Z" fill="#190066"/>
<path d="M503.736 139.928C512.166 139.928 519 133.094 519 124.664C519 116.233 512.166 109.399 503.736 109.399C495.305 109.399 488.471 116.233 488.471 124.664C488.471 133.094 495.305 139.928 503.736 139.928Z" fill="#61DFFF"/>
<path d="M534.265 139.928C542.695 139.928 549.53 133.094 549.53 124.664C549.53 116.233 542.695 109.399 534.265 109.399C525.834 109.399 519 116.233 519 124.664C519 133.094 525.834 139.928 534.265 139.928Z" fill="white"/>
<path d="M595.324 139.928C603.754 139.928 610.588 133.094 610.588 124.664C610.588 116.233 603.754 109.399 595.324 109.399C586.893 109.399 580.059 116.233 580.059 124.664C580.059 133.094 586.893 139.928 595.324 139.928Z" fill="#190066"/>
<path d="M534.265 148.123C538.167 148.123 541.339 151.295 541.339 155.197C541.339 159.098 538.167 162.27 534.265 162.27C530.363 162.27 527.191 159.098 527.191 155.197C527.191 151.295 530.363 148.123 534.265 148.123ZM534.265 139.932C525.836 139.932 519 146.767 519 155.197C519 163.626 525.836 170.461 534.265 170.461C542.694 170.461 549.53 163.626 549.53 155.197C549.53 146.767 542.694 139.932 534.265 139.932Z" fill="#6119EF"/>
<path d="M503.736 231.515C512.166 231.515 519 224.681 519 216.25C519 207.82 512.166 200.986 503.736 200.986C495.305 200.986 488.471 207.82 488.471 216.25C488.471 224.681 495.305 231.515 503.736 231.515Z" fill="#190066"/>
<path d="M534.265 231.515C542.695 231.515 549.53 224.681 549.53 216.25C549.53 207.82 542.695 200.986 534.265 200.986C525.834 200.986 519 207.82 519 216.25C519 224.681 525.834 231.515 534.265 231.515Z" fill="white"/>
<path d="M503.736 292.575C512.166 292.575 519 285.741 519 277.31C519 268.88 512.166 262.046 503.736 262.046C495.305 262.046 488.471 268.88 488.471 277.31C488.471 285.741 495.305 292.575 503.736 292.575Z" fill="#190066"/>
<path d="M534.265 270.236C538.167 270.236 541.339 273.409 541.339 277.31C541.339 281.212 538.167 284.384 534.265 284.384C530.363 284.384 527.191 281.212 527.191 277.31C527.191 273.409 530.363 270.236 534.265 270.236ZM534.265 262.046C525.836 262.046 519 268.881 519 277.31C519 285.739 525.836 292.575 534.265 292.575C542.694 292.575 549.53 285.739 549.53 277.31C549.53 268.881 542.694 262.046 534.265 262.046Z" fill="#6119EF"/>
<path d="M595.324 323.108C603.754 323.108 610.588 316.274 610.588 307.843C610.588 299.413 603.754 292.579 595.324 292.579C586.893 292.579 580.059 299.413 580.059 307.843C580.059 316.274 586.893 323.108 595.324 323.108Z" fill="white"/>
<path d="M595.324 445.222C603.754 445.222 610.588 438.388 610.588 429.957C610.588 421.527 603.754 414.692 595.324 414.692C586.893 414.692 580.059 421.527 580.059 429.957C580.059 438.388 586.893 445.222 595.324 445.222Z" fill="#190066"/>
<path d="M564.794 475.749C573.225 475.749 580.059 468.915 580.059 460.484C580.059 452.054 573.225 445.219 564.794 445.219C556.364 445.219 549.53 452.054 549.53 460.484C549.53 468.915 556.364 475.749 564.794 475.749Z" fill="white"/>
<path d="M595.324 475.749C603.754 475.749 610.588 468.915 610.588 460.484C610.588 452.054 603.754 445.219 595.324 445.219C586.893 445.219 580.059 452.054 580.059 460.484C580.059 468.915 586.893 475.749 595.324 475.749Z" fill="white"/>
<path d="M595.324 506.282C603.754 506.282 610.588 499.447 610.588 491.017C610.588 482.586 603.754 475.752 595.324 475.752C586.893 475.752 580.059 482.586 580.059 491.017C580.059 499.447 586.893 506.282 595.324 506.282Z" fill="#61DFFF"/>
<path d="M564.794 658.928C573.225 658.928 580.059 652.094 580.059 643.664C580.059 635.233 573.225 628.399 564.794 628.399C556.364 628.399 549.53 635.233 549.53 643.664C549.53 652.094 556.364 658.928 564.794 658.928Z" fill="white"/>
<path d="M595.324 689.461C603.754 689.461 610.588 682.627 610.588 674.197C610.588 665.766 603.754 658.932 595.324 658.932C586.893 658.932 580.059 665.766 580.059 674.197C580.059 682.627 586.893 689.461 595.324 689.461Z" fill="#61DFFF"/>
<path d="M381.618 842.108C390.048 842.108 396.882 835.274 396.882 826.843C396.882 818.413 390.048 811.579 381.618 811.579C373.187 811.579 366.353 818.413 366.353 826.843C366.353 835.274 373.187 842.108 381.618 842.108Z" fill="white"/>
<path d="M412.147 193.347C416.363 193.347 419.78 189.93 419.78 185.715C419.78 181.5 416.363 178.083 412.147 178.083C407.932 178.083 404.515 181.5 404.515 185.715C404.515 189.93 407.932 193.347 412.147 193.347Z" fill="#190066"/>
<path d="M442.676 193.347C446.891 193.347 450.308 189.93 450.308 185.715C450.308 181.5 446.891 178.083 442.676 178.083C438.461 178.083 435.043 181.5 435.043 185.715C435.043 189.93 438.461 193.347 442.676 193.347Z" fill="#6119EF"/>
<path d="M473.206 193.347C477.421 193.347 480.838 189.93 480.838 185.715C480.838 181.5 477.421 178.083 473.206 178.083C468.99 178.083 465.573 181.5 465.573 185.715C465.573 189.93 468.99 193.347 473.206 193.347Z" fill="#190066"/>
<path d="M442.676 223.88C446.891 223.88 450.308 220.463 450.308 216.248C450.308 212.032 446.891 208.615 442.676 208.615C438.461 208.615 435.043 212.032 435.043 216.248C435.043 220.463 438.461 223.88 442.676 223.88Z" fill="#F8F7F2"/>
<path d="M381.617 254.407C385.833 254.407 389.25 250.99 389.25 246.774C389.25 242.559 385.833 239.142 381.617 239.142C377.402 239.142 373.985 242.559 373.985 246.774C373.985 250.99 377.402 254.407 381.617 254.407Z" fill="#190066"/>
<path d="M412.147 254.407C416.363 254.407 419.78 250.99 419.78 246.774C419.78 242.559 416.363 239.142 412.147 239.142C407.932 239.142 404.515 242.559 404.515 246.774C404.515 250.99 407.932 254.407 412.147 254.407Z" fill="#F8F7F2"/>
<path d="M381.617 284.94C385.833 284.94 389.25 281.523 389.25 277.307C389.25 273.092 385.833 269.675 381.617 269.675C377.402 269.675 373.985 273.092 373.985 277.307C373.985 281.523 377.402 284.94 381.617 284.94Z" fill="#61DFFF"/>
<path d="M412.147 284.94C416.363 284.94 419.78 281.523 419.78 277.307C419.78 273.092 416.363 269.675 412.147 269.675C407.932 269.675 404.515 273.092 404.515 277.307C404.515 281.523 407.932 284.94 412.147 284.94Z" fill="#6119EF"/>
<path d="M381.617 315.461C385.833 315.461 389.25 312.044 389.25 307.828C389.25 303.613 385.833 300.196 381.617 300.196C377.402 300.196 373.985 303.613 373.985 307.828C373.985 312.044 377.402 315.461 381.617 315.461Z" fill="#6119EF"/>
<path d="M381.617 345.994C385.833 345.994 389.25 342.577 389.25 338.361C389.25 334.146 385.833 330.729 381.617 330.729C377.402 330.729 373.985 334.146 373.985 338.361C373.985 342.577 377.402 345.994 381.617 345.994Z" fill="#190066"/>
<path d="M412.147 345.994C416.363 345.994 419.78 342.577 419.78 338.361C419.78 334.146 416.363 330.729 412.147 330.729C407.932 330.729 404.515 334.146 404.515 338.361C404.515 342.577 407.932 345.994 412.147 345.994Z" fill="#190066"/>
<path d="M412.147 376.521C416.363 376.521 419.78 373.103 419.78 368.888C419.78 364.673 416.363 361.256 412.147 361.256C407.932 361.256 404.515 364.673 404.515 368.888C404.515 373.103 407.932 376.521 412.147 376.521Z" fill="#190066"/>
<path d="M473.206 468.107C477.421 468.107 480.838 464.69 480.838 460.475C480.838 456.26 477.421 452.843 473.206 452.843C468.99 452.843 465.573 456.26 465.573 460.475C465.573 464.69 468.99 468.107 473.206 468.107Z" fill="#6119EF"/>
<path d="M503.735 559.7C507.95 559.7 511.367 556.283 511.367 552.068C511.367 547.853 507.95 544.436 503.735 544.436C499.52 544.436 496.103 547.853 496.103 552.068C496.103 556.283 499.52 559.7 503.735 559.7Z" fill="#6119EF"/>
<path d="M503.735 590.233C507.95 590.233 511.367 586.816 511.367 582.601C511.367 578.386 507.95 574.969 503.735 574.969C499.52 574.969 496.103 578.386 496.103 582.601C496.103 586.816 499.52 590.233 503.735 590.233Z" fill="#61DFFF"/>
<path d="M228.97 651.287C233.185 651.287 236.602 647.87 236.602 643.655C236.602 639.44 233.185 636.022 228.97 636.022C224.755 636.022 221.338 639.44 221.338 643.655C221.338 647.87 224.755 651.287 228.97 651.287Z" fill="white"/>
<path d="M442.676 681.814C446.891 681.814 450.308 678.397 450.308 674.182C450.308 669.967 446.891 666.55 442.676 666.55C438.461 666.55 435.043 669.967 435.043 674.182C435.043 678.397 438.461 681.814 442.676 681.814Z" fill="#190066"/>
<path d="M503.735 681.814C507.95 681.814 511.367 678.397 511.367 674.182C511.367 669.967 507.95 666.55 503.735 666.55C499.52 666.55 496.103 669.967 496.103 674.182C496.103 678.397 499.52 681.814 503.735 681.814Z" fill="#190066"/>
<path d="M167.912 712.347C172.127 712.347 175.544 708.93 175.544 704.715C175.544 700.499 172.127 697.082 167.912 697.082C163.696 697.082 160.279 700.499 160.279 704.715C160.279 708.93 163.696 712.347 167.912 712.347Z" fill="#6119EF"/>
<path d="M320.559 712.347C324.774 712.347 328.191 708.93 328.191 704.715C328.191 700.499 324.774 697.082 320.559 697.082C316.344 697.082 312.927 700.499 312.927 704.715C312.927 708.93 316.344 712.347 320.559 712.347Z" fill="#6119EF"/>
<path d="M198.441 742.88C202.657 742.88 206.074 739.463 206.074 735.248C206.074 731.032 202.657 727.615 198.441 727.615C194.226 727.615 190.809 731.032 190.809 735.248C190.809 739.463 194.226 742.88 198.441 742.88Z" fill="#61DFFF"/>
<path d="M228.97 742.88C233.185 742.88 236.602 739.463 236.602 735.248C236.602 731.032 233.185 727.615 228.97 727.615C224.755 727.615 221.338 731.032 221.338 735.248C221.338 739.463 224.755 742.88 228.97 742.88Z" fill="#F8F7F2"/>
<path d="M381.617 742.88C385.833 742.88 389.25 739.463 389.25 735.248C389.25 731.032 385.833 727.615 381.617 727.615C377.402 727.615 373.985 731.032 373.985 735.248C373.985 739.463 377.402 742.88 381.617 742.88Z" fill="#F8F7F2"/>
<path d="M137.382 773.407C141.597 773.407 145.015 769.99 145.015 765.775C145.015 761.56 141.597 758.142 137.382 758.142C133.167 758.142 129.75 761.56 129.75 765.775C129.75 769.99 133.167 773.407 137.382 773.407Z" fill="#6119EF"/>
<path d="M412.147 803.94C416.363 803.94 419.78 800.523 419.78 796.307C419.78 792.092 416.363 788.675 412.147 788.675C407.932 788.675 404.515 792.092 404.515 796.307C404.515 800.523 407.932 803.94 412.147 803.94Z" fill="white"/>
</g>
<defs>
<clipPath id="clip0_1395_86446">
<rect width="1244.07" height="1177.93" fill="white"/>
</clipPath>
</defs>
</svg>
