<svg width="428" height="359" viewBox="0 0 428 359" fill="none" xmlns="http://www.w3.org/2000/svg">
<path d="M417.245 256.962V246.783H407.066V256.962H417.245Z" fill="#F8F7F2"/>
<path d="M417.245 287.491V277.312H407.066V287.491H417.245Z" fill="#190066"/>
<path d="M427.406 358.721V328.192H396.877V358.721H427.406Z" fill="#61DFFF"/>
<path d="M386.712 226.432V216.253H376.533V226.432H386.712Z" fill="#190066"/>
<path d="M386.712 256.962V246.783H376.533V256.962H386.712Z" fill="#F8F7F2"/>
<path d="M396.88 358.721V328.192H366.351V358.721H396.88Z" fill="#190066"/>
<path d="M356.186 256.962V246.783H346.007V256.962H356.186Z" fill="#190066"/>
<path d="M356.186 287.491V277.312H346.007V287.491H356.186Z" fill="#190066"/>
<path d="M356.186 318.021V307.842H346.007V318.021H356.186Z" fill="#190066"/>
<path d="M356.186 348.55V338.371H346.007V348.55H356.186Z" fill="#190066"/>
<path d="M325.653 226.432V216.253H315.474V226.432H325.653Z" fill="#190066"/>
<path d="M325.653 256.962V246.783H315.474V256.962H325.653Z" fill="#F8F7F2"/>
<path d="M325.653 287.491V277.312H315.474V287.491H325.653Z" fill="#190066"/>
<path d="M325.653 318.021V307.842H315.474V318.021H325.653Z" fill="#F8F7F2"/>
<path d="M325.653 348.55V338.371H315.474V348.55H325.653Z" fill="#F8F7F2"/>
<path d="M295.119 256.962V246.783H284.94V256.962H295.119Z" fill="#F8F7F2"/>
<path d="M295.119 287.491V277.312H284.94V287.491H295.119Z" fill="#F8F7F2"/>
<path d="M295.119 318.021V307.842H284.94V318.021H295.119Z" fill="#F8F7F2"/>
<path d="M295.119 348.55V338.371H284.94V348.55H295.119Z" fill="#190066"/>
<path d="M264.592 226.432V216.253H254.413V226.432H264.592Z" fill="#F8F7F2"/>
<path d="M264.592 256.962V246.783H254.413V256.962H264.592Z" fill="#190066"/>
<path d="M264.592 287.491V277.312H254.413V287.491H264.592Z" fill="#190066"/>
<path d="M264.592 318.021V307.842H254.413V318.021H264.592Z" fill="#F8F7F2"/>
<path d="M264.592 348.55V338.371H254.413V348.55H264.592Z" fill="#190066"/>
<path d="M234.066 256.962V246.783H223.887V256.962H234.066Z" fill="#190066"/>
<path d="M234.066 287.491V277.312H223.887V287.491H234.066Z" fill="#F8F7F2"/>
<path d="M234.066 318.021V307.842H223.887V318.021H234.066Z" fill="#F8F7F2"/>
<path d="M234.066 348.55V338.371H223.887V348.55H234.066Z" fill="#190066"/>
<path d="M203.538 287.491V277.312H193.359V287.491H203.538Z" fill="#F8F7F2"/>
<path d="M203.538 318.021V307.842H193.359V318.021H203.538Z" fill="#F8F7F2"/>
<path d="M173.005 287.491V277.312H162.826V287.491H173.005Z" fill="#190066"/>
<path d="M173.005 318.021V307.842H162.826V318.021H173.005Z" fill="#F8F7F2"/>
<path d="M173.005 348.55V338.371H162.826V348.55H173.005Z" fill="#190066"/>
<path d="M142.472 287.491V277.312H132.293V287.491H142.472Z" fill="#F8F7F2"/>
<path d="M142.472 318.021V307.842H132.293V318.021H142.472Z" fill="#F8F7F2"/>
<path d="M142.472 348.55V338.371H132.293V348.55H142.472Z" fill="#190066"/>
<path d="M111.946 318.021V307.842H101.767V318.021H111.946Z" fill="#F8F7F2"/>
<path d="M111.946 348.55V338.371H101.767V348.55H111.946Z" fill="#190066"/>
<path d="M81.4183 318.021V307.842H71.2393V318.021H81.4183Z" fill="#190066"/>
<path d="M81.4183 348.55V338.371H71.2393V348.55H81.4183Z" fill="#F8F7F2"/>
<path d="M50.8918 348.55V338.371H40.7129V348.55H50.8918Z" fill="#190066"/>
<path d="M20.3586 43.2561V33.0771H10.1797V43.2561H20.3586Z" fill="#F8F7F2"/>
<path d="M20.3586 318.021V307.842H10.1797V318.021H20.3586Z" fill="#190066"/>
<path d="M366.354 282.398C366.354 290.828 373.188 297.662 381.618 297.662C390.049 297.662 396.883 290.828 396.883 282.398C396.883 273.967 390.049 267.133 381.618 267.133C373.188 267.133 366.354 273.967 366.354 282.398Z" fill="#190066"/>
<path d="M388.691 312.927C388.691 316.829 385.519 320.001 381.618 320.001C377.716 320.001 374.545 316.829 374.545 312.927C374.545 309.025 377.716 305.853 381.618 305.853C385.519 305.853 388.691 309.025 388.691 312.927ZM396.883 312.927C396.883 304.498 390.047 297.662 381.618 297.662C373.188 297.662 366.354 304.498 366.354 312.927C366.354 321.356 373.188 328.192 381.618 328.192C390.047 328.192 396.883 321.356 396.883 312.927Z" fill="#6119EF"/>
<path d="M183.18 343.456C183.18 351.887 190.014 358.721 198.445 358.721C206.875 358.721 213.709 351.887 213.709 343.456C213.709 335.026 206.875 328.192 198.445 328.192C190.014 328.192 183.18 335.026 183.18 343.456Z" fill="white"/>
<path d="M0 343.456C0 351.887 6.83424 358.721 15.2647 358.721C23.6951 358.721 30.5294 351.887 30.5294 343.456C30.5294 335.026 23.6951 328.192 15.2647 328.192C6.83424 328.192 0 335.026 0 343.456Z" fill="white"/>
<path d="M403.999 251.294C403.999 255.51 407.416 258.927 411.631 258.927C415.847 258.927 419.264 255.51 419.264 251.294C419.264 247.079 415.847 243.662 411.631 243.662C407.416 243.662 403.999 247.079 403.999 251.294Z" fill="#190066"/>
<path d="M404.521 190.809C404.521 195.025 407.938 198.442 412.154 198.442C416.369 198.442 419.786 195.025 419.786 190.809C419.786 186.594 416.369 183.177 412.154 183.177C407.938 183.177 404.521 186.594 404.521 190.809Z" fill="#F8F7F2"/>
<path d="M373.988 160.279C373.988 164.495 377.405 167.912 381.62 167.912C385.836 167.912 389.253 164.495 389.253 160.279C389.253 156.064 385.836 152.647 381.62 152.647C377.405 152.647 373.988 156.064 373.988 160.279Z" fill="#61DFFF"/>
<path d="M373.988 190.809C373.988 195.025 377.405 198.442 381.62 198.442C385.836 198.442 389.253 195.025 389.253 190.809C389.253 186.594 385.836 183.177 381.62 183.177C377.405 183.177 373.988 186.594 373.988 190.809Z" fill="#6119EF"/>
<path d="M343.468 160.279C343.468 164.495 346.885 167.912 351.101 167.912C355.316 167.912 358.733 164.495 358.733 160.279C358.733 156.064 355.316 152.647 351.101 152.647C346.885 152.647 343.468 156.064 343.468 160.279Z" fill="#6119EF"/>
<path d="M312.935 160.279C312.935 164.495 316.352 167.912 320.568 167.912C324.783 167.912 328.2 164.495 328.2 160.279C328.2 156.064 324.783 152.647 320.568 152.647C316.352 152.647 312.935 156.064 312.935 160.279Z" fill="#190066"/>
<path d="M312.935 190.809C312.935 195.025 316.352 198.442 320.568 198.442C324.783 198.442 328.2 195.025 328.2 190.809C328.2 186.594 324.783 183.177 320.568 183.177C316.352 183.177 312.935 186.594 312.935 190.809Z" fill="#190066"/>
<path d="M282.407 190.809C282.407 195.025 285.824 198.442 290.04 198.442C294.255 198.442 297.672 195.025 297.672 190.809C297.672 186.594 294.255 183.177 290.04 183.177C285.824 183.177 282.407 186.594 282.407 190.809Z" fill="#190066"/>
<path d="M190.82 251.868C190.82 256.083 194.238 259.5 198.453 259.5C202.668 259.5 206.085 256.083 206.085 251.868C206.085 247.652 202.668 244.235 198.453 244.235C194.238 244.235 190.82 247.652 190.82 251.868Z" fill="#6119EF"/>
<path d="M99.2285 282.397C99.2285 286.612 102.646 290.029 106.861 290.029C111.076 290.029 114.494 286.612 114.494 282.397C114.494 278.182 111.076 274.765 106.861 274.765C102.646 274.765 99.2285 278.182 99.2285 282.397Z" fill="#6119EF"/>
<path d="M68.6953 282.397C68.6953 286.612 72.1124 290.029 76.3276 290.029C80.5429 290.029 83.96 286.612 83.96 282.397C83.96 278.182 80.5429 274.765 76.3276 274.765C72.1124 274.765 68.6953 278.182 68.6953 282.397Z" fill="#61DFFF"/>
<path d="M7.6416 7.632C7.6416 11.847 11.0588 15.264 15.274 15.264C19.4892 15.264 22.9063 11.847 22.9063 7.632C22.9063 3.417 19.4892 0 15.274 0C11.0588 0 7.6416 3.417 7.6416 7.632Z" fill="white"/>
</svg>
