<svg width="300" height="445" viewBox="0 0 300 445" fill="none" xmlns="http://www.w3.org/2000/svg">
  <g clip-path="url(#clip0_1395_87120)">
    <path
      d="M76.3234 5.09393C77.7299 5.09393 78.87 3.95378 78.87 2.54733C78.87 1.14088 77.7299 0.000732422 76.3234 0.000732422C74.917 0.000732422 73.7769 1.14088 73.7769 2.54733C73.7769 3.95378 74.917 5.09393 76.3234 5.09393Z"
      fill="#190066" />
    <path d="M20.3586 27.9827H10.1796V38.1616H20.3586V27.9827Z" fill="#F8F7F2" />
    <path d="M50.8877 27.9827H40.7087V38.1616H50.8877V27.9827Z" fill="#F8F7F2" />
    <path d="M81.4168 27.9827H71.2379V38.1616H81.4168V27.9827Z" fill="#F8F7F2" />
    <path d="M142.476 27.9827H132.297V38.1616H142.476V27.9827Z" fill="#F8F7F2" />
    <path d="M173.005 27.9827H162.826V38.1616H173.005V27.9827Z" fill="#190066" />
    <path d="M203.535 27.9827H193.356V38.1616H203.535V27.9827Z" fill="#190066" />
    <path d="M20.3586 58.5095H10.1796V68.6885H20.3586V58.5095Z" fill="#F8F7F2" />
    <path d="M50.8877 58.5095H40.7087V68.6885H50.8877V58.5095Z" fill="#190066" />
    <path d="M111.947 58.5095H101.768V68.6885H111.947V58.5095Z" fill="#190066" />
    <path d="M142.476 58.5095H132.297V68.6885H142.476V58.5095Z" fill="#190066" />
    <path d="M203.535 58.5095H193.356V68.6885H203.535V58.5095Z" fill="#190066" />
    <path d="M20.3586 89.0366H10.1796V99.2156H20.3586V89.0366Z" fill="#190066" />
    <path d="M50.8877 89.0366H40.7087V99.2156H50.8877V89.0366Z" fill="#F8F7F2" />
    <path d="M81.4168 89.0366H71.2379V99.2156H81.4168V89.0366Z" fill="#F8F7F2" />
    <path d="M111.947 89.0366H101.768V99.2156H111.947V89.0366Z" fill="#F8F7F2" />
    <path d="M142.476 89.0366H132.297V99.2156H142.476V89.0366Z" fill="#190066" />
    <path d="M50.8877 119.57H40.7087V129.749H50.8877V119.57Z" fill="#F8F7F2" />
    <path d="M142.476 119.57H132.297V129.749H142.476V119.57Z" fill="#190066" />
    <path d="M173.005 119.57H162.826V129.749H173.005V119.57Z" fill="#190066" />
    <path
      d="M198.442 127.207C199.848 127.207 200.989 126.067 200.989 124.661C200.989 123.254 199.848 122.114 198.442 122.114C197.036 122.114 195.895 123.254 195.895 124.661C195.895 126.067 197.036 127.207 198.442 127.207Z"
      fill="#190066" />
    <path d="M61.0594 139.929H30.53V170.458H61.0594V139.929Z" fill="#190066" />
    <path d="M91.5888 139.929H61.0594V170.458H91.5888V139.929Z" fill="#190066" />
    <path d="M203.535 150.097H193.356V160.276H203.535V150.097Z" fill="#190066" />
    <path d="M0.000841141 170.462H-30.5286V200.991H0.000841141V170.462Z" fill="#6119EF" />
    <path d="M30.5295 170.462H0.00012207V200.991H30.5295V170.462Z" fill="#190066" />
    <path d="M61.0594 170.462H30.53V200.991H61.0594V170.462Z" fill="#6119EF" />
    <path d="M91.5888 170.462H61.0594V200.991H91.5888V170.462Z" fill="#6119EF" />
    <path d="M122.118 170.462H91.5883V200.991H122.118V170.462Z" fill="#190066" />
    <path d="M152.647 170.462H122.118V200.991H152.647V170.462Z" fill="#190066" />
    <path d="M234.064 180.629H223.885V190.808H234.064V180.629Z" fill="#190066" />
    <path d="M91.5888 200.989H61.0594V231.518H91.5888V200.989Z" fill="#61DFFF" />
    <path d="M183.177 200.989H152.648V231.518H183.177V200.989Z" fill="#190066" />
    <path d="M213.707 200.989H183.177V231.518H213.707V200.989Z" fill="#6119EF" />
    <path d="M264.593 211.163H254.414V221.342H264.593V211.163Z" fill="#190066" />
    <path d="M61.0594 231.522H30.53V262.051H61.0594V231.522Z" fill="#61DFFF" />
    <path d="M91.5888 231.522H61.0594V262.051H91.5888V231.522Z" fill="#6119EF" />
    <path d="M122.118 231.522H91.5883V262.051H122.118V231.522Z" fill="#61DFFF" />
    <path d="M152.647 231.522H122.118V262.051H152.647V231.522Z" fill="#190066" />
    <path d="M183.177 231.522H152.648V262.051H183.177V231.522Z" fill="#6119EF" />
    <path d="M213.707 231.522H183.177V262.051H213.707V231.522Z" fill="#190066" />
    <path d="M234.064 241.683H223.885V251.862H234.064V241.683Z" fill="#F8F7F2" />
    <path d="M264.593 241.683H254.414V251.862H264.593V241.683Z" fill="#F8F7F2" />
    <path d="M61.0594 262.049H30.53V292.578H61.0594V262.049Z" fill="#190066" />
    <path d="M91.5888 262.049H61.0594V292.578H91.5888V262.049Z" fill="#61DFFF" />
    <path d="M122.118 262.049H91.5883V292.578H122.118V262.049Z" fill="#61DFFF" />
    <path d="M152.647 262.049H122.118V292.578H152.647V262.049Z" fill="#6119EF" />
    <path d="M183.177 262.049H152.648V292.578H183.177V262.049Z" fill="#F8F7F2" />
    <path d="M234.064 272.216H223.885V282.395H234.064V272.216Z" fill="#190066" />
    <path d="M264.593 272.216H254.414V282.395H264.593V272.216Z" fill="#190066" />
    <path d="M20.3586 302.743H10.1796V312.922H20.3586V302.743Z" fill="#190066" />
    <path d="M50.8877 302.743H40.7087V312.922H50.8877V302.743Z" fill="#190066" />
    <path d="M264.593 302.743H254.414V312.922H264.593V302.743Z" fill="#190066" />
    <path d="M295.123 302.743H284.944V312.922H295.123V302.743Z" fill="#190066" />
    <path d="M20.3586 333.276H10.1796V343.455H20.3586V333.276Z" fill="#F8F7F2" />
    <path d="M50.8877 333.276H40.7087V343.455H50.8877V333.276Z" fill="#F8F7F2" />
    <path d="M81.4168 333.276H71.2379V343.455H81.4168V333.276Z" fill="#F8F7F2" />
    <path d="M173.005 333.276H162.826V343.455H173.005V333.276Z" fill="#F8F7F2" />
    <path d="M203.535 333.276H193.356V343.455H203.535V333.276Z" fill="#F8F7F2" />
    <path d="M234.064 333.276H223.885V343.455H234.064V333.276Z" fill="#190066" />
    <path d="M264.593 333.276H254.414V343.455H264.593V333.276Z" fill="#190066" />
    <path d="M20.3586 363.809H10.1796V373.988H20.3586V363.809Z" fill="#F8F7F2" />
    <path d="M50.8877 363.809H40.7087V373.988H50.8877V363.809Z" fill="#190066" />
    <path d="M81.4168 363.809H71.2379V373.988H81.4168V363.809Z" fill="#F8F7F2" />
    <path d="M111.947 363.809H101.768V373.988H111.947V363.809Z" fill="#F8F7F2" />
    <path d="M142.476 363.809H132.297V373.988H142.476V363.809Z" fill="#190066" />
    <path d="M173.005 363.809H162.826V373.988H173.005V363.809Z" fill="#F8F7F2" />
    <path d="M203.535 363.809H193.356V373.988H203.535V363.809Z" fill="#F8F7F2" />
    <path d="M234.064 363.809H223.885V373.988H234.064V363.809Z" fill="#F8F7F2" />
    <path d="M264.593 363.809H254.414V373.988H264.593V363.809Z" fill="#190066" />
    <path d="M20.3586 394.336H10.1796V404.515H20.3586V394.336Z" fill="#F8F7F2" />
    <path d="M50.8877 394.336H40.7087V404.515H50.8877V394.336Z" fill="#190066" />
    <path d="M81.4168 394.336H71.2379V404.515H81.4168V394.336Z" fill="#F8F7F2" />
    <path d="M111.947 394.336H101.768V404.515H111.947V394.336Z" fill="#190066" />
    <path d="M142.476 394.336H132.297V404.515H142.476V394.336Z" fill="#F8F7F2" />
    <path d="M173.005 394.336H162.826V404.515H173.005V394.336Z" fill="#190066" />
    <path d="M203.535 394.336H193.356V404.515H203.535V394.336Z" fill="#F8F7F2" />
    <path d="M234.064 394.336H223.885V404.515H234.064V394.336Z" fill="#F8F7F2" />
    <path d="M20.3586 424.863H10.1796V435.042H20.3586V424.863Z" fill="#F8F7F2" />
    <path d="M50.8877 424.863H40.7087V435.042H50.8877V424.863Z" fill="#190066" />
    <path d="M111.947 424.863H101.768V435.042H111.947V424.863Z" fill="#190066" />
    <path d="M142.476 424.863H132.297V435.042H142.476V424.863Z" fill="#190066" />
    <path d="M173.005 424.863H162.826V435.042H173.005V424.863Z" fill="#190066" />
    <path d="M203.535 424.863H193.356V435.042H203.535V424.863Z" fill="#190066" />
    <path
      d="M-15.2643 139.928C-6.83389 139.928 0.000352859 133.094 0.000352859 124.664C0.000352859 116.233 -6.83389 109.399 -15.2643 109.399C-23.6948 109.399 -30.5291 116.233 -30.5291 124.664C-30.5291 133.094 -23.6948 139.928 -15.2643 139.928Z"
      fill="#FFF068" />
    <path
      d="M15.2648 139.928C23.6953 139.928 30.5295 133.094 30.5295 124.664C30.5295 116.233 23.6953 109.399 15.2648 109.399C6.83436 109.399 0.00012207 116.233 0.00012207 124.664C0.00012207 133.094 6.83436 139.928 15.2648 139.928Z"
      fill="white" />
    <path
      d="M76.3236 139.928C84.7541 139.928 91.5883 133.094 91.5883 124.664C91.5883 116.233 84.7541 109.399 76.3236 109.399C67.8931 109.399 61.0589 116.233 61.0589 124.664C61.0589 133.094 67.8931 139.928 76.3236 139.928Z"
      fill="white" />
    <path
      d="M15.2648 148.123C19.1666 148.123 22.3387 151.295 22.3387 155.197C22.3387 159.098 19.1666 162.27 15.2648 162.27C11.363 162.27 8.19094 159.098 8.19094 155.197C8.19094 151.295 11.363 148.123 15.2648 148.123ZM15.2648 139.932C6.83573 139.932 0.00012207 146.767 0.00012207 155.197C0.00012207 163.626 6.83573 170.461 15.2648 170.461C23.6939 170.461 30.5295 163.626 30.5295 155.197C30.5295 146.767 23.6939 139.932 15.2648 139.932Z"
      fill="#6119EF" />
    <path
      d="M106.853 148.123C110.755 148.123 113.927 151.295 113.927 155.197C113.927 159.098 110.755 162.27 106.853 162.27C102.951 162.27 99.7793 159.098 99.7793 155.197C99.7793 151.295 102.951 148.123 106.853 148.123ZM106.853 139.932C98.4241 139.932 91.5885 146.767 91.5885 155.197C91.5885 163.626 98.4241 170.461 106.853 170.461C115.282 170.461 122.118 163.626 122.118 155.197C122.118 146.767 115.282 139.932 106.853 139.932Z"
      fill="#6119EF" />
    <path
      d="M167.912 200.988C176.342 200.988 183.176 194.154 183.176 185.723C183.176 177.293 176.342 170.459 167.912 170.459C159.481 170.459 152.647 177.293 152.647 185.723C152.647 194.154 159.481 200.988 167.912 200.988Z"
      fill="#6119EF" />
    <path
      d="M198.441 200.988C206.871 200.988 213.706 194.154 213.706 185.723C213.706 177.293 206.871 170.459 198.441 170.459C190.01 170.459 183.176 177.293 183.176 185.723C183.176 194.154 190.01 200.988 198.441 200.988Z"
      fill="white" />
    <path
      d="M-15.2643 231.515C-6.83389 231.515 0.000352859 224.681 0.000352859 216.25C0.000352859 207.82 -6.83389 200.986 -15.2643 200.986C-23.6948 200.986 -30.5291 207.82 -30.5291 216.25C-30.5291 224.681 -23.6948 231.515 -15.2643 231.515Z"
      fill="white" />
    <path
      d="M15.2648 231.515C23.6953 231.515 30.5295 224.681 30.5295 216.25C30.5295 207.82 23.6953 200.986 15.2648 200.986C6.83436 200.986 0.00012207 207.82 0.00012207 216.25C0.00012207 224.681 6.83436 231.515 15.2648 231.515Z"
      fill="white" />
    <path
      d="M228.971 231.515C237.401 231.515 244.235 224.681 244.235 216.25C244.235 207.82 237.401 200.986 228.971 200.986C220.54 200.986 213.706 207.82 213.706 216.25C213.706 224.681 220.54 231.515 228.971 231.515Z"
      fill="#61DFFF" />
    <path
      d="M-15.2643 292.575C-6.83389 292.575 0.000352859 285.741 0.000352859 277.31C0.000352859 268.88 -6.83389 262.046 -15.2643 262.046C-23.6948 262.046 -30.5291 268.88 -30.5291 277.31C-30.5291 285.741 -23.6948 292.575 -15.2643 292.575Z"
      fill="#FCD6FF" />
    <path
      d="M15.2648 270.236C19.1666 270.236 22.3387 273.409 22.3387 277.31C22.3387 281.212 19.1666 284.384 15.2648 284.384C11.363 284.384 8.19094 281.212 8.19094 277.31C8.19094 273.409 11.363 270.236 15.2648 270.236ZM15.2648 262.046C6.83573 262.046 0.00012207 268.881 0.00012207 277.31C0.00012207 285.739 6.83573 292.575 15.2648 292.575C23.6939 292.575 30.5295 285.739 30.5295 277.31C30.5295 268.881 23.6939 262.046 15.2648 262.046Z"
      fill="#6119EF" />
    <path
      d="M198.441 270.236C202.343 270.236 205.515 273.409 205.515 277.31C205.515 281.212 202.343 284.384 198.441 284.384C194.539 284.384 191.367 281.212 191.367 277.31C191.367 273.409 194.539 270.236 198.441 270.236ZM198.441 262.046C190.012 262.046 183.176 268.881 183.176 277.31C183.176 285.739 190.012 292.575 198.441 292.575C206.87 292.575 213.706 285.739 213.706 277.31C213.706 268.881 206.87 262.046 198.441 262.046Z"
      fill="#6119EF" />
    <path
      d="M76.3236 323.108C84.7541 323.108 91.5883 316.274 91.5883 307.843C91.5883 299.413 84.7541 292.579 76.3236 292.579C67.8931 292.579 61.0589 299.413 61.0589 307.843C61.0589 316.274 67.8931 323.108 76.3236 323.108Z"
      fill="white" />
    <path
      d="M106.853 323.108C115.284 323.108 122.118 316.274 122.118 307.843C122.118 299.413 115.284 292.579 106.853 292.579C98.4227 292.579 91.5885 299.413 91.5885 307.843C91.5885 316.274 98.4227 323.108 106.853 323.108Z"
      fill="white" />
    <path
      d="M137.382 323.108C145.812 323.108 152.647 316.274 152.647 307.843C152.647 299.413 145.812 292.579 137.382 292.579C128.951 292.579 122.117 299.413 122.117 307.843C122.117 316.274 128.951 323.108 137.382 323.108Z"
      fill="white" />
    <path
      d="M198.441 323.108C206.871 323.108 213.706 316.274 213.706 307.843C213.706 299.413 206.871 292.579 198.441 292.579C190.01 292.579 183.176 299.413 183.176 307.843C183.176 316.274 190.01 323.108 198.441 323.108Z"
      fill="#61DFFF" />
    <path
      d="M228.971 323.108C237.401 323.108 244.235 316.274 244.235 307.843C244.235 299.413 237.401 292.579 228.971 292.579C220.54 292.579 213.706 299.413 213.706 307.843C213.706 316.274 220.54 323.108 228.971 323.108Z"
      fill="#6119EF" />
    <path
      d="M106.853 353.635C115.284 353.635 122.118 346.801 122.118 338.37C122.118 329.94 115.284 323.106 106.853 323.106C98.4227 323.106 91.5885 329.94 91.5885 338.37C91.5885 346.801 98.4227 353.635 106.853 353.635Z"
      fill="white" />
    <path
      d="M76.3236 445.222C84.7541 445.222 91.5883 438.388 91.5883 429.957C91.5883 421.527 84.7541 414.692 76.3236 414.692C67.8931 414.692 61.0589 421.527 61.0589 429.957C61.0589 438.388 67.8931 445.222 76.3236 445.222Z"
      fill="#6119EF" />
    <path
      d="M106.853 40.7002C111.068 40.7002 114.485 37.2831 114.485 33.0679C114.485 28.8527 111.068 25.4355 106.853 25.4355C102.638 25.4355 99.2206 28.8527 99.2206 33.0679C99.2206 37.2831 102.638 40.7002 106.853 40.7002Z"
      fill="#61DFFF" />
    <path
      d="M167.911 71.233C172.127 71.233 175.544 67.8158 175.544 63.6006C175.544 59.3854 172.127 55.9683 167.911 55.9683C163.696 55.9683 160.279 59.3854 160.279 63.6006C160.279 67.8158 163.696 71.233 167.911 71.233Z"
      fill="#6119EF" />
    <path
      d="M167.911 101.76C172.127 101.76 175.544 98.3427 175.544 94.1275C175.544 89.9122 172.127 86.4951 167.911 86.4951C163.696 86.4951 160.279 89.9122 160.279 94.1275C160.279 98.3427 163.696 101.76 167.911 101.76Z"
      fill="#190066" />
    <path
      d="M228.971 101.76C233.186 101.76 236.603 98.3427 236.603 94.1275C236.603 89.9122 233.186 86.4951 228.971 86.4951C224.756 86.4951 221.338 89.9122 221.338 94.1275C221.338 98.3427 224.756 101.76 228.971 101.76Z"
      fill="#61DFFF" />
    <path
      d="M259.5 101.76C263.715 101.76 267.132 98.3427 267.132 94.1275C267.132 89.9122 263.715 86.4951 259.5 86.4951C255.285 86.4951 251.868 89.9122 251.868 94.1275C251.868 98.3427 255.285 101.76 259.5 101.76Z"
      fill="#6119EF" />
    <path
      d="M259.5 132.287C263.715 132.287 267.132 128.87 267.132 124.655C267.132 120.439 263.715 117.022 259.5 117.022C255.285 117.022 251.868 120.439 251.868 124.655C251.868 128.87 255.285 132.287 259.5 132.287Z"
      fill="#6119EF" />
    <path
      d="M290.029 132.287C294.244 132.287 297.661 128.87 297.661 124.655C297.661 120.439 294.244 117.022 290.029 117.022C285.814 117.022 282.397 120.439 282.397 124.655C282.397 128.87 285.814 132.287 290.029 132.287Z"
      fill="#61DFFF" />
    <path
      d="M290.029 162.814C294.244 162.814 297.661 159.397 297.661 155.182C297.661 150.966 294.244 147.549 290.029 147.549C285.814 147.549 282.397 150.966 282.397 155.182C282.397 159.397 285.814 162.814 290.029 162.814Z"
      fill="#6119EF" />
    <path
      d="M259.5 193.347C263.715 193.347 267.132 189.93 267.132 185.715C267.132 181.5 263.715 178.083 259.5 178.083C255.285 178.083 251.868 181.5 251.868 185.715C251.868 189.93 255.285 193.347 259.5 193.347Z"
      fill="#6119EF" />
    <path
      d="M290.029 254.407C294.244 254.407 297.661 250.99 297.661 246.774C297.661 242.559 294.244 239.142 290.029 239.142C285.814 239.142 282.397 242.559 282.397 246.774C282.397 250.99 285.814 254.407 290.029 254.407Z"
      fill="white" />
    <path
      d="M290.029 284.94C294.244 284.94 297.661 281.523 297.661 277.307C297.661 273.092 294.244 269.675 290.029 269.675C285.814 269.675 282.397 273.092 282.397 277.307C282.397 281.523 285.814 284.94 290.029 284.94Z"
      fill="#6119EF" />
    <path
      d="M290.029 345.994C294.244 345.994 297.661 342.577 297.661 338.361C297.661 334.146 294.244 330.729 290.029 330.729C285.814 330.729 282.397 334.146 282.397 338.361C282.397 342.577 285.814 345.994 290.029 345.994Z"
      fill="white" />
    <path
      d="M228.971 437.586C233.186 437.586 236.603 434.169 236.603 429.954C236.603 425.739 233.186 422.322 228.971 422.322C224.756 422.322 221.338 425.739 221.338 429.954C221.338 434.169 224.756 437.586 228.971 437.586Z"
      fill="#190066" />
  </g>
  <defs>
    <clipPath id="clip0_1395_87120">
      <rect width="1244.07" height="1177.93" fill="white" transform="translate(-519)" />
    </clipPath>
  </defs>
</svg>